<?xml version="1.0" encoding="UTF-8" standalone="no"?>
<!DOCTYPE svg PUBLIC "-//W3C//DTD SVG 1.1//EN"
 "http://www.w3.org/Graphics/SVG/1.1/DTD/svg11.dtd">
<!-- Generated by graphviz version 2.43.0 (0)
 -->
<!-- Title: %3 Pages: 1 -->
<svg width="1376pt" height="1703pt"
 viewBox="0.00 0.00 1375.50 1703.00" xmlns="http://www.w3.org/2000/svg" xmlns:xlink="http://www.w3.org/1999/xlink">
<g id="graph0" class="graph" transform="scale(1 1) rotate(0) translate(4 1699)">
<title>%3</title>
<polygon fill="white" stroke="transparent" points="-4,4 -4,-1699 1371.5,-1699 1371.5,4 -4,4"/>
<!-- 1 -->
<g id="node1" class="node">
<title>1</title>
<polygon fill="#ef6603" stroke="#ef6603" points="516,-1695 466,-1695 466,-1654 516,-1654 516,-1695"/>
<text text-anchor="middle" x="491" y="-1683" font-family="Arial" font-size="10.00" fill="#ffffff">main</text>
<text text-anchor="middle" x="491" y="-1672" font-family="Arial" font-size="10.00" fill="#ffffff">89.49%</text>
<text text-anchor="middle" x="491" y="-1661" font-family="Arial" font-size="10.00" fill="#ffffff">(0.00%)</text>
</g>
<!-- 2 -->
<g id="node2" class="node">
<title>2</title>
<polygon fill="#ec7a03" stroke="#ec7a03" points="635,-1614 347,-1614 347,-1529 635,-1529 635,-1614"/>
<text text-anchor="middle" x="491" y="-1602" font-family="Arial" font-size="10.00" fill="#ffffff">BPMNOS::Execution::Engine::run(BPMNOS::Model::Scenario</text>
<text text-anchor="middle" x="491" y="-1591" font-family="Arial" font-size="10.00" fill="#ffffff">const*,</text>
<text text-anchor="middle" x="491" y="-1580" font-family="Arial" font-size="10.00" fill="#ffffff">cnl::scaled_integer&lt;long,</text>
<text text-anchor="middle" x="491" y="-1569" font-family="Arial" font-size="10.00" fill="#ffffff">cnl::power&lt;&#45;16,2&gt;&gt;)</text>
<text text-anchor="middle" x="491" y="-1558" font-family="Arial" font-size="10.00" fill="#ffffff">87.19%</text>
<text text-anchor="middle" x="491" y="-1547" font-family="Arial" font-size="10.00" fill="#ffffff">(0.00%)</text>
<text text-anchor="middle" x="491" y="-1536" font-family="Arial" font-size="10.00" fill="#ffffff">1×</text>
</g>
<!-- 1&#45;&gt;2 -->
<g id="edge1" class="edge">
<title>1&#45;&gt;2</title>
<path fill="none" stroke="#ec7a03" stroke-width="3.49" d="M491,-1653.55C491,-1644.83 491,-1634.17 491,-1623.48"/>
<polygon fill="#ec7a03" stroke="#ec7a03" stroke-width="3.49" points="494.26,-1623.43 491,-1614.13 487.75,-1623.43 494.26,-1623.43"/>
<text text-anchor="middle" x="508" y="-1637" font-family="Arial" font-size="10.00" fill="#ec7a03">87.19%</text>
<text text-anchor="middle" x="508" y="-1626" font-family="Arial" font-size="10.00" fill="#ec7a03">1×</text>
</g>
<!-- 3 -->
<g id="node3" class="node">
<title>3</title>
<polygon fill="#ec7a03" stroke="#ec7a03" points="587,-1483.5 393,-1483.5 393,-1431.5 587,-1431.5 587,-1483.5"/>
<text text-anchor="middle" x="490" y="-1471.5" font-family="Arial" font-size="10.00" fill="#ffffff">BPMNOS::Execution::Engine::advance()</text>
<text text-anchor="middle" x="490" y="-1460.5" font-family="Arial" font-size="10.00" fill="#ffffff">87.19%</text>
<text text-anchor="middle" x="490" y="-1449.5" font-family="Arial" font-size="10.00" fill="#ffffff">(0.00%)</text>
<text text-anchor="middle" x="490" y="-1438.5" font-family="Arial" font-size="10.00" fill="#ffffff">1×</text>
</g>
<!-- 2&#45;&gt;3 -->
<g id="edge2" class="edge">
<title>2&#45;&gt;3</title>
<path fill="none" stroke="#ec7a03" stroke-width="3.49" d="M490.63,-1528.8C490.52,-1517.06 490.41,-1504.42 490.31,-1493.15"/>
<polygon fill="#ec7a03" stroke="#ec7a03" stroke-width="3.49" points="493.56,-1492.91 490.22,-1483.64 487.05,-1492.97 493.56,-1492.91"/>
<text text-anchor="middle" x="507" y="-1512" font-family="Arial" font-size="10.00" fill="#ec7a03">87.19%</text>
<text text-anchor="middle" x="507" y="-1501" font-family="Arial" font-size="10.00" fill="#ec7a03">1×</text>
</g>
<!-- 4 -->
<g id="node4" class="node">
<title>4</title>
<polygon fill="#a9d207" stroke="#a9d207" points="1017.5,-1380.5 622.5,-1380.5 622.5,-1328.5 1017.5,-1328.5 1017.5,-1380.5"/>
<text text-anchor="middle" x="820" y="-1368.5" font-family="Arial" font-size="10.00" fill="#ffffff">BPMNOS::Execution::EventListener::fetchEvent(BPMNOS::Execution::SystemState*)</text>
<text text-anchor="middle" x="820" y="-1357.5" font-family="Arial" font-size="10.00" fill="#ffffff">69.92%</text>
<text text-anchor="middle" x="820" y="-1346.5" font-family="Arial" font-size="10.00" fill="#ffffff">(0.00%)</text>
<text text-anchor="middle" x="820" y="-1335.5" font-family="Arial" font-size="10.00" fill="#ffffff">421×</text>
</g>
<!-- 3&#45;&gt;4 -->
<g id="edge3" class="edge">
<title>3&#45;&gt;4</title>
<path fill="none" stroke="#a9d207" stroke-width="2.8" d="M572,-1431.4C620,-1416.71 680.69,-1398.14 730.01,-1383.04"/>
<polygon fill="#a9d207" stroke="#a9d207" stroke-width="2.8" points="730.97,-1385.82 738.14,-1380.55 729.25,-1380.2 730.97,-1385.82"/>
<text text-anchor="middle" x="701" y="-1409" font-family="Arial" font-size="10.00" fill="#a9d207">69.92%</text>
<text text-anchor="middle" x="701" y="-1398" font-family="Arial" font-size="10.00" fill="#a9d207">421×</text>
</g>
<!-- 12 -->
<g id="node5" class="node">
<title>12</title>
<polygon fill="#0c5787" stroke="#0c5787" points="356.5,-1386 27.5,-1386 27.5,-1323 356.5,-1323 356.5,-1386"/>
<text text-anchor="middle" x="192" y="-1374" font-family="Arial" font-size="10.00" fill="#ffffff">BPMNOS::Execution::Notifier::notify(BPMNOS::Execution::Observable</text>
<text text-anchor="middle" x="192" y="-1363" font-family="Arial" font-size="10.00" fill="#ffffff">const*) const</text>
<text text-anchor="middle" x="192" y="-1352" font-family="Arial" font-size="10.00" fill="#ffffff">15.30%</text>
<text text-anchor="middle" x="192" y="-1341" font-family="Arial" font-size="10.00" fill="#ffffff">(0.00%)</text>
<text text-anchor="middle" x="192" y="-1330" font-family="Arial" font-size="10.00" fill="#ffffff">4081×</text>
</g>
<!-- 3&#45;&gt;12 -->
<g id="edge4" class="edge">
<title>3&#45;&gt;12</title>
<path fill="none" stroke="#0d1475" stroke-width="0.5" d="M415.95,-1431.4C376.55,-1418.05 327.7,-1401.49 285.68,-1387.25"/>
<polygon fill="#0d1475" stroke="#0d1475" stroke-width="0.5" points="285.86,-1386.02 282.15,-1386.06 285.08,-1388.34 285.86,-1386.02"/>
<text text-anchor="middle" x="381" y="-1409" font-family="Arial" font-size="10.00" fill="#0d1475">1.82%</text>
<text text-anchor="middle" x="381" y="-1398" font-family="Arial" font-size="10.00" fill="#0d1475">421×</text>
</g>
<!-- 13 -->
<g id="node6" class="node">
<title>13</title>
<polygon fill="#0d5085" stroke="#0d5085" points="610.5,-1380.5 367.5,-1380.5 367.5,-1328.5 610.5,-1328.5 610.5,-1380.5"/>
<text text-anchor="middle" x="489" y="-1368.5" font-family="Arial" font-size="10.00" fill="#ffffff">BPMNOS::Execution::Engine::Command::execute()</text>
<text text-anchor="middle" x="489" y="-1357.5" font-family="Arial" font-size="10.00" fill="#ffffff">13.99%</text>
<text text-anchor="middle" x="489" y="-1346.5" font-family="Arial" font-size="10.00" fill="#ffffff">(0.00%)</text>
<text text-anchor="middle" x="489" y="-1335.5" font-family="Arial" font-size="10.00" fill="#ffffff">2880×</text>
</g>
<!-- 3&#45;&gt;13 -->
<g id="edge5" class="edge">
<title>3&#45;&gt;13</title>
<path fill="none" stroke="#0d5085" stroke-width="0.56" d="M489.75,-1431.27C489.61,-1417.17 489.44,-1399.53 489.29,-1384.82"/>
<polygon fill="#0d5085" stroke="#0d5085" stroke-width="0.56" points="490.58,-1384.44 489.25,-1380.75 487.99,-1384.47 490.58,-1384.44"/>
<text text-anchor="middle" x="506" y="-1409" font-family="Arial" font-size="10.00" fill="#0d5085">13.99%</text>
<text text-anchor="middle" x="506" y="-1398" font-family="Arial" font-size="10.00" fill="#0d5085">2880×</text>
</g>
<!-- 5 -->
<g id="node7" class="node">
<title>5</title>
<polygon fill="#a8d207" stroke="#a8d207" points="1034,-1283 618,-1283 618,-1220 1034,-1220 1034,-1283"/>
<text text-anchor="middle" x="826" y="-1271" font-family="Arial" font-size="10.00" fill="#ffffff">BPMNOS::Execution::GreedyController::dispatchEvent(BPMNOS::Execution::SystemState</text>
<text text-anchor="middle" x="826" y="-1260" font-family="Arial" font-size="10.00" fill="#ffffff">const*)</text>
<text text-anchor="middle" x="826" y="-1249" font-family="Arial" font-size="10.00" fill="#ffffff">69.88%</text>
<text text-anchor="middle" x="826" y="-1238" font-family="Arial" font-size="10.00" fill="#ffffff">(0.00%)</text>
<text text-anchor="middle" x="826" y="-1227" font-family="Arial" font-size="10.00" fill="#ffffff">301×</text>
</g>
<!-- 4&#45;&gt;5 -->
<g id="edge6" class="edge">
<title>4&#45;&gt;5</title>
<path fill="none" stroke="#a8d207" stroke-width="2.8" d="M821.5,-1328.27C822.15,-1317.27 822.93,-1304.11 823.66,-1291.87"/>
<polygon fill="#a8d207" stroke="#a8d207" stroke-width="2.8" points="826.61,-1291.73 824.18,-1283.17 820.75,-1291.38 826.61,-1291.73"/>
<text text-anchor="middle" x="840" y="-1306" font-family="Arial" font-size="10.00" fill="#a8d207">69.88%</text>
<text text-anchor="middle" x="840" y="-1295" font-family="Arial" font-size="10.00" fill="#a8d207">301×</text>
</g>
<!-- 14 -->
<g id="node15" class="node">
<title>14</title>
<polygon fill="#0d4d84" stroke="#0d4d84" points="534.5,-1283 425.5,-1283 425.5,-1220 534.5,-1220 534.5,-1283"/>
<text text-anchor="middle" x="480" y="-1271" font-family="Arial" font-size="10.00" fill="#ffffff">std::function&lt;void</text>
<text text-anchor="middle" x="480" y="-1260" font-family="Arial" font-size="10.00" fill="#ffffff">()&gt;::operator()() const</text>
<text text-anchor="middle" x="480" y="-1249" font-family="Arial" font-size="10.00" fill="#ffffff">13.39%</text>
<text text-anchor="middle" x="480" y="-1238" font-family="Arial" font-size="10.00" fill="#ffffff">(0.00%)</text>
<text text-anchor="middle" x="480" y="-1227" font-family="Arial" font-size="10.00" fill="#ffffff">2880×</text>
</g>
<!-- 13&#45;&gt;14 -->
<g id="edge14" class="edge">
<title>13&#45;&gt;14</title>
<path fill="none" stroke="#0d4d84" stroke-width="0.54" d="M486.75,-1328.27C485.64,-1315.78 484.28,-1300.5 483.07,-1286.94"/>
<polygon fill="#0d4d84" stroke="#0d4d84" stroke-width="0.54" points="484.35,-1286.74 482.73,-1283.17 481.77,-1286.97 484.35,-1286.74"/>
<text text-anchor="middle" x="502" y="-1306" font-family="Arial" font-size="10.00" fill="#0d4d84">13.39%</text>
<text text-anchor="middle" x="502" y="-1295" font-family="Arial" font-size="10.00" fill="#0d4d84">2880×</text>
</g>
<!-- 6 -->
<g id="node8" class="node">
<title>6</title>
<polygon fill="#95cf07" stroke="#95cf07" points="1067.5,-1163.5 588.5,-1163.5 588.5,-1100.5 1067.5,-1100.5 1067.5,-1163.5"/>
<text text-anchor="middle" x="828" y="-1151.5" font-family="Arial" font-size="10.00" fill="#ffffff">BPMNOS::Execution::BestMatchingMessageDelivery::dispatchEvent(BPMNOS::Execution::SystemState</text>
<text text-anchor="middle" x="828" y="-1140.5" font-family="Arial" font-size="10.00" fill="#ffffff">const*)</text>
<text text-anchor="middle" x="828" y="-1129.5" font-family="Arial" font-size="10.00" fill="#ffffff">67.80%</text>
<text text-anchor="middle" x="828" y="-1118.5" font-family="Arial" font-size="10.00" fill="#ffffff">(1.89%)</text>
<text text-anchor="middle" x="828" y="-1107.5" font-family="Arial" font-size="10.00" fill="#ffffff">301×</text>
</g>
<!-- 5&#45;&gt;6 -->
<g id="edge7" class="edge">
<title>5&#45;&gt;6</title>
<path fill="none" stroke="#95cf07" stroke-width="2.71" d="M826.52,-1219.93C826.77,-1205.36 827.07,-1187.76 827.33,-1172.21"/>
<polygon fill="#95cf07" stroke="#95cf07" stroke-width="2.71" points="830.21,-1172.07 827.48,-1163.82 824.47,-1171.97 830.21,-1172.07"/>
<text text-anchor="middle" x="844" y="-1203" font-family="Arial" font-size="10.00" fill="#95cf07">67.80%</text>
<text text-anchor="middle" x="844" y="-1192" font-family="Arial" font-size="10.00" fill="#95cf07">301×</text>
</g>
<!-- 7 -->
<g id="node9" class="node">
<title>7</title>
<polygon fill="#0ab21e" stroke="#0ab21e" points="967,-972.5 689,-972.5 689,-920.5 967,-920.5 967,-972.5"/>
<text text-anchor="middle" x="828" y="-960.5" font-family="Arial" font-size="10.00" fill="#ffffff">BPMNOS::Execution::MessageDeliveryDecision::evaluate()</text>
<text text-anchor="middle" x="828" y="-949.5" font-family="Arial" font-size="10.00" fill="#ffffff">47.01%</text>
<text text-anchor="middle" x="828" y="-938.5" font-family="Arial" font-size="10.00" fill="#ffffff">(0.63%)</text>
<text text-anchor="middle" x="828" y="-927.5" font-family="Arial" font-size="10.00" fill="#ffffff">109800×</text>
</g>
<!-- 6&#45;&gt;7 -->
<g id="edge8" class="edge">
<title>6&#45;&gt;7</title>
<path fill="none" stroke="#0ab21e" stroke-width="1.88" d="M828,-1100.29C828,-1066.85 828,-1013.63 828,-979.64"/>
<polygon fill="#0ab21e" stroke="#0ab21e" stroke-width="1.88" points="830.42,-979.6 828,-972.7 825.59,-979.6 830.42,-979.6"/>
<text text-anchor="middle" x="847" y="-1067" font-family="Arial" font-size="10.00" fill="#0ab21e">47.01%</text>
<text text-anchor="middle" x="847" y="-1056" font-family="Arial" font-size="10.00" fill="#0ab21e">109800×</text>
</g>
<!-- 15 -->
<g id="node10" class="node">
<title>15</title>
<polygon fill="#0c5686" stroke="#0c5686" points="1367.5,-1044 976.5,-1044 976.5,-849 1367.5,-849 1367.5,-1044"/>
<text text-anchor="middle" x="1172" y="-1032" font-family="Arial" font-size="10.00" fill="#ffffff">BPMNOS::Execution::GreedyDispatcher&lt;std::weak_ptr&lt;BPMNOS::Execution::Token</text>
<text text-anchor="middle" x="1172" y="-1021" font-family="Arial" font-size="10.00" fill="#ffffff">const&gt;,</text>
<text text-anchor="middle" x="1172" y="-1010" font-family="Arial" font-size="10.00" fill="#ffffff">std::weak_ptr&lt;BPMNOS::Execution::DecisionRequest</text>
<text text-anchor="middle" x="1172" y="-999" font-family="Arial" font-size="10.00" fill="#ffffff">const&gt;,</text>
<text text-anchor="middle" x="1172" y="-988" font-family="Arial" font-size="10.00" fill="#ffffff">std::weak_ptr&lt;BPMNOS::Execution::Message</text>
<text text-anchor="middle" x="1172" y="-977" font-family="Arial" font-size="10.00" fill="#ffffff">const&gt;</text>
<text text-anchor="middle" x="1172" y="-966" font-family="Arial" font-size="10.00" fill="#ffffff">&gt;::addEvaluation(std::weak_ptr&lt;BPMNOS::Execution::Token</text>
<text text-anchor="middle" x="1172" y="-955" font-family="Arial" font-size="10.00" fill="#ffffff">const&gt;,</text>
<text text-anchor="middle" x="1172" y="-944" font-family="Arial" font-size="10.00" fill="#ffffff">std::weak_ptr&lt;BPMNOS::Execution::DecisionRequest</text>
<text text-anchor="middle" x="1172" y="-933" font-family="Arial" font-size="10.00" fill="#ffffff">const&gt;,</text>
<text text-anchor="middle" x="1172" y="-922" font-family="Arial" font-size="10.00" fill="#ffffff">std::weak_ptr&lt;BPMNOS::Execution::Message</text>
<text text-anchor="middle" x="1172" y="-911" font-family="Arial" font-size="10.00" fill="#ffffff">const&gt;,</text>
<text text-anchor="middle" x="1172" y="-900" font-family="Arial" font-size="10.00" fill="#ffffff">std::shared_ptr&lt;BPMNOS::Execution::Decision&gt;,</text>
<text text-anchor="middle" x="1172" y="-889" font-family="Arial" font-size="10.00" fill="#ffffff">std::optional&lt;double&gt;)</text>
<text text-anchor="middle" x="1172" y="-878" font-family="Arial" font-size="10.00" fill="#ffffff">15.14%</text>
<text text-anchor="middle" x="1172" y="-867" font-family="Arial" font-size="10.00" fill="#ffffff">(1.89%)</text>
<text text-anchor="middle" x="1172" y="-856" font-family="Arial" font-size="10.00" fill="#ffffff">109800×</text>
</g>
<!-- 6&#45;&gt;15 -->
<g id="edge9" class="edge">
<title>6&#45;&gt;15</title>
<path fill="none" stroke="#0c5686" stroke-width="0.61" d="M885.19,-1100.49C913.79,-1085.24 950.17,-1065.83 987.35,-1046"/>
<polygon fill="#0c5686" stroke="#0c5686" stroke-width="0.61" points="988.15,-1047.12 990.95,-1044.08 986.87,-1044.71 988.15,-1047.12"/>
<text text-anchor="middle" x="988" y="-1067" font-family="Arial" font-size="10.00" fill="#0c5686">15.14%</text>
<text text-anchor="middle" x="988" y="-1056" font-family="Arial" font-size="10.00" fill="#0c5686">109800×</text>
</g>
<!-- 8 -->
<g id="node11" class="node">
<title>8</title>
<polygon fill="#0ab122" stroke="#0ab122" points="1056.5,-787 603.5,-787 603.5,-735 1056.5,-735 1056.5,-787"/>
<text text-anchor="middle" x="830" y="-775" font-family="Arial" font-size="10.00" fill="#ffffff">BPMNOS::Execution::GuidedEvaluator::evaluate(BPMNOS::Execution::MessageDeliveryDecision*)</text>
<text text-anchor="middle" x="830" y="-764" font-family="Arial" font-size="10.00" fill="#ffffff">46.38%</text>
<text text-anchor="middle" x="830" y="-753" font-family="Arial" font-size="10.00" fill="#ffffff">(1.26%)</text>
<text text-anchor="middle" x="830" y="-742" font-family="Arial" font-size="10.00" fill="#ffffff">109800×</text>
</g>
<!-- 7&#45;&gt;8 -->
<g id="edge10" class="edge">
<title>7&#45;&gt;8</title>
<path fill="none" stroke="#0ab122" stroke-width="1.86" d="M828.27,-920.37C828.63,-887.52 829.26,-829.94 829.65,-794.01"/>
<polygon fill="#0ab122" stroke="#0ab122" stroke-width="1.86" points="832.03,-793.95 829.73,-787.12 827.27,-793.89 832.03,-793.95"/>
<text text-anchor="middle" x="848" y="-832" font-family="Arial" font-size="10.00" fill="#0ab122">46.38%</text>
<text text-anchor="middle" x="848" y="-821" font-family="Arial" font-size="10.00" fill="#0ab122">109800×</text>
</g>
<!-- 9 -->
<g id="node12" class="node">
<title>9</title>
<polygon fill="#0c9788" stroke="#0c9788" points="1067.5,-673 592.5,-673 592.5,-588 1067.5,-588 1067.5,-673"/>
<text text-anchor="middle" x="830" y="-661" font-family="Arial" font-size="10.00" fill="#ffffff">BPMNOS::Execution::GuidedEvaluator::updateValues(BPMNOS::Execution::MessageDeliveryDecision*,</text>
<text text-anchor="middle" x="830" y="-650" font-family="Arial" font-size="10.00" fill="#ffffff">BPMNOS::Values&amp;,</text>
<text text-anchor="middle" x="830" y="-639" font-family="Arial" font-size="10.00" fill="#ffffff">BPMNOS::Values&amp;,</text>
<text text-anchor="middle" x="830" y="-628" font-family="Arial" font-size="10.00" fill="#ffffff">BPMNOS::Values&amp;)</text>
<text text-anchor="middle" x="830" y="-617" font-family="Arial" font-size="10.00" fill="#ffffff">27.74%</text>
<text text-anchor="middle" x="830" y="-606" font-family="Arial" font-size="10.00" fill="#ffffff">(0.00%)</text>
<text text-anchor="middle" x="830" y="-595" font-family="Arial" font-size="10.00" fill="#ffffff">109800×</text>
</g>
<!-- 8&#45;&gt;9 -->
<g id="edge11" class="edge">
<title>8&#45;&gt;9</title>
<path fill="none" stroke="#0c9788" stroke-width="1.11" d="M830,-734.92C830,-718.9 830,-697.62 830,-678.53"/>
<polygon fill="#0c9788" stroke="#0c9788" stroke-width="1.11" points="831.86,-678.51 830,-673.21 828.15,-678.51 831.86,-678.51"/>
<text text-anchor="middle" x="849" y="-696" font-family="Arial" font-size="10.00" fill="#0c9788">27.74%</text>
<text text-anchor="middle" x="849" y="-685" font-family="Arial" font-size="10.00" fill="#0c9788">109800×</text>
</g>
<!-- 10 -->
<g id="node13" class="node">
<title>10</title>
<polygon fill="#0c9789" stroke="#0c9789" points="1063.5,-548 596.5,-548 596.5,-463 1063.5,-463 1063.5,-548"/>
<text text-anchor="middle" x="830" y="-536" font-family="Arial" font-size="10.00" fill="#ffffff">BPMNOS::Execution::LocalEvaluator::updateValues(BPMNOS::Execution::MessageDeliveryDecision*,</text>
<text text-anchor="middle" x="830" y="-525" font-family="Arial" font-size="10.00" fill="#ffffff">BPMNOS::Values&amp;,</text>
<text text-anchor="middle" x="830" y="-514" font-family="Arial" font-size="10.00" fill="#ffffff">BPMNOS::Values&amp;,</text>
<text text-anchor="middle" x="830" y="-503" font-family="Arial" font-size="10.00" fill="#ffffff">BPMNOS::Values&amp;)</text>
<text text-anchor="middle" x="830" y="-492" font-family="Arial" font-size="10.00" fill="#ffffff">27.43%</text>
<text text-anchor="middle" x="830" y="-481" font-family="Arial" font-size="10.00" fill="#ffffff">(4.40%)</text>
<text text-anchor="middle" x="830" y="-470" font-family="Arial" font-size="10.00" fill="#ffffff">109800×</text>
</g>
<!-- 9&#45;&gt;10 -->
<g id="edge12" class="edge">
<title>9&#45;&gt;10</title>
<path fill="none" stroke="#0c9789" stroke-width="1.1" d="M830,-587.86C830,-576.84 830,-564.86 830,-553.58"/>
<polygon fill="#0c9789" stroke="#0c9789" stroke-width="1.1" points="831.82,-553.3 830,-548.1 828.18,-553.3 831.82,-553.3"/>
<text text-anchor="middle" x="849" y="-571" font-family="Arial" font-size="10.00" fill="#0c9789">27.43%</text>
<text text-anchor="middle" x="849" y="-560" font-family="Arial" font-size="10.00" fill="#0c9789">109800×</text>
</g>
<!-- 26 -->
<g id="node14" class="node">
<title>26</title>
<polygon fill="#0d4482" stroke="#0d4482" points="1048.5,-401 611.5,-401 611.5,-316 1048.5,-316 1048.5,-401"/>
<text text-anchor="middle" x="830" y="-389" font-family="Arial" font-size="10.00" fill="#ffffff">void</text>
<text text-anchor="middle" x="830" y="-378" font-family="Arial" font-size="10.00" fill="#ffffff">BPMNOS::Model::ExtensionElements::applyOperators&lt;BPMNOS::Values&gt;(BPMNOS::Values&amp;,</text>
<text text-anchor="middle" x="830" y="-367" font-family="Arial" font-size="10.00" fill="#ffffff">BPMNOS::Values&amp;,</text>
<text text-anchor="middle" x="830" y="-356" font-family="Arial" font-size="10.00" fill="#ffffff">BPMNOS::Values&amp;) const</text>
<text text-anchor="middle" x="830" y="-345" font-family="Arial" font-size="10.00" fill="#ffffff">11.83%</text>
<text text-anchor="middle" x="830" y="-334" font-family="Arial" font-size="10.00" fill="#ffffff">(0.00%)</text>
<text text-anchor="middle" x="830" y="-323" font-family="Arial" font-size="10.00" fill="#ffffff">109920×</text>
</g>
<!-- 10&#45;&gt;26 -->
<g id="edge13" class="edge">
<title>10&#45;&gt;26</title>
<path fill="none" stroke="#0d4482" stroke-width="0.5" d="M830,-462.95C830,-444.75 830,-423.34 830,-404.74"/>
<polygon fill="#0d4482" stroke="#0d4482" stroke-width="0.5" points="831.23,-404.56 830,-401.06 828.78,-404.56 831.23,-404.56"/>
<text text-anchor="middle" x="849" y="-446" font-family="Arial" font-size="10.00" fill="#0d4482">11.81%</text>
<text text-anchor="middle" x="849" y="-435" font-family="Arial" font-size="10.00" fill="#0d4482">109800×</text>
</g>
<!-- 27 -->
<g id="node26" class="node">
<title>27</title>
<polygon fill="#0d4181" stroke="#0d4181" points="1003.5,-237.5 656.5,-237.5 656.5,-152.5 1003.5,-152.5 1003.5,-237.5"/>
<text text-anchor="middle" x="830" y="-225.5" font-family="Arial" font-size="10.00" fill="#ffffff">void</text>
<text text-anchor="middle" x="830" y="-214.5" font-family="Arial" font-size="10.00" fill="#ffffff">BPMNOS::Model::Operator::apply&lt;BPMNOS::Values&gt;(BPMNOS::Values&amp;,</text>
<text text-anchor="middle" x="830" y="-203.5" font-family="Arial" font-size="10.00" fill="#ffffff">BPMNOS::Values&amp;,</text>
<text text-anchor="middle" x="830" y="-192.5" font-family="Arial" font-size="10.00" fill="#ffffff">BPMNOS::Values&amp;) const</text>
<text text-anchor="middle" x="830" y="-181.5" font-family="Arial" font-size="10.00" fill="#ffffff">11.20%</text>
<text text-anchor="middle" x="830" y="-170.5" font-family="Arial" font-size="10.00" fill="#ffffff">(0.00%)</text>
<text text-anchor="middle" x="830" y="-159.5" font-family="Arial" font-size="10.00" fill="#ffffff">329400×</text>
</g>
<!-- 26&#45;&gt;27 -->
<g id="edge24" class="edge">
<title>26&#45;&gt;27</title>
<path fill="none" stroke="#0d4181" stroke-width="0.5" d="M830,-315.91C830,-293.11 830,-264.82 830,-241.44"/>
<polygon fill="#0d4181" stroke="#0d4181" stroke-width="0.5" points="831.23,-241.23 830,-237.73 828.78,-241.23 831.23,-241.23"/>
<text text-anchor="middle" x="849" y="-277" font-family="Arial" font-size="10.00" fill="#0d4181">11.20%</text>
<text text-anchor="middle" x="849" y="-266" font-family="Arial" font-size="10.00" fill="#0d4181">329400×</text>
</g>
<!-- 19 -->
<g id="node16" class="node">
<title>19</title>
<polygon fill="#0d3f81" stroke="#0d3f81" points="578.5,-1180 273.5,-1180 273.5,-1084 578.5,-1084 578.5,-1180"/>
<text text-anchor="middle" x="426" y="-1168" font-family="Arial" font-size="10.00" fill="#ffffff">std::_Function_handler&lt;void (),</text>
<text text-anchor="middle" x="426" y="-1157" font-family="Arial" font-size="10.00" fill="#ffffff">std::_Bind&lt;void</text>
<text text-anchor="middle" x="426" y="-1146" font-family="Arial" font-size="10.00" fill="#ffffff">(BPMNOS::Execution::Token::*(BPMNOS::Execution::Token*))()&gt;</text>
<text text-anchor="middle" x="426" y="-1135" font-family="Arial" font-size="10.00" fill="#ffffff">&gt;::_M_invoke(std::_Any_data</text>
<text text-anchor="middle" x="426" y="-1124" font-family="Arial" font-size="10.00" fill="#ffffff">const&amp;)</text>
<text text-anchor="middle" x="426" y="-1113" font-family="Arial" font-size="10.00" fill="#ffffff">10.90%</text>
<text text-anchor="middle" x="426" y="-1102" font-family="Arial" font-size="10.00" fill="#ffffff">(0.00%)</text>
<text text-anchor="middle" x="426" y="-1091" font-family="Arial" font-size="10.00" fill="#ffffff">1860×</text>
</g>
<!-- 14&#45;&gt;19 -->
<g id="edge15" class="edge">
<title>14&#45;&gt;19</title>
<path fill="none" stroke="#0d3f81" stroke-width="0.5" d="M465.95,-1219.93C460.87,-1208.87 454.98,-1196.06 449.31,-1183.73"/>
<polygon fill="#0d3f81" stroke="#0d3f81" stroke-width="0.5" points="450.3,-1182.94 447.72,-1180.27 448.07,-1183.96 450.3,-1182.94"/>
<text text-anchor="middle" x="477" y="-1203" font-family="Arial" font-size="10.00" fill="#0d3f81">10.90%</text>
<text text-anchor="middle" x="477" y="-1192" font-family="Arial" font-size="10.00" fill="#0d3f81">1860×</text>
</g>
<!-- 22 -->
<g id="node20" class="node">
<title>22</title>
<polygon fill="#0d3f81" stroke="#0d3f81" points="613.5,-1011 224.5,-1011 224.5,-882 613.5,-882 613.5,-1011"/>
<text text-anchor="middle" x="419" y="-999" font-family="Arial" font-size="10.00" fill="#ffffff">std::enable_if&lt;is_invocable_r_v&lt;void,</text>
<text text-anchor="middle" x="419" y="-988" font-family="Arial" font-size="10.00" fill="#ffffff">std::_Bind&lt;void</text>
<text text-anchor="middle" x="419" y="-977" font-family="Arial" font-size="10.00" fill="#ffffff">(BPMNOS::Execution::Token::*(BPMNOS::Execution::Token*))()&gt;&amp;&gt;,</text>
<text text-anchor="middle" x="419" y="-966" font-family="Arial" font-size="10.00" fill="#ffffff">void&gt;::type</text>
<text text-anchor="middle" x="419" y="-955" font-family="Arial" font-size="10.00" fill="#ffffff">std::__invoke_r&lt;void,</text>
<text text-anchor="middle" x="419" y="-944" font-family="Arial" font-size="10.00" fill="#ffffff">std::_Bind&lt;void</text>
<text text-anchor="middle" x="419" y="-933" font-family="Arial" font-size="10.00" fill="#ffffff">(BPMNOS::Execution::Token::*(BPMNOS::Execution::Token*))()&gt;&amp;&gt;(std::_Bind&lt;void</text>
<text text-anchor="middle" x="419" y="-922" font-family="Arial" font-size="10.00" fill="#ffffff">(BPMNOS::Execution::Token::*(BPMNOS::Execution::Token*))()&gt;&amp;)</text>
<text text-anchor="middle" x="419" y="-911" font-family="Arial" font-size="10.00" fill="#ffffff">10.90%</text>
<text text-anchor="middle" x="419" y="-900" font-family="Arial" font-size="10.00" fill="#ffffff">(0.00%)</text>
<text text-anchor="middle" x="419" y="-889" font-family="Arial" font-size="10.00" fill="#ffffff">1860×</text>
</g>
<!-- 19&#45;&gt;22 -->
<g id="edge18" class="edge">
<title>19&#45;&gt;22</title>
<path fill="none" stroke="#0d3f81" stroke-width="0.5" d="M424.2,-1083.74C423.4,-1062.78 422.44,-1037.72 421.57,-1014.85"/>
<polygon fill="#0d3f81" stroke="#0d3f81" stroke-width="0.5" points="422.79,-1014.65 421.43,-1011.2 420.34,-1014.74 422.79,-1014.65"/>
<text text-anchor="middle" x="440" y="-1067" font-family="Arial" font-size="10.00" fill="#0d3f81">10.90%</text>
<text text-anchor="middle" x="440" y="-1056" font-family="Arial" font-size="10.00" fill="#0d3f81">1860×</text>
</g>
<!-- 16 -->
<g id="node17" class="node">
<title>16</title>
<polygon fill="#0d4e84" stroke="#0d4e84" points="1010,-96 650,-96 650,0 1010,0 1010,-96"/>
<text text-anchor="middle" x="830" y="-84" font-family="Arial" font-size="10.00" fill="#ffffff">std::optional&lt;cnl::scaled_integer&lt;long,</text>
<text text-anchor="middle" x="830" y="-73" font-family="Arial" font-size="10.00" fill="#ffffff">cnl::power&lt;&#45;16,2&gt;&gt;&gt;</text>
<text text-anchor="middle" x="830" y="-62" font-family="Arial" font-size="10.00" fill="#ffffff">BPMNOS::Model::Expression::execute&lt;BPMNOS::Values&gt;(BPMNOS::Values</text>
<text text-anchor="middle" x="830" y="-51" font-family="Arial" font-size="10.00" fill="#ffffff">const&amp;,BPMNOS::Values const&amp;,</text>
<text text-anchor="middle" x="830" y="-40" font-family="Arial" font-size="10.00" fill="#ffffff">BPMNOS::Values const&amp;) const</text>
<text text-anchor="middle" x="830" y="-29" font-family="Arial" font-size="10.00" fill="#ffffff">13.70%</text>
<text text-anchor="middle" x="830" y="-18" font-family="Arial" font-size="10.00" fill="#ffffff">(3.14%)</text>
<text text-anchor="middle" x="830" y="-7" font-family="Arial" font-size="10.00" fill="#ffffff">443040×</text>
</g>
<!-- 17 -->
<g id="node18" class="node">
<title>17</title>
<polygon fill="#0d4181" stroke="#0d4181" points="338,-1597.5 0,-1597.5 0,-1545.5 338,-1545.5 338,-1597.5"/>
<text text-anchor="middle" x="169" y="-1585.5" font-family="Arial" font-size="10.00" fill="#ffffff">BPMNOS::Execution::Token::update(BPMNOS::Execution::Token::State)</text>
<text text-anchor="middle" x="169" y="-1574.5" font-family="Arial" font-size="10.00" fill="#ffffff">11.16%</text>
<text text-anchor="middle" x="169" y="-1563.5" font-family="Arial" font-size="10.00" fill="#ffffff">(0.00%)</text>
<text text-anchor="middle" x="169" y="-1552.5" font-family="Arial" font-size="10.00" fill="#ffffff">2580×</text>
</g>
<!-- 18 -->
<g id="node19" class="node">
<title>18</title>
<polygon fill="#0d4181" stroke="#0d4181" points="271,-1489 93,-1489 93,-1426 271,-1426 271,-1489"/>
<text text-anchor="middle" x="182" y="-1477" font-family="Arial" font-size="10.00" fill="#ffffff">BPMNOS::Execution::Token::notify()</text>
<text text-anchor="middle" x="182" y="-1466" font-family="Arial" font-size="10.00" fill="#ffffff">const</text>
<text text-anchor="middle" x="182" y="-1455" font-family="Arial" font-size="10.00" fill="#ffffff">11.15%</text>
<text text-anchor="middle" x="182" y="-1444" font-family="Arial" font-size="10.00" fill="#ffffff">(0.00%)</text>
<text text-anchor="middle" x="182" y="-1433" font-family="Arial" font-size="10.00" fill="#ffffff">2580×</text>
</g>
<!-- 17&#45;&gt;18 -->
<g id="edge16" class="edge">
<title>17&#45;&gt;18</title>
<path fill="none" stroke="#0d4181" stroke-width="0.5" d="M171.92,-1545.37C173.71,-1529.9 176.04,-1509.86 178,-1492.92"/>
<polygon fill="#0d4181" stroke="#0d4181" stroke-width="0.5" points="179.26,-1492.76 178.44,-1489.14 176.82,-1492.47 179.26,-1492.76"/>
<text text-anchor="middle" x="194.5" y="-1512" font-family="Arial" font-size="10.00" fill="#0d4181">11.15%</text>
<text text-anchor="middle" x="194.5" y="-1501" font-family="Arial" font-size="10.00" fill="#0d4181">2580×</text>
</g>
<!-- 18&#45;&gt;12 -->
<g id="edge17" class="edge">
<title>18&#45;&gt;12</title>
<path fill="none" stroke="#0d4181" stroke-width="0.5" d="M185.03,-1425.92C186.15,-1414.56 187.44,-1401.59 188.59,-1389.9"/>
<polygon fill="#0d4181" stroke="#0d4181" stroke-width="0.5" points="189.82,-1389.93 188.95,-1386.32 187.38,-1389.68 189.82,-1389.93"/>
<text text-anchor="middle" x="203.5" y="-1409" font-family="Arial" font-size="10.00" fill="#0d4181">11.15%</text>
<text text-anchor="middle" x="203.5" y="-1398" font-family="Arial" font-size="10.00" fill="#0d4181">2580×</text>
</g>
<!-- 24 -->
<g id="node24" class="node">
<title>24</title>
<polygon fill="#0d3f81" stroke="#0d3f81" points="594.5,-809 185.5,-809 185.5,-713 594.5,-713 594.5,-809"/>
<text text-anchor="middle" x="390" y="-797" font-family="Arial" font-size="10.00" fill="#ffffff">void std::__invoke_impl&lt;void,</text>
<text text-anchor="middle" x="390" y="-786" font-family="Arial" font-size="10.00" fill="#ffffff">std::_Bind&lt;void</text>
<text text-anchor="middle" x="390" y="-775" font-family="Arial" font-size="10.00" fill="#ffffff">(BPMNOS::Execution::Token::*(BPMNOS::Execution::Token*))()&gt;&amp;&gt;(std::__invoke_other,</text>
<text text-anchor="middle" x="390" y="-764" font-family="Arial" font-size="10.00" fill="#ffffff">std::_Bind&lt;void</text>
<text text-anchor="middle" x="390" y="-753" font-family="Arial" font-size="10.00" fill="#ffffff">(BPMNOS::Execution::Token::*(BPMNOS::Execution::Token*))()&gt;&amp;)</text>
<text text-anchor="middle" x="390" y="-742" font-family="Arial" font-size="10.00" fill="#ffffff">10.90%</text>
<text text-anchor="middle" x="390" y="-731" font-family="Arial" font-size="10.00" fill="#ffffff">(0.00%)</text>
<text text-anchor="middle" x="390" y="-720" font-family="Arial" font-size="10.00" fill="#ffffff">1860×</text>
</g>
<!-- 22&#45;&gt;24 -->
<g id="edge21" class="edge">
<title>22&#45;&gt;24</title>
<path fill="none" stroke="#0d3f81" stroke-width="0.5" d="M408.94,-881.84C405.37,-859.23 401.4,-834.11 398.02,-812.73"/>
<polygon fill="#0d3f81" stroke="#0d3f81" stroke-width="0.5" points="399.19,-812.33 397.44,-809.06 396.77,-812.71 399.19,-812.33"/>
<text text-anchor="middle" x="418" y="-832" font-family="Arial" font-size="10.00" fill="#0d3f81">10.90%</text>
<text text-anchor="middle" x="418" y="-821" font-family="Arial" font-size="10.00" fill="#0d3f81">1860×</text>
</g>
<!-- 20 -->
<g id="node21" class="node">
<title>20</title>
<polygon fill="#0d3f81" stroke="#0d3f81" points="571.5,-548 208.5,-548 208.5,-463 571.5,-463 571.5,-548"/>
<text text-anchor="middle" x="390" y="-536" font-family="Arial" font-size="10.00" fill="#ffffff">void std::_Bind&lt;void</text>
<text text-anchor="middle" x="390" y="-525" font-family="Arial" font-size="10.00" fill="#ffffff">(BPMNOS::Execution::Token::*(BPMNOS::Execution::Token*))()&gt;::__call&lt;void,</text>
<text text-anchor="middle" x="390" y="-514" font-family="Arial" font-size="10.00" fill="#ffffff">,0ul&gt;(std::tuple&lt;&gt;&amp;&amp;,</text>
<text text-anchor="middle" x="390" y="-503" font-family="Arial" font-size="10.00" fill="#ffffff">std::_Index_tuple&lt;0ul&gt;)</text>
<text text-anchor="middle" x="390" y="-492" font-family="Arial" font-size="10.00" fill="#ffffff">10.90%</text>
<text text-anchor="middle" x="390" y="-481" font-family="Arial" font-size="10.00" fill="#ffffff">(0.00%)</text>
<text text-anchor="middle" x="390" y="-470" font-family="Arial" font-size="10.00" fill="#ffffff">1860×</text>
</g>
<!-- 25 -->
<g id="node22" class="node">
<title>25</title>
<polygon fill="#0d3f81" stroke="#0d3f81" points="481.5,-423 298.5,-423 298.5,-294 481.5,-294 481.5,-423"/>
<text text-anchor="middle" x="390" y="-411" font-family="Arial" font-size="10.00" fill="#ffffff">std::__invoke_result&lt;void</text>
<text text-anchor="middle" x="390" y="-400" font-family="Arial" font-size="10.00" fill="#ffffff">(BPMNOS::Execution::Token::*&amp;)(),</text>
<text text-anchor="middle" x="390" y="-389" font-family="Arial" font-size="10.00" fill="#ffffff">BPMNOS::Execution::Token*&amp;&gt;::type</text>
<text text-anchor="middle" x="390" y="-378" font-family="Arial" font-size="10.00" fill="#ffffff">std::__invoke&lt;void</text>
<text text-anchor="middle" x="390" y="-367" font-family="Arial" font-size="10.00" fill="#ffffff">(BPMNOS::Execution::Token::*&amp;)(),</text>
<text text-anchor="middle" x="390" y="-356" font-family="Arial" font-size="10.00" fill="#ffffff">BPMNOS::Execution::Token*&amp;&gt;(void</text>
<text text-anchor="middle" x="390" y="-345" font-family="Arial" font-size="10.00" fill="#ffffff">(BPMNOS::Execution::Token::*&amp;)(),</text>
<text text-anchor="middle" x="390" y="-334" font-family="Arial" font-size="10.00" fill="#ffffff">BPMNOS::Execution::Token*&amp;)</text>
<text text-anchor="middle" x="390" y="-323" font-family="Arial" font-size="10.00" fill="#ffffff">10.90%</text>
<text text-anchor="middle" x="390" y="-312" font-family="Arial" font-size="10.00" fill="#ffffff">(0.00%)</text>
<text text-anchor="middle" x="390" y="-301" font-family="Arial" font-size="10.00" fill="#ffffff">1860×</text>
</g>
<!-- 20&#45;&gt;25 -->
<g id="edge19" class="edge">
<title>20&#45;&gt;25</title>
<path fill="none" stroke="#0d3f81" stroke-width="0.5" d="M390,-462.95C390,-451.72 390,-439.28 390,-427.03"/>
<polygon fill="#0d3f81" stroke="#0d3f81" stroke-width="0.5" points="391.23,-426.73 390,-423.23 388.78,-426.73 391.23,-426.73"/>
<text text-anchor="middle" x="407" y="-446" font-family="Arial" font-size="10.00" fill="#0d3f81">10.90%</text>
<text text-anchor="middle" x="407" y="-435" font-family="Arial" font-size="10.00" fill="#0d3f81">1860×</text>
</g>
<!-- 23 -->
<g id="node25" class="node">
<title>23</title>
<polygon fill="#0d3f81" stroke="#0d3f81" points="535,-254 245,-254 245,-136 535,-136 535,-254"/>
<text text-anchor="middle" x="390" y="-242" font-family="Arial" font-size="10.00" fill="#ffffff">void std::__invoke_impl&lt;void,</text>
<text text-anchor="middle" x="390" y="-231" font-family="Arial" font-size="10.00" fill="#ffffff">void</text>
<text text-anchor="middle" x="390" y="-220" font-family="Arial" font-size="10.00" fill="#ffffff">(BPMNOS::Execution::Token::*&amp;)(),</text>
<text text-anchor="middle" x="390" y="-209" font-family="Arial" font-size="10.00" fill="#ffffff">BPMNOS::Execution::Token*&amp;&gt;(std::__invoke_memfun_deref,</text>
<text text-anchor="middle" x="390" y="-198" font-family="Arial" font-size="10.00" fill="#ffffff">void</text>
<text text-anchor="middle" x="390" y="-187" font-family="Arial" font-size="10.00" fill="#ffffff">(BPMNOS::Execution::Token::*&amp;)(),</text>
<text text-anchor="middle" x="390" y="-176" font-family="Arial" font-size="10.00" fill="#ffffff">BPMNOS::Execution::Token*&amp;)</text>
<text text-anchor="middle" x="390" y="-165" font-family="Arial" font-size="10.00" fill="#ffffff">10.90%</text>
<text text-anchor="middle" x="390" y="-154" font-family="Arial" font-size="10.00" fill="#ffffff">(0.00%)</text>
<text text-anchor="middle" x="390" y="-143" font-family="Arial" font-size="10.00" fill="#ffffff">1860×</text>
</g>
<!-- 25&#45;&gt;23 -->
<g id="edge23" class="edge">
<title>25&#45;&gt;23</title>
<path fill="none" stroke="#0d3f81" stroke-width="0.5" d="M390,-293.67C390,-281.85 390,-269.51 390,-257.75"/>
<polygon fill="#0d3f81" stroke="#0d3f81" stroke-width="0.5" points="391.23,-257.62 390,-254.12 388.78,-257.62 391.23,-257.62"/>
<text text-anchor="middle" x="407" y="-277" font-family="Arial" font-size="10.00" fill="#0d3f81">10.90%</text>
<text text-anchor="middle" x="407" y="-266" font-family="Arial" font-size="10.00" fill="#0d3f81">1860×</text>
</g>
<!-- 21 -->
<g id="node23" class="node">
<title>21</title>
<polygon fill="#0d3f81" stroke="#0d3f81" points="570.5,-667.5 209.5,-667.5 209.5,-593.5 570.5,-593.5 570.5,-667.5"/>
<text text-anchor="middle" x="390" y="-655.5" font-family="Arial" font-size="10.00" fill="#ffffff">void std::_Bind&lt;void</text>
<text text-anchor="middle" x="390" y="-644.5" font-family="Arial" font-size="10.00" fill="#ffffff">(BPMNOS::Execution::Token::*(BPMNOS::Execution::Token*))()&gt;::operator()&lt;,</text>
<text text-anchor="middle" x="390" y="-633.5" font-family="Arial" font-size="10.00" fill="#ffffff">void&gt;()</text>
<text text-anchor="middle" x="390" y="-622.5" font-family="Arial" font-size="10.00" fill="#ffffff">10.90%</text>
<text text-anchor="middle" x="390" y="-611.5" font-family="Arial" font-size="10.00" fill="#ffffff">(0.00%)</text>
<text text-anchor="middle" x="390" y="-600.5" font-family="Arial" font-size="10.00" fill="#ffffff">1860×</text>
</g>
<!-- 21&#45;&gt;20 -->
<g id="edge20" class="edge">
<title>21&#45;&gt;20</title>
<path fill="none" stroke="#0d3f81" stroke-width="0.5" d="M390,-593.26C390,-580.31 390,-565.54 390,-551.91"/>
<polygon fill="#0d3f81" stroke="#0d3f81" stroke-width="0.5" points="391.23,-551.6 390,-548.1 388.78,-551.6 391.23,-551.6"/>
<text text-anchor="middle" x="407" y="-571" font-family="Arial" font-size="10.00" fill="#0d3f81">10.90%</text>
<text text-anchor="middle" x="407" y="-560" font-family="Arial" font-size="10.00" fill="#0d3f81">1860×</text>
</g>
<!-- 24&#45;&gt;21 -->
<g id="edge22" class="edge">
<title>24&#45;&gt;21</title>
<path fill="none" stroke="#0d3f81" stroke-width="0.5" d="M390,-712.88C390,-699.26 390,-684.54 390,-671.4"/>
<polygon fill="#0d3f81" stroke="#0d3f81" stroke-width="0.5" points="391.23,-671.24 390,-667.74 388.78,-671.24 391.23,-671.24"/>
<text text-anchor="middle" x="407" y="-696" font-family="Arial" font-size="10.00" fill="#0d3f81">10.90%</text>
<text text-anchor="middle" x="407" y="-685" font-family="Arial" font-size="10.00" fill="#0d3f81">1860×</text>
</g>
<!-- 27&#45;&gt;16 -->
<g id="edge25" class="edge">
<title>27&#45;&gt;16</title>
<path fill="none" stroke="#0d3c80" stroke-width="0.5" d="M830,-152.45C830,-136.11 830,-117.19 830,-100.03"/>
<polygon fill="#0d3c80" stroke="#0d3c80" stroke-width="0.5" points="831.23,-99.67 830,-96.17 828.78,-99.67 831.23,-99.67"/>
<text text-anchor="middle" x="849" y="-119" font-family="Arial" font-size="10.00" fill="#0d3c80">10.18%</text>
<text text-anchor="middle" x="849" y="-108" font-family="Arial" font-size="10.00" fill="#0d3c80">329400×</text>
</g>
</g>
</svg>
