<svg xmlns="http://www.w3.org/2000/svg" xmlns:xlink="http://www.w3.org/1999/xlink" contentStyleType="text/css" data-diagram-type="ACTIVITY" height="462px" preserveAspectRatio="none" style="width:391px;height:462px;background:#FFFFFF;" version="1.1" viewBox="0 0 391 462" width="391px" zoomAndPan="magnify"><defs/><g><ellipse cx="170.8452" cy="20" fill="#222222" rx="10" ry="10" style="stroke:#222222;stroke-width:1;"/><rect fill="#F1F1F1" height="33.9688" rx="12.5" ry="12.5" style="stroke:#181818;stroke-width:0.5;" width="151.6309" x="95.0298" y="50"/><text fill="#000000" font-family="sans-serif" font-size="12" lengthAdjust="spacing" textLength="131.6309" x="105.0298" y="71.1387">Initialize system state</text><rect fill="#F1F1F1" height="33.9688" rx="12.5" ry="12.5" style="stroke:#181818;stroke-width:0.5;" width="105.5645" x="118.063" y="147.9688"/><text fill="#000000" font-family="sans-serif" font-size="12" lengthAdjust="spacing" textLength="85.5645" x="128.063" y="169.1074">Wait for event</text><polygon fill="#F1F1F1" points="170.8452,201.9375,170.8452,201.9375,182.8452,213.9375,170.8452,225.9375,170.8452,225.9375,158.8452,213.9375,170.8452,201.9375" style="stroke:#181818;stroke-width:0.5;"/><text fill="#000000" font-family="sans-serif" font-size="11" lengthAdjust="spacing" textLength="35.1484" x="123.6968" y="211.3433">arrival</text><text fill="#000000" font-family="sans-serif" font-size="11" lengthAdjust="spacing" textLength="54.5703" x="182.8452" y="211.3433">departure</text><rect fill="#F1F1F1" height="33.9688" rx="12.5" ry="12.5" style="stroke:#181818;stroke-width:0.5;" width="139.3613" x="11" y="235.9375"/><text fill="#000000" font-family="sans-serif" font-size="12" lengthAdjust="spacing" textLength="119.3613" x="21" y="257.0762">Add entity to queue</text><rect fill="#F1F1F1" height="33.9688" rx="12.5" ry="12.5" style="stroke:#181818;stroke-width:0.5;" width="181.2969" x="170.3613" y="235.9375"/><text fill="#000000" font-family="sans-serif" font-size="12" lengthAdjust="spacing" textLength="161.2969" x="180.3613" y="257.0762">Remove entity from queue</text><polygon fill="#F1F1F1" points="170.8452,275.9063,182.8452,287.9063,170.8452,299.9063,158.8452,287.9063,170.8452,275.9063" style="stroke:#181818;stroke-width:0.5;"/><rect fill="#F1F1F1" height="33.9688" rx="12.5" ry="12.5" style="stroke:#181818;stroke-width:0.5;" width="144.8691" x="98.4106" y="319.9063"/><text fill="#000000" font-family="sans-serif" font-size="12" lengthAdjust="spacing" textLength="124.8691" x="108.4106" y="341.0449">Update system state</text><polygon fill="#F1F1F1" points="170.8452,103.9688,182.8452,115.9688,170.8452,127.9688,158.8452,115.9688,170.8452,103.9688" style="stroke:#181818;stroke-width:0.5;"/><polygon fill="#F1F1F1" points="170.8452,373.875,170.8452,373.875,182.8452,385.875,170.8452,397.875,170.8452,397.875,158.8452,385.875,170.8452,373.875" style="stroke:#181818;stroke-width:0.5;"/><text fill="#000000" font-family="sans-serif" font-size="11" lengthAdjust="spacing" textLength="54.1675" x="174.8452" y="408.0854">terminate</text><text fill="#000000" font-family="sans-serif" font-size="11" lengthAdjust="spacing" textLength="47.8296" x="182.8452" y="383.2808">continue</text><ellipse cx="170.8452" cy="440.5854" fill="none" rx="11" ry="11" style="stroke:#222222;stroke-width:1;"/><ellipse cx="170.8452" cy="440.5854" fill="#222222" rx="6" ry="6" style="stroke:#222222;stroke-width:1;"/><line style="stroke:#181818;stroke-width:1;" x1="170.8452" x2="170.8452" y1="30" y2="50"/><polygon fill="#181818" points="166.8452,40,170.8452,50,174.8452,40,170.8452,44" style="stroke:#181818;stroke-width:1;"/><line style="stroke:#181818;stroke-width:1;" x1="158.8452" x2="80.6807" y1="213.9375" y2="213.9375"/><line style="stroke:#181818;stroke-width:1;" x1="80.6807" x2="80.6807" y1="213.9375" y2="235.9375"/><polygon fill="#181818" points="76.6807,225.9375,80.6807,235.9375,84.6807,225.9375,80.6807,229.9375" style="stroke:#181818;stroke-width:1;"/><line style="stroke:#181818;stroke-width:1;" x1="182.8452" x2="261.0098" y1="213.9375" y2="213.9375"/><line style="stroke:#181818;stroke-width:1;" x1="261.0098" x2="261.0098" y1="213.9375" y2="235.9375"/><polygon fill="#181818" points="257.0098,225.9375,261.0098,235.9375,265.0098,225.9375,261.0098,229.9375" style="stroke:#181818;stroke-width:1;"/><line style="stroke:#181818;stroke-width:1;" x1="80.6807" x2="80.6807" y1="269.9063" y2="287.9063"/><line style="stroke:#181818;stroke-width:1;" x1="80.6807" x2="158.8452" y1="287.9063" y2="287.9063"/><polygon fill="#181818" points="148.8452,283.9063,158.8452,287.9063,148.8452,291.9063,152.8452,287.9063" style="stroke:#181818;stroke-width:1;"/><line style="stroke:#181818;stroke-width:1;" x1="261.0098" x2="261.0098" y1="269.9063" y2="287.9063"/><line style="stroke:#181818;stroke-width:1;" x1="261.0098" x2="182.8452" y1="287.9063" y2="287.9063"/><polygon fill="#181818" points="192.8452,283.9063,182.8452,287.9063,192.8452,291.9063,188.8452,287.9063" style="stroke:#181818;stroke-width:1;"/><line style="stroke:#181818;stroke-width:1;" x1="170.8452" x2="170.8452" y1="181.9375" y2="201.9375"/><polygon fill="#181818" points="166.8452,191.9375,170.8452,201.9375,174.8452,191.9375,170.8452,195.9375" style="stroke:#181818;stroke-width:1;"/><line style="stroke:#181818;stroke-width:1;" x1="170.8452" x2="170.8452" y1="299.9063" y2="319.9063"/><polygon fill="#181818" points="166.8452,309.9063,170.8452,319.9063,174.8452,309.9063,170.8452,313.9063" style="stroke:#181818;stroke-width:1;"/><line style="stroke:#181818;stroke-width:1;" x1="170.8452" x2="170.8452" y1="127.9688" y2="147.9688"/><polygon fill="#181818" points="166.8452,137.9688,170.8452,147.9688,174.8452,137.9688,170.8452,141.9688" style="stroke:#181818;stroke-width:1;"/><line style="stroke:#181818;stroke-width:1;" x1="182.8452" x2="365.6582" y1="385.875" y2="385.875"/><polygon fill="#181818" points="361.6582,260.9219,365.6582,250.9219,369.6582,260.9219,365.6582,256.9219" style="stroke:#181818;stroke-width:1;"/><line style="stroke:#181818;stroke-width:1;" x1="365.6582" x2="365.6582" y1="115.9688" y2="385.875"/><line style="stroke:#181818;stroke-width:1;" x1="365.6582" x2="182.8452" y1="115.9688" y2="115.9688"/><polygon fill="#181818" points="192.8452,111.9688,182.8452,115.9688,192.8452,119.9688,188.8452,115.9688" style="stroke:#181818;stroke-width:1;"/><line style="stroke:#181818;stroke-width:1;" x1="170.8452" x2="170.8452" y1="353.875" y2="373.875"/><polygon fill="#181818" points="166.8452,363.875,170.8452,373.875,174.8452,363.875,170.8452,367.875" style="stroke:#181818;stroke-width:1;"/><line style="stroke:#181818;stroke-width:1;" x1="170.8452" x2="170.8452" y1="83.9688" y2="103.9688"/><polygon fill="#181818" points="166.8452,93.9688,170.8452,103.9688,174.8452,93.9688,170.8452,97.9688" style="stroke:#181818;stroke-width:1;"/><line style="stroke:#181818;stroke-width:1;" x1="170.8452" x2="170.8452" y1="397.875" y2="429.5854"/><polygon fill="#181818" points="166.8452,419.5854,170.8452,429.5854,174.8452,419.5854,170.8452,423.5854" style="stroke:#181818;stroke-width:1;"/><!--SRC=[ROun3i8m54Ftdi9ZUeLsOcH5GimHSTKlDKb9VehAwVcLG69WjPxjLzKNxOPp4XM_o8keUrL6LFNAiIjSwRK3XfiNnPGBk37fQ95CS3rqPeBpfSZcbzvYOqyXm23H7PhnQ6my2bmguG9N-so57_Z2c3T- -Qda-DD8GQRZ_Re6y_ahX-Si2myLgN3tR3kfiKVA2gSiKPBHVLSrhsy0]--></g></svg>
