<svg xmlns="http://www.w3.org/2000/svg" xmlns:xlink="http://www.w3.org/1999/xlink" contentStyleType="text/css" data-diagram-type="DESCRIPTION" height="283px" preserveAspectRatio="none" style="width:516px;height:283px;background:#FFFFFF;" version="1.1" viewBox="0 0 516 283" width="516px" zoomAndPan="magnify"><defs/><g><!--entity DP--><g class="entity" data-entity="DP" data-source-line="1" data-uid="ent0002" id="entity_DP"><rect fill="#F1F1F1" height="46.2969" rx="2.5" ry="2.5" style="stroke:#181818;stroke-width:0.5;" width="136.5166" x="7" y="7"/><rect fill="#F1F1F1" height="10" style="stroke:#181818;stroke-width:0.5;" width="15" x="123.5166" y="12"/><rect fill="#F1F1F1" height="2" style="stroke:#181818;stroke-width:0.5;" width="4" x="121.5166" y="14"/><rect fill="#F1F1F1" height="2" style="stroke:#181818;stroke-width:0.5;" width="4" x="121.5166" y="18"/><text fill="#000000" font-family="sans-serif" font-size="14" lengthAdjust="spacing" textLength="96.5166" x="22" y="39.9951">Data provider</text></g><!--entity C--><g class="entity" data-entity="C" data-source-line="2" data-uid="ent0003" id="entity_C"><rect fill="#F1F1F1" height="46.2969" rx="2.5" ry="2.5" style="stroke:#181818;stroke-width:0.5;" width="109.1729" x="401.67" y="7"/><rect fill="#F1F1F1" height="10" style="stroke:#181818;stroke-width:0.5;" width="15" x="490.8429" y="12"/><rect fill="#F1F1F1" height="2" style="stroke:#181818;stroke-width:0.5;" width="4" x="488.8429" y="14"/><rect fill="#F1F1F1" height="2" style="stroke:#181818;stroke-width:0.5;" width="4" x="488.8429" y="18"/><text fill="#000000" font-family="sans-serif" font-size="14" lengthAdjust="spacing" textLength="69.1729" x="416.67" y="39.9951">Controller</text></g><!--entity O--><g class="entity" data-entity="O" data-source-line="3" data-uid="ent0004" id="entity_O"><rect fill="#F1F1F1" height="46.2969" rx="2.5" ry="2.5" style="stroke:#181818;stroke-width:0.5;" width="104.2236" x="220.15" y="231.29"/><rect fill="#F1F1F1" height="10" style="stroke:#181818;stroke-width:0.5;" width="15" x="304.3736" y="236.29"/><rect fill="#F1F1F1" height="2" style="stroke:#181818;stroke-width:0.5;" width="4" x="302.3736" y="238.29"/><rect fill="#F1F1F1" height="2" style="stroke:#181818;stroke-width:0.5;" width="4" x="302.3736" y="242.29"/><text fill="#000000" font-family="sans-serif" font-size="14" lengthAdjust="spacing" textLength="64.2236" x="235.15" y="264.2851">Observer</text></g><!--entity M--><g class="entity" data-entity="M" data-source-line="4" data-uid="ent0005" id="entity_M"><rect fill="#F1F1F1" height="46.2969" rx="2.5" ry="2.5" style="stroke:#181818;stroke-width:0.5;" width="82.0342" x="231.24" y="7"/><rect fill="#F1F1F1" height="10" style="stroke:#181818;stroke-width:0.5;" width="15" x="293.2742" y="12"/><rect fill="#F1F1F1" height="2" style="stroke:#181818;stroke-width:0.5;" width="4" x="291.2742" y="14"/><rect fill="#F1F1F1" height="2" style="stroke:#181818;stroke-width:0.5;" width="4" x="291.2742" y="18"/><text fill="#000000" font-family="sans-serif" font-size="14" lengthAdjust="spacing" textLength="42.0342" x="246.24" y="39.9951">Model</text></g><!--entity IInput--><g class="entity" data-entity="IInput" data-source-line="5" data-uid="ent0006" id="entity_IInput"><ellipse cx="187.26" cy="30.14" fill="#F1F1F1" rx="8" ry="8" style="stroke:#181818;stroke-width:0.5;"/><text fill="#000000" font-family="sans-serif" font-size="14" lengthAdjust="spacing" textLength="36.0117" x="169.2541" y="60.1351">input</text></g><!--entity IControl--><g class="entity" data-entity="IControl" data-source-line="6" data-uid="ent0007" id="entity_IControl"><ellipse cx="357.26" cy="30.14" fill="#F1F1F1" rx="8" ry="8" style="stroke:#181818;stroke-width:0.5;"/><text fill="#000000" font-family="sans-serif" font-size="14" lengthAdjust="spacing" textLength="48.8359" x="332.842" y="60.1351">control</text></g><!--entity ISubscribe--><g class="entity" data-entity="ISubscribe" data-source-line="7" data-uid="ent0008" id="entity_ISubscribe"><ellipse cx="326.26" cy="142.29" fill="#F1F1F1" rx="8" ry="8" style="stroke:#181818;stroke-width:0.5;"/><text fill="#000000" font-family="sans-serif" font-size="14" lengthAdjust="spacing" textLength="67.1904" x="292.6648" y="172.2851">subscribe</text></g><!--entity IUpdate--><g class="entity" data-entity="IUpdate" data-source-line="8" data-uid="ent0009" id="entity_IUpdate"><ellipse cx="218.26" cy="142.29" fill="#F1F1F1" rx="8" ry="8" style="stroke:#181818;stroke-width:0.5;"/><text fill="#000000" font-family="sans-serif" font-size="14" lengthAdjust="spacing" textLength="49.3281" x="193.5959" y="172.2851">update</text></g><!--link DP to IInput--><g class="link" data-entity-1="DP" data-entity-2="IInput" data-source-line="9" data-uid="lnk10" id="link_DP_IInput"><path d="M143.95,30.14 C155.23,30.14 160.5,30.14 171.78,30.14" fill="none" id="DP-to-IInput" style="stroke:#181818;stroke-width:1;stroke-dasharray:7,7;"/><polygon fill="#181818" points="177.78,30.14,168.78,26.14,172.78,30.14,168.78,34.14,177.78,30.14" style="stroke:#181818;stroke-width:1;"/></g><!--link IInput to M--><g class="link" data-entity-1="IInput" data-entity-2="M" data-source-line="10" data-uid="lnk11" id="link_IInput_M"><path d="M196.56,30.14 C207.99,30.14 219.42,30.14 230.86,30.14" fill="none" id="IInput-M" style="stroke:#181818;stroke-width:1;"/></g><!--link M to ISubscribe--><g class="link" data-entity-1="M" data-entity-2="ISubscribe" data-source-line="11" data-uid="lnk12" id="link_M_ISubscribe"><path d="M283.32,53.7 C295.47,78.5 314.35,117 322.4,133.43" fill="none" id="M-ISubscribe" style="stroke:#181818;stroke-width:1;"/></g><!--reverse link ISubscribe to O--><g class="link" data-entity-1="ISubscribe" data-entity-2="O" data-source-line="12" data-uid="lnk14" id="link_ISubscribe_O"><path d="M319.7313,156.5986 C311.6613,173.0786 295.43,206.17 283.29,230.94" fill="none" id="ISubscribe-backto-O" style="stroke:#181818;stroke-width:1;stroke-dasharray:7,7;"/><polygon fill="#181818" points="322.37,151.21,314.8195,157.5338,320.1711,155.7005,322.0043,161.0521,322.37,151.21" style="stroke:#181818;stroke-width:1;"/></g><!--link IUpdate to O--><g class="link" data-entity-1="IUpdate" data-entity-2="O" data-source-line="13" data-uid="lnk16" id="link_IUpdate_O"><path d="M222.14,151.21 C230.22,167.69 249.09,206.17 261.23,230.94" fill="none" id="IUpdate-O" style="stroke:#181818;stroke-width:1;"/></g><!--link M to IUpdate--><g class="link" data-entity-1="M" data-entity-2="IUpdate" data-source-line="14" data-uid="lnk17" id="link_M_IUpdate"><path d="M261.2,53.7 C249.04,78.5 232.8125,111.6133 224.7525,128.0433" fill="none" id="M-to-IUpdate" style="stroke:#181818;stroke-width:1;stroke-dasharray:7,7;"/><polygon fill="#181818" points="222.11,133.43,229.665,127.1116,224.3121,128.9411,222.4827,123.5882,222.11,133.43" style="stroke:#181818;stroke-width:1;"/></g><!--reverse link IControl to C--><g class="link" data-entity-1="IControl" data-entity-2="C" data-source-line="15" data-uid="lnk19" id="link_IControl_C"><path d="M372.54,30.14 C384.1,30.14 389.67,30.14 401.24,30.14" fill="none" id="IControl-backto-C" style="stroke:#181818;stroke-width:1;stroke-dasharray:7,7;"/><polygon fill="#181818" points="366.54,30.14,375.54,34.14,371.54,30.14,375.54,26.14,366.54,30.14" style="stroke:#181818;stroke-width:1;"/></g><!--link M to IControl--><g class="link" data-entity-1="M" data-entity-2="IControl" data-source-line="16" data-uid="lnk20" id="link_M_IControl"><path d="M313.76,30.14 C325.2,30.14 336.64,30.14 348.08,30.14" fill="none" id="M-IControl" style="stroke:#181818;stroke-width:1;"/></g><!--SRC=[LOyx3iCW44Jxd6Bb7ewGncvS85kAKbafiC494WB4nwbozvXFxD3DlfdTWQcZdeAnUXECsmTG1zru0PXQhRpLKXROHZRCZjkja24IeXcNQIJxA9JdTgKBXqOe4tmJZRwFidQNV3pxfQbEk32xnOgPvypjDzQfO1Zr9N9FUlUx4R0LpvV7rxCy2q39GEcr113JRuNgwmFWOE9c3L4mwA-308wxCNUm5h3aQsezlqIEoWD-lW00]--></g></svg>
