<svg xmlns="http://www.w3.org/2000/svg" xmlns:xlink="http://www.w3.org/1999/xlink" contentStyleType="text/css" data-diagram-type="STATE" height="183px" preserveAspectRatio="none" style="width:847px;height:183px;background:#FFFFFF;" version="1.1" viewBox="0 0 847 183" width="847px" zoomAndPan="magnify"><defs/><g><ellipse cx="16" cy="58.5659" fill="#222222" rx="10" ry="10" style="stroke:#222222;stroke-width:1;"/><g id="Initialized"><rect fill="#F1F1F1" height="50" rx="12.5" ry="12.5" style="stroke:#181818;stroke-width:0.5;" width="87.4775" x="87" y="33.5659"/><line style="stroke:#181818;stroke-width:0.5;" x1="87" x2="174.4775" y1="59.8628" y2="59.8628"/><text fill="#000000" font-family="sans-serif" font-size="14" lengthAdjust="spacing" textLength="67.4775" x="97" y="51.561">Initialized</text></g><g id="Running"><rect fill="#F1F1F1" height="50" rx="12.5" ry="12.5" style="stroke:#181818;stroke-width:0.5;" width="77.9961" x="266.48" y="33.5659"/><line style="stroke:#181818;stroke-width:0.5;" x1="266.48" x2="344.4761" y1="59.8628" y2="59.8628"/><text fill="#000000" font-family="sans-serif" font-size="14" lengthAdjust="spacing" textLength="57.9961" x="276.48" y="51.561">Running</text></g><g id="Paused"><rect fill="#F1F1F1" height="50" rx="12.5" ry="12.5" style="stroke:#181818;stroke-width:0.5;" width="70.6885" x="455.47" y="49.5659"/><line style="stroke:#181818;stroke-width:0.5;" x1="455.47" x2="526.1585" y1="75.8628" y2="75.8628"/><text fill="#000000" font-family="sans-serif" font-size="14" lengthAdjust="spacing" textLength="50.6885" x="465.47" y="67.561">Paused</text></g><g id="Completed"><rect fill="#F1F1F1" height="50" rx="12.5" ry="12.5" style="stroke:#181818;stroke-width:0.5;" width="96.3574" x="556.16" y="127.5659"/><line style="stroke:#181818;stroke-width:0.5;" x1="556.16" x2="652.5174" y1="153.8628" y2="153.8628"/><text fill="#000000" font-family="sans-serif" font-size="14" lengthAdjust="spacing" textLength="76.3574" x="566.16" y="145.561">Completed</text></g><ellipse cx="830.29" cy="132.5659" fill="none" rx="11" ry="11" style="stroke:#222222;stroke-width:1;"/><ellipse cx="830.29" cy="132.5659" fill="#222222" rx="6" ry="6" style="stroke:#222222;stroke-width:1;"/><g id="Aborted"><rect fill="#F1F1F1" height="50" rx="12.5" ry="12.5" style="stroke:#181818;stroke-width:0.5;" width="75.7744" x="682.52" y="49.5659"/><line style="stroke:#181818;stroke-width:0.5;" x1="682.52" x2="758.2944" y1="75.8628" y2="75.8628"/><text fill="#000000" font-family="sans-serif" font-size="14" lengthAdjust="spacing" textLength="55.7744" x="692.52" y="67.561">Aborted</text></g><!--link *start* to Initialized--><g class="link" data-entity-1=".start." data-entity-2="Initialized" data-source-line="2" data-uid="lnk4" id="link_.start._Initialized"><path d="M26.23,58.5659 C39.43,58.5659 58.56,58.5659 80.76,58.5659" fill="none" id="*start*-to-Initialized" style="stroke:#181818;stroke-width:1;"/><polygon fill="#181818" points="86.76,58.5659,77.76,54.5659,81.76,58.5659,77.76,62.5659,86.76,58.5659" style="stroke:#181818;stroke-width:1;"/></g><!--link Initialized to Running--><g class="link" data-entity-1="Initialized" data-entity-2="Running" data-source-line="3" data-uid="lnk6" id="link_Initialized_Running"><path d="M174.88,58.5659 C202.86,58.5659 233,58.5659 260,58.5659" fill="none" id="Initialized-to-Running" style="stroke:#181818;stroke-width:1;"/><polygon fill="#181818" points="266,58.5659,257,54.5659,261,58.5659,257,62.5659,266,58.5659" style="stroke:#181818;stroke-width:1;"/><text fill="#000000" font-family="sans-serif" font-size="13" lengthAdjust="spacing" textLength="30.2783" x="205.48" y="54.6328">start</text></g><!--link Running to Paused--><g class="link" data-entity-1="Running" data-entity-2="Paused" data-source-line="4" data-uid="lnk8" id="link_Running_Paused"><path d="M344.68,79.4159 C354.15,83.6059 364.46,87.3859 374.47,89.5659 C401.21,95.3759 426.1277,92.2346 449.1477,86.6746" fill="none" id="Running-to-Paused" style="stroke:#181818;stroke-width:1;"/><polygon fill="#181818" points="454.98,85.2659,445.2924,83.4907,450.1198,86.4398,447.1707,91.2671,454.98,85.2659" style="stroke:#181818;stroke-width:1;"/><text fill="#000000" font-family="sans-serif" font-size="13" lengthAdjust="spacing" textLength="39.2285" x="380.47" y="85.6328">pause</text></g><!--link Paused to Running--><g class="link" data-entity-1="Paused" data-entity-2="Running" data-source-line="9" data-uid="lnk16" id="link_Paused_Running"><path d="M455.09,71.2659 C445.5,70.3759 435.08,69.4159 425.47,68.5659 C398.52,66.1759 374.1096,64.1206 350.7796,62.1906" fill="none" id="Paused-to-Running" style="stroke:#181818;stroke-width:1;"/><polygon fill="#181818" points="344.8,61.6959,353.4396,66.4243,349.783,62.1081,354.0991,58.4515,344.8,61.6959" style="stroke:#181818;stroke-width:1;"/><text fill="#000000" font-family="sans-serif" font-size="13" lengthAdjust="spacing" textLength="49.0166" x="375.47" y="59.6328">resume</text></g><!--link Running to Completed--><g class="link" data-entity-1="Running" data-entity-2="Completed" data-source-line="5" data-uid="lnk10" id="link_Running_Completed"><path d="M329.64,83.9859 C341.83,95.7759 357.7,108.8459 374.47,116.5659 C433.12,143.5459 502.1937,150.6341 550.0437,152.3241" fill="none" id="Running-to-Completed" style="stroke:#181818;stroke-width:1;"/><polygon fill="#181818" points="556.04,152.5359,547.1868,148.2207,551.0431,152.3594,546.9044,156.2158,556.04,152.5359" style="stroke:#181818;stroke-width:1;"/><text fill="#000000" font-family="sans-serif" font-size="13" lengthAdjust="spacing" textLength="35.0518" x="382.47" y="112.6328">finish</text></g><!--link Completed to *end*--><g class="link" data-entity-1="Completed" data-entity-2=".end." data-source-line="6" data-uid="lnk12" id="link_Completed_.end."><path d="M652.84,148.3259 C706.51,143.5359 784.184,136.6015 813.084,134.0115" fill="none" id="Completed-to-*end*" style="stroke:#181818;stroke-width:1;"/><polygon fill="#181818" points="819.06,133.4759,809.7389,130.2952,814.08,133.9222,810.453,138.2633,819.06,133.4759" style="stroke:#181818;stroke-width:1;"/></g><!--link Paused to Aborted--><g class="link" data-entity-1="Paused" data-entity-2="Aborted" data-source-line="7" data-uid="lnk14" id="link_Paused_Aborted"><path d="M526.38,74.5659 C568.41,74.5659 633.07,74.5659 676.24,74.5659" fill="none" id="Paused-to-Aborted" style="stroke:#181818;stroke-width:1;"/><polygon fill="#181818" points="682.24,74.5659,673.24,70.5659,677.24,74.5659,673.24,78.5659,682.24,74.5659" style="stroke:#181818;stroke-width:1;"/><text fill="#000000" font-family="sans-serif" font-size="13" lengthAdjust="spacing" textLength="34.6138" x="587.34" y="70.6328">abort</text></g><!--link Running to Aborted--><g class="link" data-entity-1="Running" data-entity-2="Aborted" data-source-line="8" data-uid="lnk15" id="link_Running_Aborted"><path d="M344.97,45.7059 C354.52,42.9459 364.79,40.3259 374.47,38.5659 C496.15,16.4259 532.56,19.4859 652.52,49.5659 C662.26,52.0059 666.9019,53.3265 676.4019,56.8365" fill="none" id="Running-to-Aborted" style="stroke:#181818;stroke-width:1;"/><polygon fill="#181818" points="682.03,58.9159,674.9741,52.0447,677.3399,57.183,672.2015,59.5488,682.03,58.9159" style="stroke:#181818;stroke-width:1;"/><text fill="#000000" font-family="sans-serif" font-size="13" lengthAdjust="spacing" textLength="34.6138" x="473.82" y="19.6328">abort</text></g><!--link Aborted to *end*--><g class="link" data-entity-1="Aborted" data-entity-2=".end." data-source-line="10" data-uid="lnk17" id="link_Aborted_.end."><path d="M758.54,94.5259 C780.48,106.3259 801.2654,117.4946 814.8054,124.7746" fill="none" id="Aborted-to-*end*" style="stroke:#181818;stroke-width:1;"/><polygon fill="#181818" points="820.09,127.6159,814.0574,119.8309,815.6862,125.2481,810.2689,126.877,820.09,127.6159" style="stroke:#181818;stroke-width:1;"/></g><!--SRC=[NOwz3eCm38HtFuNdIhm0GwMg4rlLjUgG5WEMWeCSP-7fIoY8d-tEtzbdJusX1LHkEyEQbRx6GU1rUMDHNB4IDdQUHwfXfsVsJ28iBPOOpQd1wZDxk1IdM8b35WTq3_tWoMRQi73iO1lbmDGDotwsjq_GVzfbTRXrPhkrxJkbc7g2DRjK_000]--></g></svg>
