<svg xmlns="http://www.w3.org/2000/svg" xmlns:xlink="http://www.w3.org/1999/xlink" contentStyleType="text/css" data-diagram-type="STATE" height="190px" preserveAspectRatio="none" style="width:476px;height:190px;background:#FFFFFF;" version="1.1" viewBox="0 0 476 190" width="476px" zoomAndPan="magnify"><defs/><g><ellipse cx="16" cy="32" fill="#222222" rx="10" ry="10" style="stroke:#222222;stroke-width:1;"/><g id="Initialized"><rect fill="#F1F1F1" height="50" rx="12.5" ry="12.5" style="stroke:#181818;stroke-width:0.5;" width="87.4775" x="61.26" y="7"/><line style="stroke:#181818;stroke-width:0.5;" x1="61.26" x2="148.7375" y1="33.2969" y2="33.2969"/><text fill="#000000" font-family="sans-serif" font-size="14" lengthAdjust="spacing" textLength="67.4775" x="71.26" y="24.9951">Initialized</text></g><g id="Running"><rect fill="#F1F1F1" height="50" rx="12.5" ry="12.5" style="stroke:#181818;stroke-width:0.5;" width="77.9961" x="215" y="7"/><line style="stroke:#181818;stroke-width:0.5;" x1="215" x2="292.9961" y1="33.2969" y2="33.2969"/><text fill="#000000" font-family="sans-serif" font-size="14" lengthAdjust="spacing" textLength="57.9961" x="225" y="24.9951">Running</text></g><g id="Paused"><rect fill="#F1F1F1" height="50" rx="12.5" ry="12.5" style="stroke:#181818;stroke-width:0.5;" width="70.6885" x="162.66" y="134"/><line style="stroke:#181818;stroke-width:0.5;" x1="162.66" x2="233.3485" y1="160.2969" y2="160.2969"/><text fill="#000000" font-family="sans-serif" font-size="14" lengthAdjust="spacing" textLength="50.6885" x="172.66" y="151.9951">Paused</text></g><g id="Completed"><rect fill="#F1F1F1" height="50" rx="12.5" ry="12.5" style="stroke:#181818;stroke-width:0.5;" width="96.3574" x="372.82" y="7"/><line style="stroke:#181818;stroke-width:0.5;" x1="372.82" x2="469.1774" y1="33.2969" y2="33.2969"/><text fill="#000000" font-family="sans-serif" font-size="14" lengthAdjust="spacing" textLength="76.3574" x="382.82" y="24.9951">Completed</text></g><ellipse cx="426" cy="159" fill="none" rx="11" ry="11" style="stroke:#222222;stroke-width:1;"/><ellipse cx="426" cy="159" fill="#222222" rx="6" ry="6" style="stroke:#222222;stroke-width:1;"/><g id="Aborted"><rect fill="#F1F1F1" height="50" rx="12.5" ry="12.5" style="stroke:#181818;stroke-width:0.5;" width="75.7744" x="304.11" y="134"/><line style="stroke:#181818;stroke-width:0.5;" x1="304.11" x2="379.8844" y1="160.2969" y2="160.2969"/><text fill="#000000" font-family="sans-serif" font-size="14" lengthAdjust="spacing" textLength="55.7744" x="314.11" y="151.9951">Aborted</text></g><!--link *start* to Initialized--><g class="link" data-entity-1=".start." data-entity-2="Initialized" data-source-line="1" data-uid="lnk4" id="link_.start._Initialized"><path d="M26.43,32 C37.89,32 43.35,32 54.8,32" fill="none" id="*start*-to-Initialized" style="stroke:#181818;stroke-width:1;"/><polygon fill="#181818" points="60.8,32,51.8,28,55.8,32,51.8,36,60.8,32" style="stroke:#181818;stroke-width:1;"/></g><!--link Initialized to Running--><g class="link" data-entity-1="Initialized" data-entity-2="Running" data-source-line="2" data-uid="lnk6" id="link_Initialized_Running"><path d="M148.9,32 C169.84,32 188.7,32 208.97,32" fill="none" id="Initialized-to-Running" style="stroke:#181818;stroke-width:1;"/><polygon fill="#181818" points="214.97,32,205.97,28,209.97,32,205.97,36,214.97,32" style="stroke:#181818;stroke-width:1;"/><text fill="#000000" font-family="sans-serif" font-size="13" lengthAdjust="spacing" textLength="30.2783" x="166.87" y="25.0669">start</text></g><!--link Running to Paused--><g class="link" data-entity-1="Running" data-entity-2="Paused" data-source-line="3" data-uid="lnk8" id="link_Running_Paused"><path d="M214.75,47.29 C197.12,55.9 178.07,68.79 168,87 C159.71,101.99 163.8241,114.7867 173.3941,128.7867" fill="none" id="Running-to-Paused" style="stroke:#181818;stroke-width:1;"/><polygon fill="#181818" points="176.78,133.74,175.0033,124.0527,173.9584,129.6122,168.3989,128.5673,176.78,133.74" style="stroke:#181818;stroke-width:1;"/><text fill="#000000" font-family="sans-serif" font-size="13" lengthAdjust="spacing" textLength="39.2285" x="169" y="100.0669">pause</text></g><!--reverse link Running to Paused--><g class="link" data-entity-1="Running" data-entity-2="Paused" data-source-line="8" data-uid="lnk17" id="link_Running_Paused"><path d="M240.6159,62.8752 C230.7459,84.8952 218.76,111.66 208.9,133.66" fill="none" id="Running-backto-Paused" style="stroke:#181818;stroke-width:1;"/><polygon fill="#181818" points="243.07,57.4,235.7387,63.9766,241.0249,61.9626,243.0389,67.2488,243.07,57.4" style="stroke:#181818;stroke-width:1;"/><text fill="#000000" font-family="sans-serif" font-size="13" lengthAdjust="spacing" textLength="49.0166" x="231" y="100.0669">resume</text></g><!--link Running to Completed--><g class="link" data-entity-1="Running" data-entity-2="Completed" data-source-line="4" data-uid="lnk10" id="link_Running_Completed"><path d="M293.15,32 C316.87,32 341.31,32 366.54,32" fill="none" id="Running-to-Completed" style="stroke:#181818;stroke-width:1;"/><polygon fill="#181818" points="372.54,32,363.54,28,367.54,32,363.54,36,372.54,32" style="stroke:#181818;stroke-width:1;"/><text fill="#000000" font-family="sans-serif" font-size="13" lengthAdjust="spacing" textLength="35.0518" x="315.41" y="25.0669">finish</text></g><!--link Completed to *end*--><g class="link" data-entity-1="Completed" data-entity-2=".end." data-source-line="5" data-uid="lnk12" id="link_Completed_.end."><path d="M421.98,57.4 C423.07,84.82 424.5586,122.0849 425.3486,141.7049" fill="none" id="Completed-to-*end*" style="stroke:#181818;stroke-width:1;"/><polygon fill="#181818" points="425.59,147.7,429.2247,138.5464,425.3888,142.704,421.2311,138.8682,425.59,147.7" style="stroke:#181818;stroke-width:1;"/></g><!--link Paused to Aborted--><g class="link" data-entity-1="Paused" data-entity-2="Aborted" data-source-line="6" data-uid="lnk14" id="link_Paused_Aborted"><path d="M233.6,159 C254.92,159 276.02,159 297.79,159" fill="none" id="Paused-to-Aborted" style="stroke:#181818;stroke-width:1;"/><polygon fill="#181818" points="303.79,159,294.79,155,298.79,159,294.79,163,303.79,159" style="stroke:#181818;stroke-width:1;"/><text fill="#000000" font-family="sans-serif" font-size="13" lengthAdjust="spacing" textLength="34.6138" x="251.73" y="152.0669">abort</text></g><!--link Running to Aborted--><g class="link" data-entity-1="Running" data-entity-2="Aborted" data-source-line="7" data-uid="lnk15" id="link_Running_Aborted"><path d="M271.18,57.4 C286.68,79.42 305.9143,106.7551 321.4143,128.7551" fill="none" id="Running-to-Aborted" style="stroke:#181818;stroke-width:1;"/><polygon fill="#181818" points="324.87,133.66,322.9563,123.9988,321.9902,129.5726,316.4165,128.6065,324.87,133.66" style="stroke:#181818;stroke-width:1;"/><text fill="#000000" font-family="sans-serif" font-size="13" lengthAdjust="spacing" textLength="34.6138" x="305" y="100.0669">abort</text></g><!--link Aborted to *end*--><g class="link" data-entity-1="Aborted" data-entity-2=".end." data-source-line="9" data-uid="lnk18" id="link_Aborted_.end."><path d="M380.06,159 C391.55,159 397.03,159 408.52,159" fill="none" id="Aborted-to-*end*" style="stroke:#181818;stroke-width:1;"/><polygon fill="#181818" points="414.52,159,405.52,155,409.52,159,405.52,163,414.52,159" style="stroke:#181818;stroke-width:1;"/></g><!--SRC=[YzQALT2rK_3Coop9JCp9h4fDuK9YWwI2IlFoClFI5QmKYaiIYqguO7pT5A1aG69fCL2PbK81Y86GirDmpiyjo4aj0KkcPUPb5cTm8OJ0UgErOhcW-e4ynwJy8eZgH10BsIXqAPYcKXJN5QKMb-QcSi4KwnP1h000]--></g></svg>
