<?xml version="1.0" encoding="utf-8"?>
<svg xmlns="http://www.w3.org/2000/svg" xmlns:xlink="http://www.w3.org/1999/xlink" width="600" height="400" viewBox="0 0 2400 1600">
<defs>
  <clipPath id="clip050">
    <rect x="0" y="0" width="2400" height="1600"/>
  </clipPath>
</defs>
<path clip-path="url(#clip050)" d="M0 1600 L2400 1600 L2400 0 L0 0  Z" fill="#ffffff" fill-rule="evenodd" fill-opacity="1"/>
<defs>
  <clipPath id="clip051">
    <rect x="480" y="0" width="1681" height="1600"/>
  </clipPath>
</defs>
<path clip-path="url(#clip050)" d="M112.177 1486.45 L2352.76 1486.45 L2352.76 123.472 L112.177 123.472  Z" fill="#ffffff" fill-rule="evenodd" fill-opacity="1"/>
<defs>
  <clipPath id="clip052">
    <rect x="112" y="123" width="2242" height="1364"/>
  </clipPath>
</defs>
<polyline clip-path="url(#clip052)" style="stroke:#000000; stroke-linecap:round; stroke-linejoin:round; stroke-width:2; stroke-opacity:0.1; fill:none" points="520.285,1486.45 520.285,123.472 "/>
<polyline clip-path="url(#clip052)" style="stroke:#000000; stroke-linecap:round; stroke-linejoin:round; stroke-width:2; stroke-opacity:0.1; fill:none" points="1232.47,1486.45 1232.47,123.472 "/>
<polyline clip-path="url(#clip052)" style="stroke:#000000; stroke-linecap:round; stroke-linejoin:round; stroke-width:2; stroke-opacity:0.1; fill:none" points="1944.65,1486.45 1944.65,123.472 "/>
<polyline clip-path="url(#clip052)" style="stroke:#000000; stroke-linecap:round; stroke-linejoin:round; stroke-width:2; stroke-opacity:0.1; fill:none" points="112.177,1486.45 2352.76,1486.45 "/>
<polyline clip-path="url(#clip052)" style="stroke:#000000; stroke-linecap:round; stroke-linejoin:round; stroke-width:2; stroke-opacity:0.1; fill:none" points="112.177,1291.74 2352.76,1291.74 "/>
<polyline clip-path="url(#clip052)" style="stroke:#000000; stroke-linecap:round; stroke-linejoin:round; stroke-width:2; stroke-opacity:0.1; fill:none" points="112.177,1097.03 2352.76,1097.03 "/>
<polyline clip-path="url(#clip052)" style="stroke:#000000; stroke-linecap:round; stroke-linejoin:round; stroke-width:2; stroke-opacity:0.1; fill:none" points="112.177,902.315 2352.76,902.315 "/>
<polyline clip-path="url(#clip052)" style="stroke:#000000; stroke-linecap:round; stroke-linejoin:round; stroke-width:2; stroke-opacity:0.1; fill:none" points="112.177,707.605 2352.76,707.605 "/>
<polyline clip-path="url(#clip052)" style="stroke:#000000; stroke-linecap:round; stroke-linejoin:round; stroke-width:2; stroke-opacity:0.1; fill:none" points="112.177,512.894 2352.76,512.894 "/>
<polyline clip-path="url(#clip052)" style="stroke:#000000; stroke-linecap:round; stroke-linejoin:round; stroke-width:2; stroke-opacity:0.1; fill:none" points="112.177,318.183 2352.76,318.183 "/>
<polyline clip-path="url(#clip052)" style="stroke:#000000; stroke-linecap:round; stroke-linejoin:round; stroke-width:2; stroke-opacity:0.1; fill:none" points="112.177,123.472 2352.76,123.472 "/>
<polyline clip-path="url(#clip050)" style="stroke:#000000; stroke-linecap:round; stroke-linejoin:round; stroke-width:4; stroke-opacity:1; fill:none" points="112.177,1486.45 2352.76,1486.45 "/>
<polyline clip-path="url(#clip050)" style="stroke:#000000; stroke-linecap:round; stroke-linejoin:round; stroke-width:4; stroke-opacity:1; fill:none" points="520.285,1486.45 520.285,1467.55 "/>
<polyline clip-path="url(#clip050)" style="stroke:#000000; stroke-linecap:round; stroke-linejoin:round; stroke-width:4; stroke-opacity:1; fill:none" points="1232.47,1486.45 1232.47,1467.55 "/>
<polyline clip-path="url(#clip050)" style="stroke:#000000; stroke-linecap:round; stroke-linejoin:round; stroke-width:4; stroke-opacity:1; fill:none" points="1944.65,1486.45 1944.65,1467.55 "/>
<path clip-path="url(#clip050)" d="M520.285 1518.89 L513.943 1536.09 L526.651 1536.09 L520.285 1518.89 M517.647 1514.29 L522.947 1514.29 L536.119 1548.85 L531.258 1548.85 L528.109 1539.98 L512.531 1539.98 L509.383 1548.85 L504.452 1548.85 L517.647 1514.29 Z" fill="#000000" fill-rule="nonzero" fill-opacity="1" /><path clip-path="url(#clip050)" d="M1224.89 1532.34 L1224.89 1545.01 L1232.39 1545.01 Q1236.16 1545.01 1237.96 1543.45 Q1239.79 1541.88 1239.79 1538.66 Q1239.79 1535.42 1237.96 1533.89 Q1236.16 1532.34 1232.39 1532.34 L1224.89 1532.34 M1224.89 1518.13 L1224.89 1528.55 L1231.81 1528.55 Q1235.23 1528.55 1236.9 1527.27 Q1238.59 1525.98 1238.59 1523.34 Q1238.59 1520.72 1236.9 1519.43 Q1235.23 1518.13 1231.81 1518.13 L1224.89 1518.13 M1220.21 1514.29 L1232.15 1514.29 Q1237.5 1514.29 1240.39 1516.51 Q1243.29 1518.73 1243.29 1522.83 Q1243.29 1526 1241.81 1527.88 Q1240.33 1529.75 1237.45 1530.21 Q1240.9 1530.95 1242.8 1533.32 Q1244.72 1535.65 1244.72 1539.17 Q1244.72 1543.8 1241.58 1546.32 Q1238.43 1548.85 1232.62 1548.85 L1220.21 1548.85 L1220.21 1514.29 Z" fill="#000000" fill-rule="nonzero" fill-opacity="1" /><path clip-path="url(#clip050)" d="M1958.58 1516.95 L1958.58 1521.88 Q1956.22 1519.68 1953.54 1518.59 Q1950.87 1517.51 1947.87 1517.51 Q1941.94 1517.51 1938.79 1521.14 Q1935.64 1524.75 1935.64 1531.6 Q1935.64 1538.43 1938.79 1542.07 Q1941.94 1545.68 1947.87 1545.68 Q1950.87 1545.68 1953.54 1544.59 Q1956.22 1543.5 1958.58 1541.3 L1958.58 1546.19 Q1956.13 1547.85 1953.37 1548.69 Q1950.64 1549.52 1947.59 1549.52 Q1939.74 1549.52 1935.23 1544.73 Q1930.71 1539.91 1930.71 1531.6 Q1930.71 1523.27 1935.23 1518.48 Q1939.74 1513.66 1947.59 1513.66 Q1950.69 1513.66 1953.42 1514.5 Q1956.18 1515.31 1958.58 1516.95 Z" fill="#000000" fill-rule="nonzero" fill-opacity="1" /><polyline clip-path="url(#clip050)" style="stroke:#000000; stroke-linecap:round; stroke-linejoin:round; stroke-width:4; stroke-opacity:1; fill:none" points="112.177,1486.45 112.177,123.472 "/>
<polyline clip-path="url(#clip050)" style="stroke:#000000; stroke-linecap:round; stroke-linejoin:round; stroke-width:4; stroke-opacity:1; fill:none" points="112.177,1486.45 131.075,1486.45 "/>
<polyline clip-path="url(#clip050)" style="stroke:#000000; stroke-linecap:round; stroke-linejoin:round; stroke-width:4; stroke-opacity:1; fill:none" points="112.177,1291.74 131.075,1291.74 "/>
<polyline clip-path="url(#clip050)" style="stroke:#000000; stroke-linecap:round; stroke-linejoin:round; stroke-width:4; stroke-opacity:1; fill:none" points="112.177,1097.03 131.075,1097.03 "/>
<polyline clip-path="url(#clip050)" style="stroke:#000000; stroke-linecap:round; stroke-linejoin:round; stroke-width:4; stroke-opacity:1; fill:none" points="112.177,902.315 131.075,902.315 "/>
<polyline clip-path="url(#clip050)" style="stroke:#000000; stroke-linecap:round; stroke-linejoin:round; stroke-width:4; stroke-opacity:1; fill:none" points="112.177,707.605 131.075,707.605 "/>
<polyline clip-path="url(#clip050)" style="stroke:#000000; stroke-linecap:round; stroke-linejoin:round; stroke-width:4; stroke-opacity:1; fill:none" points="112.177,512.894 131.075,512.894 "/>
<polyline clip-path="url(#clip050)" style="stroke:#000000; stroke-linecap:round; stroke-linejoin:round; stroke-width:4; stroke-opacity:1; fill:none" points="112.177,318.183 131.075,318.183 "/>
<polyline clip-path="url(#clip050)" style="stroke:#000000; stroke-linecap:round; stroke-linejoin:round; stroke-width:4; stroke-opacity:1; fill:none" points="112.177,123.472 131.075,123.472 "/>
<path clip-path="url(#clip050)" d="M64.2328 1472.25 Q60.6217 1472.25 58.793 1475.81 Q56.9875 1479.35 56.9875 1486.48 Q56.9875 1493.59 58.793 1497.15 Q60.6217 1500.7 64.2328 1500.7 Q67.867 1500.7 69.6726 1497.15 Q71.5013 1493.59 71.5013 1486.48 Q71.5013 1479.35 69.6726 1475.81 Q67.867 1472.25 64.2328 1472.25 M64.2328 1468.54 Q70.0429 1468.54 73.0985 1473.15 Q76.1772 1477.73 76.1772 1486.48 Q76.1772 1495.21 73.0985 1499.82 Q70.0429 1504.4 64.2328 1504.4 Q58.4226 1504.4 55.344 1499.82 Q52.2884 1495.21 52.2884 1486.48 Q52.2884 1477.73 55.344 1473.15 Q58.4226 1468.54 64.2328 1468.54 Z" fill="#000000" fill-rule="nonzero" fill-opacity="1" /><path clip-path="url(#clip050)" d="M56.2699 1305.08 L63.9087 1305.08 L63.9087 1278.72 L55.5986 1280.38 L55.5986 1276.12 L63.8624 1274.46 L68.5383 1274.46 L68.5383 1305.08 L76.1772 1305.08 L76.1772 1309.02 L56.2699 1309.02 L56.2699 1305.08 Z" fill="#000000" fill-rule="nonzero" fill-opacity="1" /><path clip-path="url(#clip050)" d="M59.8578 1110.37 L76.1772 1110.37 L76.1772 1114.31 L54.2328 1114.31 L54.2328 1110.37 Q56.8949 1107.62 61.4782 1102.99 Q66.0846 1098.33 67.2652 1096.99 Q69.5105 1094.47 70.3902 1092.73 Q71.2929 1090.97 71.2929 1089.28 Q71.2929 1086.53 69.3485 1084.79 Q67.4272 1083.06 64.3254 1083.06 Q62.1263 1083.06 59.6726 1083.82 Q57.2421 1084.58 54.4643 1086.14 L54.4643 1081.41 Q57.2884 1080.28 59.7421 1079.7 Q62.1958 1079.12 64.2328 1079.12 Q69.6031 1079.12 72.7976 1081.81 Q75.992 1084.49 75.992 1088.98 Q75.992 1091.11 75.1818 1093.03 Q74.3948 1094.93 72.2883 1097.52 Q71.7096 1098.2 68.6078 1101.41 Q65.5059 1104.61 59.8578 1110.37 Z" fill="#000000" fill-rule="nonzero" fill-opacity="1" /><path clip-path="url(#clip050)" d="M69.0476 900.961 Q72.404 901.679 74.279 903.947 Q76.1772 906.216 76.1772 909.549 Q76.1772 914.665 72.6587 917.466 Q69.1402 920.267 62.6587 920.267 Q60.4828 920.267 58.168 919.827 Q55.8764 919.41 53.4227 918.554 L53.4227 914.04 Q55.3671 915.174 57.6819 915.753 Q59.9967 916.332 62.5198 916.332 Q66.918 916.332 69.2096 914.595 Q71.5244 912.859 71.5244 909.549 Q71.5244 906.494 69.3717 904.781 Q67.242 903.045 63.4226 903.045 L59.3949 903.045 L59.3949 899.202 L63.6078 899.202 Q67.0569 899.202 68.8855 897.836 Q70.7142 896.447 70.7142 893.855 Q70.7142 891.193 68.8161 889.781 Q66.9411 888.346 63.4226 888.346 Q61.5013 888.346 59.3023 888.762 Q57.1032 889.179 54.4643 890.059 L54.4643 885.892 Q57.1264 885.151 59.4412 884.781 Q61.7791 884.41 63.8393 884.41 Q69.1633 884.41 72.2652 886.841 Q75.367 889.248 75.367 893.369 Q75.367 896.239 73.7235 898.23 Q72.08 900.197 69.0476 900.961 Z" fill="#000000" fill-rule="nonzero" fill-opacity="1" /><path clip-path="url(#clip050)" d="M66.5939 694.399 L54.7884 712.848 L66.5939 712.848 L66.5939 694.399 M65.367 690.325 L71.2466 690.325 L71.2466 712.848 L76.1772 712.848 L76.1772 716.736 L71.2466 716.736 L71.2466 724.885 L66.5939 724.885 L66.5939 716.736 L50.9921 716.736 L50.9921 712.223 L65.367 690.325 Z" fill="#000000" fill-rule="nonzero" fill-opacity="1" /><path clip-path="url(#clip050)" d="M55.2745 495.614 L73.6309 495.614 L73.6309 499.549 L59.5569 499.549 L59.5569 508.021 Q60.5754 507.674 61.5939 507.512 Q62.6124 507.327 63.6309 507.327 Q69.418 507.327 72.7976 510.498 Q76.1772 513.669 76.1772 519.086 Q76.1772 524.665 72.705 527.766 Q69.2328 530.845 62.9134 530.845 Q60.7374 530.845 58.4689 530.475 Q56.2236 530.104 53.8162 529.364 L53.8162 524.665 Q55.8995 525.799 58.1217 526.354 Q60.3439 526.91 62.8208 526.91 Q66.8254 526.91 69.1633 524.803 Q71.5013 522.697 71.5013 519.086 Q71.5013 515.475 69.1633 513.368 Q66.8254 511.262 62.8208 511.262 Q60.9458 511.262 59.0708 511.678 Q57.2189 512.095 55.2745 512.975 L55.2745 495.614 Z" fill="#000000" fill-rule="nonzero" fill-opacity="1" /><path clip-path="url(#clip050)" d="M64.6495 316.32 Q61.5013 316.32 59.6495 318.472 Q57.8208 320.625 57.8208 324.375 Q57.8208 328.102 59.6495 330.278 Q61.5013 332.431 64.6495 332.431 Q67.7976 332.431 69.6263 330.278 Q71.4781 328.102 71.4781 324.375 Q71.4781 320.625 69.6263 318.472 Q67.7976 316.32 64.6495 316.32 M73.9318 301.667 L73.9318 305.926 Q72.1726 305.093 70.367 304.653 Q68.5846 304.213 66.8254 304.213 Q62.1958 304.213 59.7421 307.338 Q57.3115 310.463 56.9643 316.782 Q58.33 314.769 60.3902 313.704 Q62.4504 312.616 64.9272 312.616 Q70.1355 312.616 73.1448 315.787 Q76.1772 318.935 76.1772 324.375 Q76.1772 329.699 73.029 332.917 Q69.8809 336.134 64.6495 336.134 Q58.6541 336.134 55.4828 331.551 Q52.3116 326.944 52.3116 318.218 Q52.3116 310.023 56.2004 305.162 Q60.0893 300.278 66.6402 300.278 Q68.3994 300.278 70.1818 300.625 Q71.9874 300.972 73.9318 301.667 Z" fill="#000000" fill-rule="nonzero" fill-opacity="1" /><path clip-path="url(#clip050)" d="M53.9551 106.192 L76.1772 106.192 L76.1772 108.183 L63.6309 140.752 L58.7467 140.752 L70.5522 110.127 L53.9551 110.127 L53.9551 106.192 Z" fill="#000000" fill-rule="nonzero" fill-opacity="1" /><path clip-path="url(#clip050)" d="M1083.41 43.6931 L1083.41 65.8515 L1096.54 65.8515 Q1103.14 65.8515 1106.3 63.1374 Q1109.5 60.3828 1109.5 54.752 Q1109.5 49.0808 1106.3 46.4072 Q1103.14 43.6931 1096.54 43.6931 L1083.41 43.6931 M1083.41 18.8205 L1083.41 37.0496 L1095.53 37.0496 Q1101.52 37.0496 1104.44 34.8216 Q1107.39 32.5531 1107.39 27.935 Q1107.39 23.3575 1104.44 21.089 Q1101.52 18.8205 1095.53 18.8205 L1083.41 18.8205 M1075.23 12.096 L1096.13 12.096 Q1105.49 12.096 1110.55 15.9849 Q1115.62 19.8737 1115.62 27.0438 Q1115.62 32.5936 1113.03 35.8748 Q1110.43 39.156 1105.41 39.9662 Q1111.45 41.2625 1114.77 45.3944 Q1118.13 49.4858 1118.13 55.6432 Q1118.13 63.745 1112.62 68.1605 Q1107.11 72.576 1096.94 72.576 L1075.23 72.576 L1075.23 12.096 Z" fill="#000000" fill-rule="nonzero" fill-opacity="1" /><path clip-path="url(#clip050)" d="M1152.44 49.7694 Q1143.41 49.7694 1139.92 51.8354 Q1136.44 53.9013 1136.44 58.8839 Q1136.44 62.8538 1139.03 65.2034 Q1141.67 67.5124 1146.16 67.5124 Q1152.36 67.5124 1156.09 63.1374 Q1159.85 58.7219 1159.85 51.4303 L1159.85 49.7694 L1152.44 49.7694 M1167.31 46.6907 L1167.31 72.576 L1159.85 72.576 L1159.85 65.6895 Q1157.3 69.8214 1153.49 71.8063 Q1149.69 73.7508 1144.18 73.7508 Q1137.21 73.7508 1133.08 69.8619 Q1128.99 65.9325 1128.99 59.3701 Q1128.99 51.7138 1134.09 47.825 Q1139.23 43.9361 1149.4 43.9361 L1159.85 43.9361 L1159.85 43.2069 Q1159.85 38.0623 1156.45 35.2672 Q1153.09 32.4315 1146.97 32.4315 Q1143.08 32.4315 1139.4 33.3632 Q1135.71 34.295 1132.31 36.1584 L1132.31 29.2718 Q1136.4 27.692 1140.25 26.9223 Q1144.1 26.1121 1147.74 26.1121 Q1157.59 26.1121 1162.45 31.2163 Q1167.31 36.3204 1167.31 46.6907 Z" fill="#000000" fill-rule="nonzero" fill-opacity="1" /><path clip-path="url(#clip050)" d="M1208.95 34.1734 Q1207.7 33.4443 1206.2 33.1202 Q1204.74 32.7556 1202.96 32.7556 Q1196.64 32.7556 1193.23 36.8875 Q1189.87 40.9789 1189.87 48.6757 L1189.87 72.576 L1182.38 72.576 L1182.38 27.2059 L1189.87 27.2059 L1189.87 34.2544 Q1192.22 30.1225 1195.99 28.1376 Q1199.76 26.1121 1205.14 26.1121 Q1205.91 26.1121 1206.84 26.2337 Q1207.78 26.3147 1208.91 26.5172 L1208.95 34.1734 Z" fill="#000000" fill-rule="nonzero" fill-opacity="1" /><path clip-path="url(#clip050)" d="M1251.65 18.8205 L1251.65 41.5461 L1261.94 41.5461 Q1267.65 41.5461 1270.77 38.5889 Q1273.89 35.6318 1273.89 30.163 Q1273.89 24.7348 1270.77 21.7777 Q1267.65 18.8205 1261.94 18.8205 L1251.65 18.8205 M1243.46 12.096 L1261.94 12.096 Q1272.1 12.096 1277.29 16.714 Q1282.52 21.2916 1282.52 30.163 Q1282.52 39.1155 1277.29 43.6931 Q1272.1 48.2706 1261.94 48.2706 L1251.65 48.2706 L1251.65 72.576 L1243.46 72.576 L1243.46 12.096 Z" fill="#000000" fill-rule="nonzero" fill-opacity="1" /><path clip-path="url(#clip050)" d="M1293.17 9.54393 L1300.62 9.54393 L1300.62 72.576 L1293.17 72.576 L1293.17 9.54393 Z" fill="#000000" fill-rule="nonzero" fill-opacity="1" /><path clip-path="url(#clip050)" d="M1333.8 32.4315 Q1327.8 32.4315 1324.32 37.1306 Q1320.84 41.7891 1320.84 49.9314 Q1320.84 58.0738 1324.28 62.7728 Q1327.76 67.4314 1333.8 67.4314 Q1339.75 67.4314 1343.24 62.7323 Q1346.72 58.0333 1346.72 49.9314 Q1346.72 41.8701 1343.24 37.1711 Q1339.75 32.4315 1333.8 32.4315 M1333.8 26.1121 Q1343.52 26.1121 1349.07 32.4315 Q1354.62 38.7509 1354.62 49.9314 Q1354.62 61.0714 1349.07 67.4314 Q1343.52 73.7508 1333.8 73.7508 Q1324.04 73.7508 1318.49 67.4314 Q1312.98 61.0714 1312.98 49.9314 Q1312.98 38.7509 1318.49 32.4315 Q1324.04 26.1121 1333.8 26.1121 Z" fill="#000000" fill-rule="nonzero" fill-opacity="1" /><path clip-path="url(#clip050)" d="M1374.35 14.324 L1374.35 27.2059 L1389.7 27.2059 L1389.7 32.9987 L1374.35 32.9987 L1374.35 57.6282 Q1374.35 63.1779 1375.85 64.7578 Q1377.39 66.3376 1382.05 66.3376 L1389.7 66.3376 L1389.7 72.576 L1382.05 72.576 Q1373.42 72.576 1370.14 69.3758 Q1366.86 66.1351 1366.86 57.6282 L1366.86 32.9987 L1361.39 32.9987 L1361.39 27.2059 L1366.86 27.2059 L1366.86 14.324 L1374.35 14.324 Z" fill="#000000" fill-rule="nonzero" fill-opacity="1" /><path clip-path="url(#clip052)" d="M235.413 512.894 L235.413 1486.45 L805.158 1486.45 L805.158 512.894 L235.413 512.894 L235.413 512.894  Z" fill="#009af9" fill-rule="evenodd" fill-opacity="1"/>
<polyline clip-path="url(#clip052)" style="stroke:#000000; stroke-linecap:round; stroke-linejoin:round; stroke-width:4; stroke-opacity:1; fill:none" points="235.413,512.894 235.413,1486.45 805.158,1486.45 805.158,512.894 235.413,512.894 "/>
<path clip-path="url(#clip052)" d="M947.594 902.315 L947.594 1486.45 L1517.34 1486.45 L1517.34 902.315 L947.594 902.315 L947.594 902.315  Z" fill="#009af9" fill-rule="evenodd" fill-opacity="1"/>
<polyline clip-path="url(#clip052)" style="stroke:#000000; stroke-linecap:round; stroke-linejoin:round; stroke-width:4; stroke-opacity:1; fill:none" points="947.594,902.315 947.594,1486.45 1517.34,1486.45 1517.34,902.315 947.594,902.315 "/>
<path clip-path="url(#clip052)" d="M1659.78 123.472 L1659.78 1486.45 L2229.52 1486.45 L2229.52 123.472 L1659.78 123.472 L1659.78 123.472  Z" fill="#009af9" fill-rule="evenodd" fill-opacity="1"/>
<polyline clip-path="url(#clip052)" style="stroke:#000000; stroke-linecap:round; stroke-linejoin:round; stroke-width:4; stroke-opacity:1; fill:none" points="1659.78,123.472 1659.78,1486.45 2229.52,1486.45 2229.52,123.472 1659.78,123.472 "/>
<circle clip-path="url(#clip052)" style="fill:#009af9; stroke:none; fill-opacity:0" cx="520.285" cy="512.894" r="2"/>
<circle clip-path="url(#clip052)" style="fill:#009af9; stroke:none; fill-opacity:0" cx="1232.47" cy="902.315" r="2"/>
<circle clip-path="url(#clip052)" style="fill:#009af9; stroke:none; fill-opacity:0" cx="1944.65" cy="123.472" r="2"/>
<path clip-path="url(#clip050)" d="M186.863 272.585 L463.351 272.585 L463.351 168.905 L186.863 168.905  Z" fill="#ffffff" fill-rule="evenodd" fill-opacity="1"/>
<polyline clip-path="url(#clip050)" style="stroke:#000000; stroke-linecap:round; stroke-linejoin:round; stroke-width:4; stroke-opacity:1; fill:none" points="186.863,272.585 463.351,272.585 463.351,168.905 186.863,168.905 186.863,272.585 "/>
<path clip-path="url(#clip050)" d="M211.758 241.481 L361.13 241.481 L361.13 200.009 L211.758 200.009 L211.758 241.481  Z" fill="#009af9" fill-rule="evenodd" fill-opacity="1"/>
<polyline clip-path="url(#clip050)" style="stroke:#000000; stroke-linecap:round; stroke-linejoin:round; stroke-width:4; stroke-opacity:1; fill:none" points="211.758,241.481 361.13,241.481 361.13,200.009 211.758,200.009 211.758,241.481 "/>
<path clip-path="url(#clip050)" d="M399.868 240.432 Q398.063 245.062 396.35 246.474 Q394.637 247.886 391.766 247.886 L388.364 247.886 L388.364 244.321 L390.864 244.321 Q392.623 244.321 393.595 243.488 Q394.567 242.654 395.748 239.552 L396.512 237.608 L386.026 212.099 L390.54 212.099 L398.641 232.377 L406.743 212.099 L411.257 212.099 L399.868 240.432 Z" fill="#000000" fill-rule="nonzero" fill-opacity="1" /><path clip-path="url(#clip050)" d="M418.549 234.089 L426.188 234.089 L426.188 207.724 L417.877 209.391 L417.877 205.131 L426.141 203.465 L430.817 203.465 L430.817 234.089 L438.456 234.089 L438.456 238.025 L418.549 238.025 L418.549 234.089 Z" fill="#000000" fill-rule="nonzero" fill-opacity="1" /></svg>
