<?xml version="1.0" encoding="utf-8"?>
<svg xmlns="http://www.w3.org/2000/svg" xmlns:xlink="http://www.w3.org/1999/xlink" width="600" height="400" viewBox="0 0 2400 1600">
<defs>
  <clipPath id="clip080">
    <rect x="0" y="0" width="2400" height="1600"/>
  </clipPath>
</defs>
<path clip-path="url(#clip080)" d="M0 1600 L2400 1600 L2400 0 L0 0  Z" fill="#ffffff" fill-rule="evenodd" fill-opacity="1"/>
<defs>
  <clipPath id="clip081">
    <rect x="480" y="0" width="1681" height="1600"/>
  </clipPath>
</defs>
<path clip-path="url(#clip080)" d="M141.853 1486.45 L2352.76 1486.45 L2352.76 123.472 L141.853 123.472  Z" fill="#ffffff" fill-rule="evenodd" fill-opacity="1"/>
<defs>
  <clipPath id="clip082">
    <rect x="141" y="123" width="2212" height="1364"/>
  </clipPath>
</defs>
<polyline clip-path="url(#clip082)" style="stroke:#000000; stroke-linecap:round; stroke-linejoin:round; stroke-width:2; stroke-opacity:0.1; fill:none" points="610.697,1486.45 610.697,123.472 "/>
<polyline clip-path="url(#clip082)" style="stroke:#000000; stroke-linecap:round; stroke-linejoin:round; stroke-width:2; stroke-opacity:0.1; fill:none" points="1189.43,1486.45 1189.43,123.472 "/>
<polyline clip-path="url(#clip082)" style="stroke:#000000; stroke-linecap:round; stroke-linejoin:round; stroke-width:2; stroke-opacity:0.1; fill:none" points="1768.17,1486.45 1768.17,123.472 "/>
<polyline clip-path="url(#clip082)" style="stroke:#000000; stroke-linecap:round; stroke-linejoin:round; stroke-width:2; stroke-opacity:0.1; fill:none" points="2346.9,1486.45 2346.9,123.472 "/>
<polyline clip-path="url(#clip082)" style="stroke:#000000; stroke-linecap:round; stroke-linejoin:round; stroke-width:2; stroke-opacity:0.1; fill:none" points="141.853,1486.45 2352.76,1486.45 "/>
<polyline clip-path="url(#clip082)" style="stroke:#000000; stroke-linecap:round; stroke-linejoin:round; stroke-width:2; stroke-opacity:0.1; fill:none" points="141.853,1193.33 2352.76,1193.33 "/>
<polyline clip-path="url(#clip082)" style="stroke:#000000; stroke-linecap:round; stroke-linejoin:round; stroke-width:2; stroke-opacity:0.1; fill:none" points="141.853,900.222 2352.76,900.222 "/>
<polyline clip-path="url(#clip082)" style="stroke:#000000; stroke-linecap:round; stroke-linejoin:round; stroke-width:2; stroke-opacity:0.1; fill:none" points="141.853,607.109 2352.76,607.109 "/>
<polyline clip-path="url(#clip082)" style="stroke:#000000; stroke-linecap:round; stroke-linejoin:round; stroke-width:2; stroke-opacity:0.1; fill:none" points="141.853,313.996 2352.76,313.996 "/>
<polyline clip-path="url(#clip080)" style="stroke:#000000; stroke-linecap:round; stroke-linejoin:round; stroke-width:4; stroke-opacity:1; fill:none" points="141.853,1486.45 2352.76,1486.45 "/>
<polyline clip-path="url(#clip080)" style="stroke:#000000; stroke-linecap:round; stroke-linejoin:round; stroke-width:4; stroke-opacity:1; fill:none" points="610.697,1486.45 610.697,1467.55 "/>
<polyline clip-path="url(#clip080)" style="stroke:#000000; stroke-linecap:round; stroke-linejoin:round; stroke-width:4; stroke-opacity:1; fill:none" points="1189.43,1486.45 1189.43,1467.55 "/>
<polyline clip-path="url(#clip080)" style="stroke:#000000; stroke-linecap:round; stroke-linejoin:round; stroke-width:4; stroke-opacity:1; fill:none" points="1768.17,1486.45 1768.17,1467.55 "/>
<polyline clip-path="url(#clip080)" style="stroke:#000000; stroke-linecap:round; stroke-linejoin:round; stroke-width:4; stroke-opacity:1; fill:none" points="2346.9,1486.45 2346.9,1467.55 "/>
<path clip-path="url(#clip080)" d="M580.639 1532.02 L610.315 1532.02 L610.315 1535.95 L580.639 1535.95 L580.639 1532.02 Z" fill="#000000" fill-rule="nonzero" fill-opacity="1" /><path clip-path="url(#clip080)" d="M624.435 1544.91 L640.755 1544.91 L640.755 1548.85 L618.81 1548.85 L618.81 1544.91 Q621.472 1542.16 626.056 1537.53 Q630.662 1532.88 631.843 1531.53 Q634.088 1529.01 634.968 1527.27 Q635.87 1525.51 635.87 1523.82 Q635.87 1521.07 633.926 1519.33 Q632.005 1517.6 628.903 1517.6 Q626.704 1517.6 624.25 1518.36 Q621.82 1519.13 619.042 1520.68 L619.042 1515.95 Q621.866 1514.82 624.32 1514.24 Q626.773 1513.66 628.81 1513.66 Q634.181 1513.66 637.375 1516.35 Q640.569 1519.03 640.569 1523.52 Q640.569 1525.65 639.759 1527.57 Q638.972 1529.47 636.866 1532.07 Q636.287 1532.74 633.185 1535.95 Q630.083 1539.15 624.435 1544.91 Z" fill="#000000" fill-rule="nonzero" fill-opacity="1" /><path clip-path="url(#clip080)" d="M1189.43 1517.37 Q1185.82 1517.37 1183.99 1520.93 Q1182.19 1524.47 1182.19 1531.6 Q1182.19 1538.71 1183.99 1542.27 Q1185.82 1545.82 1189.43 1545.82 Q1193.07 1545.82 1194.87 1542.27 Q1196.7 1538.71 1196.7 1531.6 Q1196.7 1524.47 1194.87 1520.93 Q1193.07 1517.37 1189.43 1517.37 M1189.43 1513.66 Q1195.24 1513.66 1198.3 1518.27 Q1201.38 1522.85 1201.38 1531.6 Q1201.38 1540.33 1198.3 1544.94 Q1195.24 1549.52 1189.43 1549.52 Q1183.62 1549.52 1180.54 1544.94 Q1177.49 1540.33 1177.49 1531.6 Q1177.49 1522.85 1180.54 1518.27 Q1183.62 1513.66 1189.43 1513.66 Z" fill="#000000" fill-rule="nonzero" fill-opacity="1" /><path clip-path="url(#clip080)" d="M1762.82 1544.91 L1779.14 1544.91 L1779.14 1548.85 L1757.19 1548.85 L1757.19 1544.91 Q1759.85 1542.16 1764.44 1537.53 Q1769.04 1532.88 1770.23 1531.53 Q1772.47 1529.01 1773.35 1527.27 Q1774.25 1525.51 1774.25 1523.82 Q1774.25 1521.07 1772.31 1519.33 Q1770.39 1517.6 1767.29 1517.6 Q1765.09 1517.6 1762.63 1518.36 Q1760.2 1519.13 1757.42 1520.68 L1757.42 1515.95 Q1760.25 1514.82 1762.7 1514.24 Q1765.16 1513.66 1767.19 1513.66 Q1772.56 1513.66 1775.76 1516.35 Q1778.95 1519.03 1778.95 1523.52 Q1778.95 1525.65 1778.14 1527.57 Q1777.35 1529.47 1775.25 1532.07 Q1774.67 1532.74 1771.57 1535.95 Q1768.47 1539.15 1762.82 1544.91 Z" fill="#000000" fill-rule="nonzero" fill-opacity="1" /><path clip-path="url(#clip080)" d="M2349.91 1518.36 L2338.1 1536.81 L2349.91 1536.81 L2349.91 1518.36 M2348.68 1514.29 L2354.56 1514.29 L2354.56 1536.81 L2359.49 1536.81 L2359.49 1540.7 L2354.56 1540.7 L2354.56 1548.85 L2349.91 1548.85 L2349.91 1540.7 L2334.31 1540.7 L2334.31 1536.19 L2348.68 1514.29 Z" fill="#000000" fill-rule="nonzero" fill-opacity="1" /><polyline clip-path="url(#clip080)" style="stroke:#000000; stroke-linecap:round; stroke-linejoin:round; stroke-width:4; stroke-opacity:1; fill:none" points="141.853,1486.45 141.853,123.472 "/>
<polyline clip-path="url(#clip080)" style="stroke:#000000; stroke-linecap:round; stroke-linejoin:round; stroke-width:4; stroke-opacity:1; fill:none" points="141.853,1486.45 160.751,1486.45 "/>
<polyline clip-path="url(#clip080)" style="stroke:#000000; stroke-linecap:round; stroke-linejoin:round; stroke-width:4; stroke-opacity:1; fill:none" points="141.853,1193.33 160.751,1193.33 "/>
<polyline clip-path="url(#clip080)" style="stroke:#000000; stroke-linecap:round; stroke-linejoin:round; stroke-width:4; stroke-opacity:1; fill:none" points="141.853,900.222 160.751,900.222 "/>
<polyline clip-path="url(#clip080)" style="stroke:#000000; stroke-linecap:round; stroke-linejoin:round; stroke-width:4; stroke-opacity:1; fill:none" points="141.853,607.109 160.751,607.109 "/>
<polyline clip-path="url(#clip080)" style="stroke:#000000; stroke-linecap:round; stroke-linejoin:round; stroke-width:4; stroke-opacity:1; fill:none" points="141.853,313.996 160.751,313.996 "/>
<path clip-path="url(#clip080)" d="M93.9086 1472.25 Q90.2975 1472.25 88.4688 1475.81 Q86.6632 1479.35 86.6632 1486.48 Q86.6632 1493.59 88.4688 1497.15 Q90.2975 1500.7 93.9086 1500.7 Q97.5428 1500.7 99.3483 1497.15 Q101.177 1493.59 101.177 1486.48 Q101.177 1479.35 99.3483 1475.81 Q97.5428 1472.25 93.9086 1472.25 M93.9086 1468.54 Q99.7187 1468.54 102.774 1473.15 Q105.853 1477.73 105.853 1486.48 Q105.853 1495.21 102.774 1499.82 Q99.7187 1504.4 93.9086 1504.4 Q88.0984 1504.4 85.0197 1499.82 Q81.9642 1495.21 81.9642 1486.48 Q81.9642 1477.73 85.0197 1473.15 Q88.0984 1468.54 93.9086 1468.54 Z" fill="#000000" fill-rule="nonzero" fill-opacity="1" /><path clip-path="url(#clip080)" d="M57.7745 1206.68 L74.0939 1206.68 L74.0939 1210.61 L52.1495 1210.61 L52.1495 1206.68 Q54.8115 1203.93 59.3949 1199.3 Q64.0013 1194.64 65.1819 1193.3 Q67.4272 1190.78 68.3068 1189.04 Q69.2096 1187.28 69.2096 1185.59 Q69.2096 1182.84 67.2652 1181.1 Q65.3439 1179.36 62.2421 1179.36 Q60.043 1179.36 57.5893 1180.13 Q55.1588 1180.89 52.381 1182.44 L52.381 1177.72 Q55.2051 1176.59 57.6588 1176.01 Q60.1124 1175.43 62.1495 1175.43 Q67.5198 1175.43 70.7142 1178.11 Q73.9087 1180.8 73.9087 1185.29 Q73.9087 1187.42 73.0985 1189.34 Q72.3115 1191.24 70.205 1193.83 Q69.6263 1194.5 66.5245 1197.72 Q63.4226 1200.92 57.7745 1206.68 Z" fill="#000000" fill-rule="nonzero" fill-opacity="1" /><path clip-path="url(#clip080)" d="M93.9086 1179.13 Q90.2975 1179.13 88.4688 1182.7 Q86.6632 1186.24 86.6632 1193.37 Q86.6632 1200.48 88.4688 1204.04 Q90.2975 1207.58 93.9086 1207.58 Q97.5428 1207.58 99.3483 1204.04 Q101.177 1200.48 101.177 1193.37 Q101.177 1186.24 99.3483 1182.7 Q97.5428 1179.13 93.9086 1179.13 M93.9086 1175.43 Q99.7187 1175.43 102.774 1180.04 Q105.853 1184.62 105.853 1193.37 Q105.853 1202.1 102.774 1206.7 Q99.7187 1211.29 93.9086 1211.29 Q88.0984 1211.29 85.0197 1206.7 Q81.9642 1202.1 81.9642 1193.37 Q81.9642 1184.62 85.0197 1180.04 Q88.0984 1175.43 93.9086 1175.43 Z" fill="#000000" fill-rule="nonzero" fill-opacity="1" /><path clip-path="url(#clip080)" d="M66.5939 887.016 L54.7884 905.465 L66.5939 905.465 L66.5939 887.016 M65.367 882.942 L71.2466 882.942 L71.2466 905.465 L76.1772 905.465 L76.1772 909.354 L71.2466 909.354 L71.2466 917.502 L66.5939 917.502 L66.5939 909.354 L50.9921 909.354 L50.9921 904.84 L65.367 882.942 Z" fill="#000000" fill-rule="nonzero" fill-opacity="1" /><path clip-path="url(#clip080)" d="M93.9086 886.02 Q90.2975 886.02 88.4688 889.585 Q86.6632 893.127 86.6632 900.256 Q86.6632 907.363 88.4688 910.928 Q90.2975 914.469 93.9086 914.469 Q97.5428 914.469 99.3483 910.928 Q101.177 907.363 101.177 900.256 Q101.177 893.127 99.3483 889.585 Q97.5428 886.02 93.9086 886.02 M93.9086 882.317 Q99.7187 882.317 102.774 886.923 Q105.853 891.507 105.853 900.256 Q105.853 908.983 102.774 913.59 Q99.7187 918.173 93.9086 918.173 Q88.0984 918.173 85.0197 913.59 Q81.9642 908.983 81.9642 900.256 Q81.9642 891.507 85.0197 886.923 Q88.0984 882.317 93.9086 882.317 Z" fill="#000000" fill-rule="nonzero" fill-opacity="1" /><path clip-path="url(#clip080)" d="M64.3254 605.245 Q61.1773 605.245 59.3254 607.398 Q57.4967 609.551 57.4967 613.301 Q57.4967 617.028 59.3254 619.204 Q61.1773 621.356 64.3254 621.356 Q67.4735 621.356 69.3022 619.204 Q71.1541 617.028 71.1541 613.301 Q71.1541 609.551 69.3022 607.398 Q67.4735 605.245 64.3254 605.245 M73.6077 590.593 L73.6077 594.852 Q71.8485 594.018 70.0429 593.579 Q68.2606 593.139 66.5013 593.139 Q61.8717 593.139 59.418 596.264 Q56.9875 599.389 56.6402 605.708 Q58.006 603.694 60.0662 602.63 Q62.1263 601.542 64.6032 601.542 Q69.8115 601.542 72.8207 604.713 Q75.8531 607.861 75.8531 613.301 Q75.8531 618.625 72.705 621.842 Q69.5568 625.06 64.3254 625.06 Q58.33 625.06 55.1588 620.477 Q51.9875 615.87 51.9875 607.143 Q51.9875 598.949 55.8764 594.088 Q59.7652 589.204 66.3161 589.204 Q68.0754 589.204 69.8578 589.551 Q71.6633 589.898 73.6077 590.593 Z" fill="#000000" fill-rule="nonzero" fill-opacity="1" /><path clip-path="url(#clip080)" d="M93.9086 592.907 Q90.2975 592.907 88.4688 596.472 Q86.6632 600.014 86.6632 607.143 Q86.6632 614.25 88.4688 617.815 Q90.2975 621.356 93.9086 621.356 Q97.5428 621.356 99.3483 617.815 Q101.177 614.25 101.177 607.143 Q101.177 600.014 99.3483 596.472 Q97.5428 592.907 93.9086 592.907 M93.9086 589.204 Q99.7187 589.204 102.774 593.81 Q105.853 598.393 105.853 607.143 Q105.853 615.87 102.774 620.477 Q99.7187 625.06 93.9086 625.06 Q88.0984 625.06 85.0197 620.477 Q81.9642 615.87 81.9642 607.143 Q81.9642 598.393 85.0197 593.81 Q88.0984 589.204 93.9086 589.204 Z" fill="#000000" fill-rule="nonzero" fill-opacity="1" /><path clip-path="url(#clip080)" d="M63.7467 314.864 Q60.4134 314.864 58.4921 316.646 Q56.5939 318.428 56.5939 321.553 Q56.5939 324.678 58.4921 326.461 Q60.4134 328.243 63.7467 328.243 Q67.08 328.243 69.0013 326.461 Q70.9226 324.655 70.9226 321.553 Q70.9226 318.428 69.0013 316.646 Q67.1032 314.864 63.7467 314.864 M59.0708 312.873 Q56.0615 312.132 54.3717 310.072 Q52.7051 308.012 52.7051 305.049 Q52.7051 300.905 55.6449 298.498 Q58.6078 296.091 63.7467 296.091 Q68.9087 296.091 71.8485 298.498 Q74.7883 300.905 74.7883 305.049 Q74.7883 308.012 73.0985 310.072 Q71.4318 312.132 68.4457 312.873 Q71.8253 313.66 73.7003 315.952 Q75.5985 318.243 75.5985 321.553 Q75.5985 326.577 72.5198 329.262 Q69.4642 331.947 63.7467 331.947 Q58.0291 331.947 54.9504 329.262 Q51.8949 326.577 51.8949 321.553 Q51.8949 318.243 53.793 315.952 Q55.6912 313.66 59.0708 312.873 M57.3578 305.489 Q57.3578 308.174 59.0245 309.679 Q60.7143 311.183 63.7467 311.183 Q66.7559 311.183 68.4457 309.679 Q70.1587 308.174 70.1587 305.489 Q70.1587 302.804 68.4457 301.299 Q66.7559 299.794 63.7467 299.794 Q60.7143 299.794 59.0245 301.299 Q57.3578 302.804 57.3578 305.489 Z" fill="#000000" fill-rule="nonzero" fill-opacity="1" /><path clip-path="url(#clip080)" d="M93.9086 299.794 Q90.2975 299.794 88.4688 303.359 Q86.6632 306.901 86.6632 314.03 Q86.6632 321.137 88.4688 324.702 Q90.2975 328.243 93.9086 328.243 Q97.5428 328.243 99.3483 324.702 Q101.177 321.137 101.177 314.03 Q101.177 306.901 99.3483 303.359 Q97.5428 299.794 93.9086 299.794 M93.9086 296.091 Q99.7187 296.091 102.774 300.697 Q105.853 305.28 105.853 314.03 Q105.853 322.757 102.774 327.364 Q99.7187 331.947 93.9086 331.947 Q88.0984 331.947 85.0197 327.364 Q81.9642 322.757 81.9642 314.03 Q81.9642 305.28 85.0197 300.697 Q88.0984 296.091 93.9086 296.091 Z" fill="#000000" fill-rule="nonzero" fill-opacity="1" /><path clip-path="url(#clip080)" d="M1039.72 12.096 L1047.9 12.096 L1047.9 36.8875 L1077.63 36.8875 L1077.63 12.096 L1085.82 12.096 L1085.82 72.576 L1077.63 72.576 L1077.63 43.7741 L1047.9 43.7741 L1047.9 72.576 L1039.72 72.576 L1039.72 12.096 Z" fill="#000000" fill-rule="nonzero" fill-opacity="1" /><path clip-path="url(#clip080)" d="M1101.78 27.2059 L1109.23 27.2059 L1109.23 72.576 L1101.78 72.576 L1101.78 27.2059 M1101.78 9.54393 L1109.23 9.54393 L1109.23 18.9825 L1101.78 18.9825 L1101.78 9.54393 Z" fill="#000000" fill-rule="nonzero" fill-opacity="1" /><path clip-path="url(#clip080)" d="M1153.75 28.5427 L1153.75 35.5912 Q1150.59 33.9709 1147.19 33.1607 Q1143.78 32.3505 1140.14 32.3505 Q1134.59 32.3505 1131.79 34.0519 Q1129.04 35.7533 1129.04 39.156 Q1129.04 41.7486 1131.02 43.2475 Q1133.01 44.7058 1139 46.0426 L1141.56 46.6097 Q1149.5 48.3111 1152.82 51.4303 Q1156.18 54.509 1156.18 60.0587 Q1156.18 66.3781 1151.16 70.0644 Q1146.17 73.7508 1137.42 73.7508 Q1133.78 73.7508 1129.81 73.0216 Q1125.88 72.3329 1121.5 70.9151 L1121.5 63.2184 Q1125.64 65.3654 1129.65 66.4591 Q1133.66 67.5124 1137.59 67.5124 Q1142.85 67.5124 1145.69 65.73 Q1148.52 63.9071 1148.52 60.6258 Q1148.52 57.5877 1146.46 55.9673 Q1144.43 54.3469 1137.5 52.8481 L1134.91 52.2405 Q1127.99 50.7821 1124.91 47.7845 Q1121.83 44.7463 1121.83 39.4801 Q1121.83 33.0797 1126.36 29.5959 Q1130.9 26.1121 1139.25 26.1121 Q1143.38 26.1121 1147.02 26.7198 Q1150.67 27.3274 1153.75 28.5427 Z" fill="#000000" fill-rule="nonzero" fill-opacity="1" /><path clip-path="url(#clip080)" d="M1175.42 14.324 L1175.42 27.2059 L1190.77 27.2059 L1190.77 32.9987 L1175.42 32.9987 L1175.42 57.6282 Q1175.42 63.1779 1176.92 64.7578 Q1178.46 66.3376 1183.12 66.3376 L1190.77 66.3376 L1190.77 72.576 L1183.12 72.576 Q1174.49 72.576 1171.21 69.3758 Q1167.93 66.1351 1167.93 57.6282 L1167.93 32.9987 L1162.46 32.9987 L1162.46 27.2059 L1167.93 27.2059 L1167.93 14.324 L1175.42 14.324 Z" fill="#000000" fill-rule="nonzero" fill-opacity="1" /><path clip-path="url(#clip080)" d="M1218.16 32.4315 Q1212.16 32.4315 1208.68 37.1306 Q1205.2 41.7891 1205.2 49.9314 Q1205.2 58.0738 1208.64 62.7728 Q1212.12 67.4314 1218.16 67.4314 Q1224.11 67.4314 1227.6 62.7323 Q1231.08 58.0333 1231.08 49.9314 Q1231.08 41.8701 1227.6 37.1711 Q1224.11 32.4315 1218.16 32.4315 M1218.16 26.1121 Q1227.88 26.1121 1233.43 32.4315 Q1238.98 38.7509 1238.98 49.9314 Q1238.98 61.0714 1233.43 67.4314 Q1227.88 73.7508 1218.16 73.7508 Q1208.4 73.7508 1202.85 67.4314 Q1197.34 61.0714 1197.34 49.9314 Q1197.34 38.7509 1202.85 32.4315 Q1208.4 26.1121 1218.16 26.1121 Z" fill="#000000" fill-rule="nonzero" fill-opacity="1" /><path clip-path="url(#clip080)" d="M1281.19 49.3643 Q1281.19 41.2625 1277.83 36.8065 Q1274.51 32.3505 1268.47 32.3505 Q1262.48 32.3505 1259.11 36.8065 Q1255.79 41.2625 1255.79 49.3643 Q1255.79 57.4256 1259.11 61.8816 Q1262.48 66.3376 1268.47 66.3376 Q1274.51 66.3376 1277.83 61.8816 Q1281.19 57.4256 1281.19 49.3643 M1288.64 66.9452 Q1288.64 78.5308 1283.5 84.1616 Q1278.35 89.8329 1267.74 89.8329 Q1263.81 89.8329 1260.33 89.2252 Q1256.84 88.6581 1253.56 87.4428 L1253.56 80.1917 Q1256.84 81.9741 1260.04 82.8248 Q1263.24 83.6755 1266.57 83.6755 Q1273.9 83.6755 1277.54 79.8271 Q1281.19 76.0193 1281.19 68.282 L1281.19 64.5957 Q1278.88 68.6061 1275.28 70.5911 Q1271.67 72.576 1266.65 72.576 Q1258.3 72.576 1253.2 66.2161 Q1248.09 59.8562 1248.09 49.3643 Q1248.09 38.832 1253.2 32.472 Q1258.3 26.1121 1266.65 26.1121 Q1271.67 26.1121 1275.28 28.0971 Q1278.88 30.082 1281.19 34.0924 L1281.19 27.2059 L1288.64 27.2059 L1288.64 66.9452 Z" fill="#000000" fill-rule="nonzero" fill-opacity="1" /><path clip-path="url(#clip080)" d="M1330.29 34.1734 Q1329.03 33.4443 1327.53 33.1202 Q1326.07 32.7556 1324.29 32.7556 Q1317.97 32.7556 1314.57 36.8875 Q1311.21 40.9789 1311.21 48.6757 L1311.21 72.576 L1303.71 72.576 L1303.71 27.2059 L1311.21 27.2059 L1311.21 34.2544 Q1313.56 30.1225 1317.32 28.1376 Q1321.09 26.1121 1326.48 26.1121 Q1327.25 26.1121 1328.18 26.2337 Q1329.11 26.3147 1330.25 26.5172 L1330.29 34.1734 Z" fill="#000000" fill-rule="nonzero" fill-opacity="1" /><path clip-path="url(#clip080)" d="M1358.72 49.7694 Q1349.69 49.7694 1346.21 51.8354 Q1342.72 53.9013 1342.72 58.8839 Q1342.72 62.8538 1345.32 65.2034 Q1347.95 67.5124 1352.45 67.5124 Q1358.64 67.5124 1362.37 63.1374 Q1366.14 58.7219 1366.14 51.4303 L1366.14 49.7694 L1358.72 49.7694 M1373.59 46.6907 L1373.59 72.576 L1366.14 72.576 L1366.14 65.6895 Q1363.59 69.8214 1359.78 71.8063 Q1355.97 73.7508 1350.46 73.7508 Q1343.49 73.7508 1339.36 69.8619 Q1335.27 65.9325 1335.27 59.3701 Q1335.27 51.7138 1340.37 47.825 Q1345.52 43.9361 1355.69 43.9361 L1366.14 43.9361 L1366.14 43.2069 Q1366.14 38.0623 1362.73 35.2672 Q1359.37 32.4315 1353.26 32.4315 Q1349.37 32.4315 1345.68 33.3632 Q1341.99 34.295 1338.59 36.1584 L1338.59 29.2718 Q1342.68 27.692 1346.53 26.9223 Q1350.38 26.1121 1354.03 26.1121 Q1363.87 26.1121 1368.73 31.2163 Q1373.59 36.3204 1373.59 46.6907 Z" fill="#000000" fill-rule="nonzero" fill-opacity="1" /><path clip-path="url(#clip080)" d="M1424.27 35.9153 Q1427.06 30.8922 1430.95 28.5022 Q1434.84 26.1121 1440.11 26.1121 Q1447.2 26.1121 1451.04 31.0947 Q1454.89 36.0368 1454.89 45.1919 L1454.89 72.576 L1447.4 72.576 L1447.4 45.4349 Q1447.4 38.913 1445.09 35.7533 Q1442.78 32.5936 1438.04 32.5936 Q1432.25 32.5936 1428.89 36.4419 Q1425.52 40.2903 1425.52 46.9338 L1425.52 72.576 L1418.03 72.576 L1418.03 45.4349 Q1418.03 38.8725 1415.72 35.7533 Q1413.41 32.5936 1408.59 32.5936 Q1402.88 32.5936 1399.52 36.4824 Q1396.15 40.3308 1396.15 46.9338 L1396.15 72.576 L1388.66 72.576 L1388.66 27.2059 L1396.15 27.2059 L1396.15 34.2544 Q1398.71 30.082 1402.27 28.0971 Q1405.84 26.1121 1410.74 26.1121 Q1415.68 26.1121 1419.12 28.6237 Q1422.61 31.1352 1424.27 35.9153 Z" fill="#000000" fill-rule="nonzero" fill-opacity="1" /><path clip-path="url(#clip082)" d="M263.457 1442.48 L263.457 1486.45 L321.33 1486.45 L321.33 1442.48 L263.457 1442.48 L263.457 1442.48  Z" fill="#009af9" fill-rule="evenodd" fill-opacity="1"/>
<polyline clip-path="url(#clip082)" style="stroke:#000000; stroke-linecap:round; stroke-linejoin:round; stroke-width:4; stroke-opacity:1; fill:none" points="263.457,1442.48 263.457,1486.45 321.33,1486.45 321.33,1442.48 263.457,1442.48 "/>
<path clip-path="url(#clip082)" d="M321.33 1486.45 L321.33 1486.45 L379.203 1486.45 L379.203 1486.45 L321.33 1486.45 L321.33 1486.45  Z" fill="#009af9" fill-rule="evenodd" fill-opacity="1"/>
<polyline clip-path="url(#clip082)" style="stroke:#000000; stroke-linecap:round; stroke-linejoin:round; stroke-width:4; stroke-opacity:1; fill:none" points="321.33,1486.45 321.33,1486.45 379.203,1486.45 321.33,1486.45 "/>
<path clip-path="url(#clip082)" d="M379.203 1471.79 L379.203 1486.45 L437.077 1486.45 L437.077 1471.79 L379.203 1471.79 L379.203 1471.79  Z" fill="#009af9" fill-rule="evenodd" fill-opacity="1"/>
<polyline clip-path="url(#clip082)" style="stroke:#000000; stroke-linecap:round; stroke-linejoin:round; stroke-width:4; stroke-opacity:1; fill:none" points="379.203,1471.79 379.203,1486.45 437.077,1486.45 437.077,1471.79 379.203,1471.79 "/>
<path clip-path="url(#clip082)" d="M437.077 1457.14 L437.077 1486.45 L494.95 1486.45 L494.95 1457.14 L437.077 1457.14 L437.077 1457.14  Z" fill="#009af9" fill-rule="evenodd" fill-opacity="1"/>
<polyline clip-path="url(#clip082)" style="stroke:#000000; stroke-linecap:round; stroke-linejoin:round; stroke-width:4; stroke-opacity:1; fill:none" points="437.077,1457.14 437.077,1486.45 494.95,1486.45 494.95,1457.14 437.077,1457.14 "/>
<path clip-path="url(#clip082)" d="M494.95 1442.48 L494.95 1486.45 L552.824 1486.45 L552.824 1442.48 L494.95 1442.48 L494.95 1442.48  Z" fill="#009af9" fill-rule="evenodd" fill-opacity="1"/>
<polyline clip-path="url(#clip082)" style="stroke:#000000; stroke-linecap:round; stroke-linejoin:round; stroke-width:4; stroke-opacity:1; fill:none" points="494.95,1442.48 494.95,1486.45 552.824,1486.45 552.824,1442.48 494.95,1442.48 "/>
<path clip-path="url(#clip082)" d="M552.824 1281.27 L552.824 1486.45 L610.697 1486.45 L610.697 1281.27 L552.824 1281.27 L552.824 1281.27  Z" fill="#009af9" fill-rule="evenodd" fill-opacity="1"/>
<polyline clip-path="url(#clip082)" style="stroke:#000000; stroke-linecap:round; stroke-linejoin:round; stroke-width:4; stroke-opacity:1; fill:none" points="552.824,1281.27 552.824,1486.45 610.697,1486.45 610.697,1281.27 552.824,1281.27 "/>
<path clip-path="url(#clip082)" d="M610.697 1266.61 L610.697 1486.45 L668.57 1486.45 L668.57 1266.61 L610.697 1266.61 L610.697 1266.61  Z" fill="#009af9" fill-rule="evenodd" fill-opacity="1"/>
<polyline clip-path="url(#clip082)" style="stroke:#000000; stroke-linecap:round; stroke-linejoin:round; stroke-width:4; stroke-opacity:1; fill:none" points="610.697,1266.61 610.697,1486.45 668.57,1486.45 668.57,1266.61 610.697,1266.61 "/>
<path clip-path="url(#clip082)" d="M668.57 1251.96 L668.57 1486.45 L726.444 1486.45 L726.444 1251.96 L668.57 1251.96 L668.57 1251.96  Z" fill="#009af9" fill-rule="evenodd" fill-opacity="1"/>
<polyline clip-path="url(#clip082)" style="stroke:#000000; stroke-linecap:round; stroke-linejoin:round; stroke-width:4; stroke-opacity:1; fill:none" points="668.57,1251.96 668.57,1486.45 726.444,1486.45 726.444,1251.96 668.57,1251.96 "/>
<path clip-path="url(#clip082)" d="M726.444 1076.09 L726.444 1486.45 L784.317 1486.45 L784.317 1076.09 L726.444 1076.09 L726.444 1076.09  Z" fill="#009af9" fill-rule="evenodd" fill-opacity="1"/>
<polyline clip-path="url(#clip082)" style="stroke:#000000; stroke-linecap:round; stroke-linejoin:round; stroke-width:4; stroke-opacity:1; fill:none" points="726.444,1076.09 726.444,1486.45 784.317,1486.45 784.317,1076.09 726.444,1076.09 "/>
<path clip-path="url(#clip082)" d="M784.317 1090.75 L784.317 1486.45 L842.191 1486.45 L842.191 1090.75 L784.317 1090.75 L784.317 1090.75  Z" fill="#009af9" fill-rule="evenodd" fill-opacity="1"/>
<polyline clip-path="url(#clip082)" style="stroke:#000000; stroke-linecap:round; stroke-linejoin:round; stroke-width:4; stroke-opacity:1; fill:none" points="784.317,1090.75 784.317,1486.45 842.191,1486.45 842.191,1090.75 784.317,1090.75 "/>
<path clip-path="url(#clip082)" d="M842.191 900.222 L842.191 1486.45 L900.064 1486.45 L900.064 900.222 L842.191 900.222 L842.191 900.222  Z" fill="#009af9" fill-rule="evenodd" fill-opacity="1"/>
<polyline clip-path="url(#clip082)" style="stroke:#000000; stroke-linecap:round; stroke-linejoin:round; stroke-width:4; stroke-opacity:1; fill:none" points="842.191,900.222 842.191,1486.45 900.064,1486.45 900.064,900.222 842.191,900.222 "/>
<path clip-path="url(#clip082)" d="M900.064 533.83 L900.064 1486.45 L957.937 1486.45 L957.937 533.83 L900.064 533.83 L900.064 533.83  Z" fill="#009af9" fill-rule="evenodd" fill-opacity="1"/>
<polyline clip-path="url(#clip082)" style="stroke:#000000; stroke-linecap:round; stroke-linejoin:round; stroke-width:4; stroke-opacity:1; fill:none" points="900.064,533.83 900.064,1486.45 957.937,1486.45 957.937,533.83 900.064,533.83 "/>
<path clip-path="url(#clip082)" d="M957.937 724.354 L957.937 1486.45 L1015.81 1486.45 L1015.81 724.354 L957.937 724.354 L957.937 724.354  Z" fill="#009af9" fill-rule="evenodd" fill-opacity="1"/>
<polyline clip-path="url(#clip082)" style="stroke:#000000; stroke-linecap:round; stroke-linejoin:round; stroke-width:4; stroke-opacity:1; fill:none" points="957.937,724.354 957.937,1486.45 1015.81,1486.45 1015.81,724.354 957.937,724.354 "/>
<path clip-path="url(#clip082)" d="M1015.81 387.274 L1015.81 1486.45 L1073.68 1486.45 L1073.68 387.274 L1015.81 387.274 L1015.81 387.274  Z" fill="#009af9" fill-rule="evenodd" fill-opacity="1"/>
<polyline clip-path="url(#clip082)" style="stroke:#000000; stroke-linecap:round; stroke-linejoin:round; stroke-width:4; stroke-opacity:1; fill:none" points="1015.81,387.274 1015.81,1486.45 1073.68,1486.45 1073.68,387.274 1015.81,387.274 "/>
<path clip-path="url(#clip082)" d="M1073.68 372.618 L1073.68 1486.45 L1131.56 1486.45 L1131.56 372.618 L1073.68 372.618 L1073.68 372.618  Z" fill="#009af9" fill-rule="evenodd" fill-opacity="1"/>
<polyline clip-path="url(#clip082)" style="stroke:#000000; stroke-linecap:round; stroke-linejoin:round; stroke-width:4; stroke-opacity:1; fill:none" points="1073.68,372.618 1073.68,1486.45 1131.56,1486.45 1131.56,372.618 1073.68,372.618 "/>
<path clip-path="url(#clip082)" d="M1131.56 196.75 L1131.56 1486.45 L1189.43 1486.45 L1189.43 196.75 L1131.56 196.75 L1131.56 196.75  Z" fill="#009af9" fill-rule="evenodd" fill-opacity="1"/>
<polyline clip-path="url(#clip082)" style="stroke:#000000; stroke-linecap:round; stroke-linejoin:round; stroke-width:4; stroke-opacity:1; fill:none" points="1131.56,196.75 1131.56,1486.45 1189.43,1486.45 1189.43,196.75 1131.56,196.75 "/>
<path clip-path="url(#clip082)" d="M1189.43 445.896 L1189.43 1486.45 L1247.3 1486.45 L1247.3 445.896 L1189.43 445.896 L1189.43 445.896  Z" fill="#009af9" fill-rule="evenodd" fill-opacity="1"/>
<polyline clip-path="url(#clip082)" style="stroke:#000000; stroke-linecap:round; stroke-linejoin:round; stroke-width:4; stroke-opacity:1; fill:none" points="1189.43,445.896 1189.43,1486.45 1247.3,1486.45 1247.3,445.896 1189.43,445.896 "/>
<path clip-path="url(#clip082)" d="M1247.3 123.472 L1247.3 1486.45 L1305.18 1486.45 L1305.18 123.472 L1247.3 123.472 L1247.3 123.472  Z" fill="#009af9" fill-rule="evenodd" fill-opacity="1"/>
<polyline clip-path="url(#clip082)" style="stroke:#000000; stroke-linecap:round; stroke-linejoin:round; stroke-width:4; stroke-opacity:1; fill:none" points="1247.3,123.472 1247.3,1486.45 1305.18,1486.45 1305.18,123.472 1247.3,123.472 "/>
<path clip-path="url(#clip082)" d="M1305.18 460.552 L1305.18 1486.45 L1363.05 1486.45 L1363.05 460.552 L1305.18 460.552 L1305.18 460.552  Z" fill="#009af9" fill-rule="evenodd" fill-opacity="1"/>
<polyline clip-path="url(#clip082)" style="stroke:#000000; stroke-linecap:round; stroke-linejoin:round; stroke-width:4; stroke-opacity:1; fill:none" points="1305.18,460.552 1305.18,1486.45 1363.05,1486.45 1363.05,460.552 1305.18,460.552 "/>
<path clip-path="url(#clip082)" d="M1363.05 577.797 L1363.05 1486.45 L1420.92 1486.45 L1420.92 577.797 L1363.05 577.797 L1363.05 577.797  Z" fill="#009af9" fill-rule="evenodd" fill-opacity="1"/>
<polyline clip-path="url(#clip082)" style="stroke:#000000; stroke-linecap:round; stroke-linejoin:round; stroke-width:4; stroke-opacity:1; fill:none" points="1363.05,577.797 1363.05,1486.45 1420.92,1486.45 1420.92,577.797 1363.05,577.797 "/>
<path clip-path="url(#clip082)" d="M1420.92 797.632 L1420.92 1486.45 L1478.8 1486.45 L1478.8 797.632 L1420.92 797.632 L1420.92 797.632  Z" fill="#009af9" fill-rule="evenodd" fill-opacity="1"/>
<polyline clip-path="url(#clip082)" style="stroke:#000000; stroke-linecap:round; stroke-linejoin:round; stroke-width:4; stroke-opacity:1; fill:none" points="1420.92,797.632 1420.92,1486.45 1478.8,1486.45 1478.8,797.632 1420.92,797.632 "/>
<path clip-path="url(#clip082)" d="M1478.8 973.5 L1478.8 1486.45 L1536.67 1486.45 L1536.67 973.5 L1478.8 973.5 L1478.8 973.5  Z" fill="#009af9" fill-rule="evenodd" fill-opacity="1"/>
<polyline clip-path="url(#clip082)" style="stroke:#000000; stroke-linecap:round; stroke-linejoin:round; stroke-width:4; stroke-opacity:1; fill:none" points="1478.8,973.5 1478.8,1486.45 1536.67,1486.45 1536.67,973.5 1478.8,973.5 "/>
<path clip-path="url(#clip082)" d="M1536.67 958.844 L1536.67 1486.45 L1594.54 1486.45 L1594.54 958.844 L1536.67 958.844 L1536.67 958.844  Z" fill="#009af9" fill-rule="evenodd" fill-opacity="1"/>
<polyline clip-path="url(#clip082)" style="stroke:#000000; stroke-linecap:round; stroke-linejoin:round; stroke-width:4; stroke-opacity:1; fill:none" points="1536.67,958.844 1536.67,1486.45 1594.54,1486.45 1594.54,958.844 1536.67,958.844 "/>
<path clip-path="url(#clip082)" d="M1594.54 1105.4 L1594.54 1486.45 L1652.42 1486.45 L1652.42 1105.4 L1594.54 1105.4 L1594.54 1105.4  Z" fill="#009af9" fill-rule="evenodd" fill-opacity="1"/>
<polyline clip-path="url(#clip082)" style="stroke:#000000; stroke-linecap:round; stroke-linejoin:round; stroke-width:4; stroke-opacity:1; fill:none" points="1594.54,1105.4 1594.54,1486.45 1652.42,1486.45 1652.42,1105.4 1594.54,1105.4 "/>
<path clip-path="url(#clip082)" d="M1652.42 1178.68 L1652.42 1486.45 L1710.29 1486.45 L1710.29 1178.68 L1652.42 1178.68 L1652.42 1178.68  Z" fill="#009af9" fill-rule="evenodd" fill-opacity="1"/>
<polyline clip-path="url(#clip082)" style="stroke:#000000; stroke-linecap:round; stroke-linejoin:round; stroke-width:4; stroke-opacity:1; fill:none" points="1652.42,1178.68 1652.42,1486.45 1710.29,1486.45 1710.29,1178.68 1652.42,1178.68 "/>
<path clip-path="url(#clip082)" d="M1710.29 1222.65 L1710.29 1486.45 L1768.17 1486.45 L1768.17 1222.65 L1710.29 1222.65 L1710.29 1222.65  Z" fill="#009af9" fill-rule="evenodd" fill-opacity="1"/>
<polyline clip-path="url(#clip082)" style="stroke:#000000; stroke-linecap:round; stroke-linejoin:round; stroke-width:4; stroke-opacity:1; fill:none" points="1710.29,1222.65 1710.29,1486.45 1768.17,1486.45 1768.17,1222.65 1710.29,1222.65 "/>
<path clip-path="url(#clip082)" d="M1768.17 1413.17 L1768.17 1486.45 L1826.04 1486.45 L1826.04 1413.17 L1768.17 1413.17 L1768.17 1413.17  Z" fill="#009af9" fill-rule="evenodd" fill-opacity="1"/>
<polyline clip-path="url(#clip082)" style="stroke:#000000; stroke-linecap:round; stroke-linejoin:round; stroke-width:4; stroke-opacity:1; fill:none" points="1768.17,1413.17 1768.17,1486.45 1826.04,1486.45 1826.04,1413.17 1768.17,1413.17 "/>
<path clip-path="url(#clip082)" d="M1826.04 1383.86 L1826.04 1486.45 L1883.91 1486.45 L1883.91 1383.86 L1826.04 1383.86 L1826.04 1383.86  Z" fill="#009af9" fill-rule="evenodd" fill-opacity="1"/>
<polyline clip-path="url(#clip082)" style="stroke:#000000; stroke-linecap:round; stroke-linejoin:round; stroke-width:4; stroke-opacity:1; fill:none" points="1826.04,1383.86 1826.04,1486.45 1883.91,1486.45 1883.91,1383.86 1826.04,1383.86 "/>
<path clip-path="url(#clip082)" d="M1883.91 1471.79 L1883.91 1486.45 L1941.79 1486.45 L1941.79 1471.79 L1883.91 1471.79 L1883.91 1471.79  Z" fill="#009af9" fill-rule="evenodd" fill-opacity="1"/>
<polyline clip-path="url(#clip082)" style="stroke:#000000; stroke-linecap:round; stroke-linejoin:round; stroke-width:4; stroke-opacity:1; fill:none" points="1883.91,1471.79 1883.91,1486.45 1941.79,1486.45 1941.79,1471.79 1883.91,1471.79 "/>
<path clip-path="url(#clip082)" d="M1941.79 1486.45 L1941.79 1486.45 L1999.66 1486.45 L1999.66 1486.45 L1941.79 1486.45 L1941.79 1486.45  Z" fill="#009af9" fill-rule="evenodd" fill-opacity="1"/>
<polyline clip-path="url(#clip082)" style="stroke:#000000; stroke-linecap:round; stroke-linejoin:round; stroke-width:4; stroke-opacity:1; fill:none" points="1941.79,1486.45 1941.79,1486.45 1999.66,1486.45 1941.79,1486.45 "/>
<path clip-path="url(#clip082)" d="M1999.66 1471.79 L1999.66 1486.45 L2057.53 1486.45 L2057.53 1471.79 L1999.66 1471.79 L1999.66 1471.79  Z" fill="#009af9" fill-rule="evenodd" fill-opacity="1"/>
<polyline clip-path="url(#clip082)" style="stroke:#000000; stroke-linecap:round; stroke-linejoin:round; stroke-width:4; stroke-opacity:1; fill:none" points="1999.66,1471.79 1999.66,1486.45 2057.53,1486.45 2057.53,1471.79 1999.66,1471.79 "/>
<path clip-path="url(#clip082)" d="M2057.53 1471.79 L2057.53 1486.45 L2115.41 1486.45 L2115.41 1471.79 L2057.53 1471.79 L2057.53 1471.79  Z" fill="#009af9" fill-rule="evenodd" fill-opacity="1"/>
<polyline clip-path="url(#clip082)" style="stroke:#000000; stroke-linecap:round; stroke-linejoin:round; stroke-width:4; stroke-opacity:1; fill:none" points="2057.53,1471.79 2057.53,1486.45 2115.41,1486.45 2115.41,1471.79 2057.53,1471.79 "/>
<path clip-path="url(#clip082)" d="M2115.41 1486.45 L2115.41 1486.45 L2173.28 1486.45 L2173.28 1486.45 L2115.41 1486.45 L2115.41 1486.45  Z" fill="#009af9" fill-rule="evenodd" fill-opacity="1"/>
<polyline clip-path="url(#clip082)" style="stroke:#000000; stroke-linecap:round; stroke-linejoin:round; stroke-width:4; stroke-opacity:1; fill:none" points="2115.41,1486.45 2115.41,1486.45 2173.28,1486.45 2115.41,1486.45 "/>
<path clip-path="url(#clip082)" d="M2173.28 1471.79 L2173.28 1486.45 L2231.15 1486.45 L2231.15 1471.79 L2173.28 1471.79 L2173.28 1471.79  Z" fill="#009af9" fill-rule="evenodd" fill-opacity="1"/>
<polyline clip-path="url(#clip082)" style="stroke:#000000; stroke-linecap:round; stroke-linejoin:round; stroke-width:4; stroke-opacity:1; fill:none" points="2173.28,1471.79 2173.28,1486.45 2231.15,1486.45 2231.15,1471.79 2173.28,1471.79 "/>
<circle clip-path="url(#clip082)" style="fill:#009af9; stroke:none; fill-opacity:0" cx="292.393" cy="1442.48" r="2"/>
<circle clip-path="url(#clip082)" style="fill:#009af9; stroke:none; fill-opacity:0" cx="350.267" cy="1486.45" r="2"/>
<circle clip-path="url(#clip082)" style="fill:#009af9; stroke:none; fill-opacity:0" cx="408.14" cy="1471.79" r="2"/>
<circle clip-path="url(#clip082)" style="fill:#009af9; stroke:none; fill-opacity:0" cx="466.013" cy="1457.14" r="2"/>
<circle clip-path="url(#clip082)" style="fill:#009af9; stroke:none; fill-opacity:0" cx="523.887" cy="1442.48" r="2"/>
<circle clip-path="url(#clip082)" style="fill:#009af9; stroke:none; fill-opacity:0" cx="581.76" cy="1281.27" r="2"/>
<circle clip-path="url(#clip082)" style="fill:#009af9; stroke:none; fill-opacity:0" cx="639.634" cy="1266.61" r="2"/>
<circle clip-path="url(#clip082)" style="fill:#009af9; stroke:none; fill-opacity:0" cx="697.507" cy="1251.96" r="2"/>
<circle clip-path="url(#clip082)" style="fill:#009af9; stroke:none; fill-opacity:0" cx="755.38" cy="1076.09" r="2"/>
<circle clip-path="url(#clip082)" style="fill:#009af9; stroke:none; fill-opacity:0" cx="813.254" cy="1090.75" r="2"/>
<circle clip-path="url(#clip082)" style="fill:#009af9; stroke:none; fill-opacity:0" cx="871.127" cy="900.222" r="2"/>
<circle clip-path="url(#clip082)" style="fill:#009af9; stroke:none; fill-opacity:0" cx="929.001" cy="533.83" r="2"/>
<circle clip-path="url(#clip082)" style="fill:#009af9; stroke:none; fill-opacity:0" cx="986.874" cy="724.354" r="2"/>
<circle clip-path="url(#clip082)" style="fill:#009af9; stroke:none; fill-opacity:0" cx="1044.75" cy="387.274" r="2"/>
<circle clip-path="url(#clip082)" style="fill:#009af9; stroke:none; fill-opacity:0" cx="1102.62" cy="372.618" r="2"/>
<circle clip-path="url(#clip082)" style="fill:#009af9; stroke:none; fill-opacity:0" cx="1160.49" cy="196.75" r="2"/>
<circle clip-path="url(#clip082)" style="fill:#009af9; stroke:none; fill-opacity:0" cx="1218.37" cy="445.896" r="2"/>
<circle clip-path="url(#clip082)" style="fill:#009af9; stroke:none; fill-opacity:0" cx="1276.24" cy="123.472" r="2"/>
<circle clip-path="url(#clip082)" style="fill:#009af9; stroke:none; fill-opacity:0" cx="1334.11" cy="460.552" r="2"/>
<circle clip-path="url(#clip082)" style="fill:#009af9; stroke:none; fill-opacity:0" cx="1391.99" cy="577.797" r="2"/>
<circle clip-path="url(#clip082)" style="fill:#009af9; stroke:none; fill-opacity:0" cx="1449.86" cy="797.632" r="2"/>
<circle clip-path="url(#clip082)" style="fill:#009af9; stroke:none; fill-opacity:0" cx="1507.73" cy="973.5" r="2"/>
<circle clip-path="url(#clip082)" style="fill:#009af9; stroke:none; fill-opacity:0" cx="1565.61" cy="958.844" r="2"/>
<circle clip-path="url(#clip082)" style="fill:#009af9; stroke:none; fill-opacity:0" cx="1623.48" cy="1105.4" r="2"/>
<circle clip-path="url(#clip082)" style="fill:#009af9; stroke:none; fill-opacity:0" cx="1681.35" cy="1178.68" r="2"/>
<circle clip-path="url(#clip082)" style="fill:#009af9; stroke:none; fill-opacity:0" cx="1739.23" cy="1222.65" r="2"/>
<circle clip-path="url(#clip082)" style="fill:#009af9; stroke:none; fill-opacity:0" cx="1797.1" cy="1413.17" r="2"/>
<circle clip-path="url(#clip082)" style="fill:#009af9; stroke:none; fill-opacity:0" cx="1854.98" cy="1383.86" r="2"/>
<circle clip-path="url(#clip082)" style="fill:#009af9; stroke:none; fill-opacity:0" cx="1912.85" cy="1471.79" r="2"/>
<circle clip-path="url(#clip082)" style="fill:#009af9; stroke:none; fill-opacity:0" cx="1970.72" cy="1486.45" r="2"/>
<circle clip-path="url(#clip082)" style="fill:#009af9; stroke:none; fill-opacity:0" cx="2028.6" cy="1471.79" r="2"/>
<circle clip-path="url(#clip082)" style="fill:#009af9; stroke:none; fill-opacity:0" cx="2086.47" cy="1471.79" r="2"/>
<circle clip-path="url(#clip082)" style="fill:#009af9; stroke:none; fill-opacity:0" cx="2144.34" cy="1486.45" r="2"/>
<circle clip-path="url(#clip082)" style="fill:#009af9; stroke:none; fill-opacity:0" cx="2202.22" cy="1471.79" r="2"/>
<path clip-path="url(#clip080)" d="M2005.54 272.585 L2279.06 272.585 L2279.06 168.905 L2005.54 168.905  Z" fill="#ffffff" fill-rule="evenodd" fill-opacity="1"/>
<polyline clip-path="url(#clip080)" style="stroke:#000000; stroke-linecap:round; stroke-linejoin:round; stroke-width:4; stroke-opacity:1; fill:none" points="2005.54,272.585 2279.06,272.585 2279.06,168.905 2005.54,168.905 2005.54,272.585 "/>
<path clip-path="url(#clip080)" d="M2030.1 241.481 L2177.5 241.481 L2177.5 200.009 L2030.1 200.009 L2030.1 241.481  Z" fill="#009af9" fill-rule="evenodd" fill-opacity="1"/>
<polyline clip-path="url(#clip080)" style="stroke:#000000; stroke-linecap:round; stroke-linejoin:round; stroke-width:4; stroke-opacity:1; fill:none" points="2030.1,241.481 2177.5,241.481 2177.5,200.009 2030.1,200.009 2030.1,241.481 "/>
<path clip-path="url(#clip080)" d="M2215.91 240.432 Q2214.1 245.062 2212.39 246.474 Q2210.67 247.886 2207.8 247.886 L2204.4 247.886 L2204.4 244.321 L2206.9 244.321 Q2208.66 244.321 2209.63 243.488 Q2210.6 242.654 2211.79 239.552 L2212.55 237.608 L2202.06 212.099 L2206.58 212.099 L2214.68 232.377 L2222.78 212.099 L2227.29 212.099 L2215.91 240.432 Z" fill="#000000" fill-rule="nonzero" fill-opacity="1" /><path clip-path="url(#clip080)" d="M2234.59 234.089 L2242.23 234.089 L2242.23 207.724 L2233.91 209.391 L2233.91 205.131 L2242.18 203.465 L2246.85 203.465 L2246.85 234.089 L2254.49 234.089 L2254.49 238.025 L2234.59 238.025 L2234.59 234.089 Z" fill="#000000" fill-rule="nonzero" fill-opacity="1" /></svg>
