<?xml version="1.0" encoding="utf-8"?>
<svg xmlns="http://www.w3.org/2000/svg" xmlns:xlink="http://www.w3.org/1999/xlink" width="600" height="400" viewBox="0 0 2400 1600">
<defs>
  <clipPath id="clip990">
    <rect x="0" y="0" width="2400" height="1600"/>
  </clipPath>
</defs>
<path clip-path="url(#clip990)" d="M0 1600 L2400 1600 L2400 0 L0 0  Z" fill="#ffffff" fill-rule="evenodd" fill-opacity="1"/>
<defs>
  <clipPath id="clip991">
    <rect x="480" y="0" width="1681" height="1600"/>
  </clipPath>
</defs>
<path clip-path="url(#clip990)" d="M193.936 1486.45 L2352.76 1486.45 L2352.76 123.472 L193.936 123.472  Z" fill="#ffffff" fill-rule="evenodd" fill-opacity="1"/>
<defs>
  <clipPath id="clip992">
    <rect x="193" y="123" width="2160" height="1364"/>
  </clipPath>
</defs>
<polyline clip-path="url(#clip992)" style="stroke:#000000; stroke-linecap:round; stroke-linejoin:round; stroke-width:2; stroke-opacity:0.1; fill:none" points="255.035,1486.45 255.035,123.472 "/>
<polyline clip-path="url(#clip992)" style="stroke:#000000; stroke-linecap:round; stroke-linejoin:round; stroke-width:2; stroke-opacity:0.1; fill:none" points="764.19,1486.45 764.19,123.472 "/>
<polyline clip-path="url(#clip992)" style="stroke:#000000; stroke-linecap:round; stroke-linejoin:round; stroke-width:2; stroke-opacity:0.1; fill:none" points="1273.35,1486.45 1273.35,123.472 "/>
<polyline clip-path="url(#clip992)" style="stroke:#000000; stroke-linecap:round; stroke-linejoin:round; stroke-width:2; stroke-opacity:0.1; fill:none" points="1782.5,1486.45 1782.5,123.472 "/>
<polyline clip-path="url(#clip992)" style="stroke:#000000; stroke-linecap:round; stroke-linejoin:round; stroke-width:2; stroke-opacity:0.1; fill:none" points="2291.66,1486.45 2291.66,123.472 "/>
<polyline clip-path="url(#clip992)" style="stroke:#000000; stroke-linecap:round; stroke-linejoin:round; stroke-width:2; stroke-opacity:0.1; fill:none" points="193.936,1447.92 2352.76,1447.92 "/>
<polyline clip-path="url(#clip992)" style="stroke:#000000; stroke-linecap:round; stroke-linejoin:round; stroke-width:2; stroke-opacity:0.1; fill:none" points="193.936,1126.39 2352.76,1126.39 "/>
<polyline clip-path="url(#clip992)" style="stroke:#000000; stroke-linecap:round; stroke-linejoin:round; stroke-width:2; stroke-opacity:0.1; fill:none" points="193.936,804.848 2352.76,804.848 "/>
<polyline clip-path="url(#clip992)" style="stroke:#000000; stroke-linecap:round; stroke-linejoin:round; stroke-width:2; stroke-opacity:0.1; fill:none" points="193.936,483.31 2352.76,483.31 "/>
<polyline clip-path="url(#clip992)" style="stroke:#000000; stroke-linecap:round; stroke-linejoin:round; stroke-width:2; stroke-opacity:0.1; fill:none" points="193.936,161.773 2352.76,161.773 "/>
<polyline clip-path="url(#clip990)" style="stroke:#000000; stroke-linecap:round; stroke-linejoin:round; stroke-width:4; stroke-opacity:1; fill:none" points="193.936,1486.45 2352.76,1486.45 "/>
<polyline clip-path="url(#clip990)" style="stroke:#000000; stroke-linecap:round; stroke-linejoin:round; stroke-width:4; stroke-opacity:1; fill:none" points="255.035,1486.45 255.035,1467.55 "/>
<polyline clip-path="url(#clip990)" style="stroke:#000000; stroke-linecap:round; stroke-linejoin:round; stroke-width:4; stroke-opacity:1; fill:none" points="764.19,1486.45 764.19,1467.55 "/>
<polyline clip-path="url(#clip990)" style="stroke:#000000; stroke-linecap:round; stroke-linejoin:round; stroke-width:4; stroke-opacity:1; fill:none" points="1273.35,1486.45 1273.35,1467.55 "/>
<polyline clip-path="url(#clip990)" style="stroke:#000000; stroke-linecap:round; stroke-linejoin:round; stroke-width:4; stroke-opacity:1; fill:none" points="1782.5,1486.45 1782.5,1467.55 "/>
<polyline clip-path="url(#clip990)" style="stroke:#000000; stroke-linecap:round; stroke-linejoin:round; stroke-width:4; stroke-opacity:1; fill:none" points="2291.66,1486.45 2291.66,1467.55 "/>
<path clip-path="url(#clip990)" d="M232.419 1517.37 Q228.808 1517.37 226.979 1520.93 Q225.174 1524.47 225.174 1531.6 Q225.174 1538.71 226.979 1542.27 Q228.808 1545.82 232.419 1545.82 Q236.053 1545.82 237.859 1542.27 Q239.688 1538.71 239.688 1531.6 Q239.688 1524.47 237.859 1520.93 Q236.053 1517.37 232.419 1517.37 M232.419 1513.66 Q238.229 1513.66 241.285 1518.27 Q244.363 1522.85 244.363 1531.6 Q244.363 1540.33 241.285 1544.94 Q238.229 1549.52 232.419 1549.52 Q226.609 1549.52 223.53 1544.94 Q220.475 1540.33 220.475 1531.6 Q220.475 1522.85 223.53 1518.27 Q226.609 1513.66 232.419 1513.66 Z" fill="#000000" fill-rule="nonzero" fill-opacity="1" /><path clip-path="url(#clip990)" d="M252.581 1542.97 L257.465 1542.97 L257.465 1548.85 L252.581 1548.85 L252.581 1542.97 Z" fill="#000000" fill-rule="nonzero" fill-opacity="1" /><path clip-path="url(#clip990)" d="M277.65 1517.37 Q274.039 1517.37 272.211 1520.93 Q270.405 1524.47 270.405 1531.6 Q270.405 1538.71 272.211 1542.27 Q274.039 1545.82 277.65 1545.82 Q281.285 1545.82 283.09 1542.27 Q284.919 1538.71 284.919 1531.6 Q284.919 1524.47 283.09 1520.93 Q281.285 1517.37 277.65 1517.37 M277.65 1513.66 Q283.46 1513.66 286.516 1518.27 Q289.595 1522.85 289.595 1531.6 Q289.595 1540.33 286.516 1544.94 Q283.46 1549.52 277.65 1549.52 Q271.84 1549.52 268.761 1544.94 Q265.706 1540.33 265.706 1531.6 Q265.706 1522.85 268.761 1518.27 Q271.84 1513.66 277.65 1513.66 Z" fill="#000000" fill-rule="nonzero" fill-opacity="1" /><path clip-path="url(#clip990)" d="M735.927 1544.91 L752.246 1544.91 L752.246 1548.85 L730.302 1548.85 L730.302 1544.91 Q732.964 1542.16 737.547 1537.53 Q742.153 1532.88 743.334 1531.53 Q745.579 1529.01 746.459 1527.27 Q747.362 1525.51 747.362 1523.82 Q747.362 1521.07 745.417 1519.33 Q743.496 1517.6 740.394 1517.6 Q738.195 1517.6 735.741 1518.36 Q733.311 1519.13 730.533 1520.68 L730.533 1515.95 Q733.357 1514.82 735.811 1514.24 Q738.265 1513.66 740.302 1513.66 Q745.672 1513.66 748.866 1516.35 Q752.061 1519.03 752.061 1523.52 Q752.061 1525.65 751.251 1527.57 Q750.464 1529.47 748.357 1532.07 Q747.778 1532.74 744.677 1535.95 Q741.575 1539.15 735.927 1544.91 Z" fill="#000000" fill-rule="nonzero" fill-opacity="1" /><path clip-path="url(#clip990)" d="M762.061 1542.97 L766.945 1542.97 L766.945 1548.85 L762.061 1548.85 L762.061 1542.97 Z" fill="#000000" fill-rule="nonzero" fill-opacity="1" /><path clip-path="url(#clip990)" d="M777.176 1514.29 L795.533 1514.29 L795.533 1518.22 L781.459 1518.22 L781.459 1526.7 Q782.477 1526.35 783.496 1526.19 Q784.514 1526 785.533 1526 Q791.32 1526 794.699 1529.17 Q798.079 1532.34 798.079 1537.76 Q798.079 1543.34 794.607 1546.44 Q791.135 1549.52 784.815 1549.52 Q782.639 1549.52 780.371 1549.15 Q778.125 1548.78 775.718 1548.04 L775.718 1543.34 Q777.801 1544.47 780.024 1545.03 Q782.246 1545.58 784.723 1545.58 Q788.727 1545.58 791.065 1543.48 Q793.403 1541.37 793.403 1537.76 Q793.403 1534.15 791.065 1532.04 Q788.727 1529.94 784.723 1529.94 Q782.848 1529.94 780.973 1530.35 Q779.121 1530.77 777.176 1531.65 L777.176 1514.29 Z" fill="#000000" fill-rule="nonzero" fill-opacity="1" /><path clip-path="url(#clip990)" d="M1240.51 1514.29 L1258.87 1514.29 L1258.87 1518.22 L1244.79 1518.22 L1244.79 1526.7 Q1245.81 1526.35 1246.83 1526.19 Q1247.85 1526 1248.87 1526 Q1254.65 1526 1258.03 1529.17 Q1261.41 1532.34 1261.41 1537.76 Q1261.41 1543.34 1257.94 1546.44 Q1254.47 1549.52 1248.15 1549.52 Q1245.97 1549.52 1243.7 1549.15 Q1241.46 1548.78 1239.05 1548.04 L1239.05 1543.34 Q1241.14 1544.47 1243.36 1545.03 Q1245.58 1545.58 1248.06 1545.58 Q1252.06 1545.58 1254.4 1543.48 Q1256.74 1541.37 1256.74 1537.76 Q1256.74 1534.15 1254.4 1532.04 Q1252.06 1529.94 1248.06 1529.94 Q1246.18 1529.94 1244.31 1530.35 Q1242.45 1530.77 1240.51 1531.65 L1240.51 1514.29 Z" fill="#000000" fill-rule="nonzero" fill-opacity="1" /><path clip-path="url(#clip990)" d="M1270.63 1542.97 L1275.51 1542.97 L1275.51 1548.85 L1270.63 1548.85 L1270.63 1542.97 Z" fill="#000000" fill-rule="nonzero" fill-opacity="1" /><path clip-path="url(#clip990)" d="M1295.7 1517.37 Q1292.08 1517.37 1290.26 1520.93 Q1288.45 1524.47 1288.45 1531.6 Q1288.45 1538.71 1290.26 1542.27 Q1292.08 1545.82 1295.7 1545.82 Q1299.33 1545.82 1301.14 1542.27 Q1302.96 1538.71 1302.96 1531.6 Q1302.96 1524.47 1301.14 1520.93 Q1299.33 1517.37 1295.7 1517.37 M1295.7 1513.66 Q1301.51 1513.66 1304.56 1518.27 Q1307.64 1522.85 1307.64 1531.6 Q1307.64 1540.33 1304.56 1544.94 Q1301.51 1549.52 1295.7 1549.52 Q1289.89 1549.52 1286.81 1544.94 Q1283.75 1540.33 1283.75 1531.6 Q1283.75 1522.85 1286.81 1518.27 Q1289.89 1513.66 1295.7 1513.66 Z" fill="#000000" fill-rule="nonzero" fill-opacity="1" /><path clip-path="url(#clip990)" d="M1748.82 1514.29 L1771.04 1514.29 L1771.04 1516.28 L1758.5 1548.85 L1753.61 1548.85 L1765.42 1518.22 L1748.82 1518.22 L1748.82 1514.29 Z" fill="#000000" fill-rule="nonzero" fill-opacity="1" /><path clip-path="url(#clip990)" d="M1780.16 1542.97 L1785.05 1542.97 L1785.05 1548.85 L1780.16 1548.85 L1780.16 1542.97 Z" fill="#000000" fill-rule="nonzero" fill-opacity="1" /><path clip-path="url(#clip990)" d="M1795.28 1514.29 L1813.64 1514.29 L1813.64 1518.22 L1799.56 1518.22 L1799.56 1526.7 Q1800.58 1526.35 1801.6 1526.19 Q1802.62 1526 1803.64 1526 Q1809.42 1526 1812.8 1529.17 Q1816.18 1532.34 1816.18 1537.76 Q1816.18 1543.34 1812.71 1546.44 Q1809.24 1549.52 1802.92 1549.52 Q1800.74 1549.52 1798.47 1549.15 Q1796.23 1548.78 1793.82 1548.04 L1793.82 1543.34 Q1795.9 1544.47 1798.13 1545.03 Q1800.35 1545.58 1802.83 1545.58 Q1806.83 1545.58 1809.17 1543.48 Q1811.51 1541.37 1811.51 1537.76 Q1811.51 1534.15 1809.17 1532.04 Q1806.83 1529.94 1802.83 1529.94 Q1800.95 1529.94 1799.08 1530.35 Q1797.22 1530.77 1795.28 1531.65 L1795.28 1514.29 Z" fill="#000000" fill-rule="nonzero" fill-opacity="1" /><path clip-path="url(#clip990)" d="M2243.73 1544.91 L2251.37 1544.91 L2251.37 1518.55 L2243.06 1520.21 L2243.06 1515.95 L2251.32 1514.29 L2256 1514.29 L2256 1544.91 L2263.64 1544.91 L2263.64 1548.85 L2243.73 1548.85 L2243.73 1544.91 Z" fill="#000000" fill-rule="nonzero" fill-opacity="1" /><path clip-path="url(#clip990)" d="M2283.08 1517.37 Q2279.47 1517.37 2277.64 1520.93 Q2275.84 1524.47 2275.84 1531.6 Q2275.84 1538.71 2277.64 1542.27 Q2279.47 1545.82 2283.08 1545.82 Q2286.72 1545.82 2288.52 1542.27 Q2290.35 1538.71 2290.35 1531.6 Q2290.35 1524.47 2288.52 1520.93 Q2286.72 1517.37 2283.08 1517.37 M2283.08 1513.66 Q2288.89 1513.66 2291.95 1518.27 Q2295.03 1522.85 2295.03 1531.6 Q2295.03 1540.33 2291.95 1544.94 Q2288.89 1549.52 2283.08 1549.52 Q2277.27 1549.52 2274.19 1544.94 Q2271.14 1540.33 2271.14 1531.6 Q2271.14 1522.85 2274.19 1518.27 Q2277.27 1513.66 2283.08 1513.66 Z" fill="#000000" fill-rule="nonzero" fill-opacity="1" /><path clip-path="url(#clip990)" d="M2303.24 1542.97 L2308.13 1542.97 L2308.13 1548.85 L2303.24 1548.85 L2303.24 1542.97 Z" fill="#000000" fill-rule="nonzero" fill-opacity="1" /><path clip-path="url(#clip990)" d="M2328.31 1517.37 Q2324.7 1517.37 2322.87 1520.93 Q2321.07 1524.47 2321.07 1531.6 Q2321.07 1538.71 2322.87 1542.27 Q2324.7 1545.82 2328.31 1545.82 Q2331.95 1545.82 2333.75 1542.27 Q2335.58 1538.71 2335.58 1531.6 Q2335.58 1524.47 2333.75 1520.93 Q2331.95 1517.37 2328.31 1517.37 M2328.31 1513.66 Q2334.12 1513.66 2337.18 1518.27 Q2340.26 1522.85 2340.26 1531.6 Q2340.26 1540.33 2337.18 1544.94 Q2334.12 1549.52 2328.31 1549.52 Q2322.5 1549.52 2319.42 1544.94 Q2316.37 1540.33 2316.37 1531.6 Q2316.37 1522.85 2319.42 1518.27 Q2322.5 1513.66 2328.31 1513.66 Z" fill="#000000" fill-rule="nonzero" fill-opacity="1" /><polyline clip-path="url(#clip990)" style="stroke:#000000; stroke-linecap:round; stroke-linejoin:round; stroke-width:4; stroke-opacity:1; fill:none" points="193.936,1486.45 193.936,123.472 "/>
<polyline clip-path="url(#clip990)" style="stroke:#000000; stroke-linecap:round; stroke-linejoin:round; stroke-width:4; stroke-opacity:1; fill:none" points="193.936,1447.92 212.834,1447.92 "/>
<polyline clip-path="url(#clip990)" style="stroke:#000000; stroke-linecap:round; stroke-linejoin:round; stroke-width:4; stroke-opacity:1; fill:none" points="193.936,1126.39 212.834,1126.39 "/>
<polyline clip-path="url(#clip990)" style="stroke:#000000; stroke-linecap:round; stroke-linejoin:round; stroke-width:4; stroke-opacity:1; fill:none" points="193.936,804.848 212.834,804.848 "/>
<polyline clip-path="url(#clip990)" style="stroke:#000000; stroke-linecap:round; stroke-linejoin:round; stroke-width:4; stroke-opacity:1; fill:none" points="193.936,483.31 212.834,483.31 "/>
<polyline clip-path="url(#clip990)" style="stroke:#000000; stroke-linecap:round; stroke-linejoin:round; stroke-width:4; stroke-opacity:1; fill:none" points="193.936,161.773 212.834,161.773 "/>
<path clip-path="url(#clip990)" d="M50.9921 1448.37 L80.6679 1448.37 L80.6679 1452.31 L50.9921 1452.31 L50.9921 1448.37 Z" fill="#000000" fill-rule="nonzero" fill-opacity="1" /><path clip-path="url(#clip990)" d="M91.5706 1461.27 L99.2095 1461.27 L99.2095 1434.9 L90.8993 1436.57 L90.8993 1432.31 L99.1632 1430.64 L103.839 1430.64 L103.839 1461.27 L111.478 1461.27 L111.478 1465.2 L91.5706 1465.2 L91.5706 1461.27 Z" fill="#000000" fill-rule="nonzero" fill-opacity="1" /><path clip-path="url(#clip990)" d="M120.922 1459.32 L125.807 1459.32 L125.807 1465.2 L120.922 1465.2 L120.922 1459.32 Z" fill="#000000" fill-rule="nonzero" fill-opacity="1" /><path clip-path="url(#clip990)" d="M145.992 1433.72 Q142.381 1433.72 140.552 1437.29 Q138.746 1440.83 138.746 1447.96 Q138.746 1455.06 140.552 1458.63 Q142.381 1462.17 145.992 1462.17 Q149.626 1462.17 151.431 1458.63 Q153.26 1455.06 153.26 1447.96 Q153.26 1440.83 151.431 1437.29 Q149.626 1433.72 145.992 1433.72 M145.992 1430.02 Q151.802 1430.02 154.857 1434.62 Q157.936 1439.21 157.936 1447.96 Q157.936 1456.68 154.857 1461.29 Q151.802 1465.87 145.992 1465.87 Q140.181 1465.87 137.103 1461.29 Q134.047 1456.68 134.047 1447.96 Q134.047 1439.21 137.103 1434.62 Q140.181 1430.02 145.992 1430.02 Z" fill="#000000" fill-rule="nonzero" fill-opacity="1" /><path clip-path="url(#clip990)" d="M51.9875 1126.84 L81.6633 1126.84 L81.6633 1130.77 L51.9875 1130.77 L51.9875 1126.84 Z" fill="#000000" fill-rule="nonzero" fill-opacity="1" /><path clip-path="url(#clip990)" d="M101.756 1112.18 Q98.1447 1112.18 96.316 1115.75 Q94.5104 1119.29 94.5104 1126.42 Q94.5104 1133.53 96.316 1137.09 Q98.1447 1140.63 101.756 1140.63 Q105.39 1140.63 107.196 1137.09 Q109.024 1133.53 109.024 1126.42 Q109.024 1119.29 107.196 1115.75 Q105.39 1112.18 101.756 1112.18 M101.756 1108.48 Q107.566 1108.48 110.621 1113.09 Q113.7 1117.67 113.7 1126.42 Q113.7 1135.15 110.621 1139.75 Q107.566 1144.34 101.756 1144.34 Q95.9456 1144.34 92.8669 1139.75 Q89.8114 1135.15 89.8114 1126.42 Q89.8114 1117.67 92.8669 1113.09 Q95.9456 1108.48 101.756 1108.48 Z" fill="#000000" fill-rule="nonzero" fill-opacity="1" /><path clip-path="url(#clip990)" d="M121.918 1137.79 L126.802 1137.79 L126.802 1143.67 L121.918 1143.67 L121.918 1137.79 Z" fill="#000000" fill-rule="nonzero" fill-opacity="1" /><path clip-path="url(#clip990)" d="M137.033 1109.11 L155.39 1109.11 L155.39 1113.04 L141.316 1113.04 L141.316 1121.51 Q142.334 1121.17 143.353 1121 Q144.371 1120.82 145.39 1120.82 Q151.177 1120.82 154.556 1123.99 Q157.936 1127.16 157.936 1132.58 Q157.936 1138.16 154.464 1141.26 Q150.992 1144.34 144.672 1144.34 Q142.496 1144.34 140.228 1143.97 Q137.982 1143.6 135.575 1142.85 L135.575 1138.16 Q137.658 1139.29 139.881 1139.85 Q142.103 1140.4 144.58 1140.4 Q148.584 1140.4 150.922 1138.29 Q153.26 1136.19 153.26 1132.58 Q153.26 1128.97 150.922 1126.86 Q148.584 1124.75 144.58 1124.75 Q142.705 1124.75 140.83 1125.17 Q138.978 1125.59 137.033 1126.47 L137.033 1109.11 Z" fill="#000000" fill-rule="nonzero" fill-opacity="1" /><path clip-path="url(#clip990)" d="M100.76 790.646 Q97.1493 790.646 95.3206 794.211 Q93.515 797.753 93.515 804.882 Q93.515 811.989 95.3206 815.554 Q97.1493 819.095 100.76 819.095 Q104.395 819.095 106.2 815.554 Q108.029 811.989 108.029 804.882 Q108.029 797.753 106.2 794.211 Q104.395 790.646 100.76 790.646 M100.76 786.943 Q106.571 786.943 109.626 791.549 Q112.705 796.132 112.705 804.882 Q112.705 813.609 109.626 818.216 Q106.571 822.799 100.76 822.799 Q94.9502 822.799 91.8715 818.216 Q88.816 813.609 88.816 804.882 Q88.816 796.132 91.8715 791.549 Q94.9502 786.943 100.76 786.943 Z" fill="#000000" fill-rule="nonzero" fill-opacity="1" /><path clip-path="url(#clip990)" d="M120.922 816.248 L125.807 816.248 L125.807 822.128 L120.922 822.128 L120.922 816.248 Z" fill="#000000" fill-rule="nonzero" fill-opacity="1" /><path clip-path="url(#clip990)" d="M145.992 790.646 Q142.381 790.646 140.552 794.211 Q138.746 797.753 138.746 804.882 Q138.746 811.989 140.552 815.554 Q142.381 819.095 145.992 819.095 Q149.626 819.095 151.431 815.554 Q153.26 811.989 153.26 804.882 Q153.26 797.753 151.431 794.211 Q149.626 790.646 145.992 790.646 M145.992 786.943 Q151.802 786.943 154.857 791.549 Q157.936 796.132 157.936 804.882 Q157.936 813.609 154.857 818.216 Q151.802 822.799 145.992 822.799 Q140.181 822.799 137.103 818.216 Q134.047 813.609 134.047 804.882 Q134.047 796.132 137.103 791.549 Q140.181 786.943 145.992 786.943 Z" fill="#000000" fill-rule="nonzero" fill-opacity="1" /><path clip-path="url(#clip990)" d="M101.756 469.109 Q98.1447 469.109 96.316 472.674 Q94.5104 476.215 94.5104 483.345 Q94.5104 490.451 96.316 494.016 Q98.1447 497.558 101.756 497.558 Q105.39 497.558 107.196 494.016 Q109.024 490.451 109.024 483.345 Q109.024 476.215 107.196 472.674 Q105.39 469.109 101.756 469.109 M101.756 465.405 Q107.566 465.405 110.621 470.012 Q113.7 474.595 113.7 483.345 Q113.7 492.072 110.621 496.678 Q107.566 501.261 101.756 501.261 Q95.9456 501.261 92.8669 496.678 Q89.8114 492.072 89.8114 483.345 Q89.8114 474.595 92.8669 470.012 Q95.9456 465.405 101.756 465.405 Z" fill="#000000" fill-rule="nonzero" fill-opacity="1" /><path clip-path="url(#clip990)" d="M121.918 494.711 L126.802 494.711 L126.802 500.59 L121.918 500.59 L121.918 494.711 Z" fill="#000000" fill-rule="nonzero" fill-opacity="1" /><path clip-path="url(#clip990)" d="M137.033 466.03 L155.39 466.03 L155.39 469.965 L141.316 469.965 L141.316 478.437 Q142.334 478.09 143.353 477.928 Q144.371 477.743 145.39 477.743 Q151.177 477.743 154.556 480.914 Q157.936 484.086 157.936 489.502 Q157.936 495.081 154.464 498.183 Q150.992 501.261 144.672 501.261 Q142.496 501.261 140.228 500.891 Q137.982 500.521 135.575 499.78 L135.575 495.081 Q137.658 496.215 139.881 496.771 Q142.103 497.326 144.58 497.326 Q148.584 497.326 150.922 495.22 Q153.26 493.113 153.26 489.502 Q153.26 485.891 150.922 483.785 Q148.584 481.678 144.58 481.678 Q142.705 481.678 140.83 482.095 Q138.978 482.512 137.033 483.391 L137.033 466.03 Z" fill="#000000" fill-rule="nonzero" fill-opacity="1" /><path clip-path="url(#clip990)" d="M91.5706 175.118 L99.2095 175.118 L99.2095 148.752 L90.8993 150.419 L90.8993 146.159 L99.1632 144.493 L103.839 144.493 L103.839 175.118 L111.478 175.118 L111.478 179.053 L91.5706 179.053 L91.5706 175.118 Z" fill="#000000" fill-rule="nonzero" fill-opacity="1" /><path clip-path="url(#clip990)" d="M120.922 173.173 L125.807 173.173 L125.807 179.053 L120.922 179.053 L120.922 173.173 Z" fill="#000000" fill-rule="nonzero" fill-opacity="1" /><path clip-path="url(#clip990)" d="M145.992 147.571 Q142.381 147.571 140.552 151.136 Q138.746 154.678 138.746 161.807 Q138.746 168.914 140.552 172.479 Q142.381 176.02 145.992 176.02 Q149.626 176.02 151.431 172.479 Q153.26 168.914 153.26 161.807 Q153.26 154.678 151.431 151.136 Q149.626 147.571 145.992 147.571 M145.992 143.868 Q151.802 143.868 154.857 148.474 Q157.936 153.057 157.936 161.807 Q157.936 170.534 154.857 175.141 Q151.802 179.724 145.992 179.724 Q140.181 179.724 137.103 175.141 Q134.047 170.534 134.047 161.807 Q134.047 153.057 137.103 148.474 Q140.181 143.868 145.992 143.868 Z" fill="#000000" fill-rule="nonzero" fill-opacity="1" /><path clip-path="url(#clip990)" d="M1100.6 12.096 L1108.78 12.096 L1108.78 65.6895 L1138.23 65.6895 L1138.23 72.576 L1100.6 72.576 L1100.6 12.096 Z" fill="#000000" fill-rule="nonzero" fill-opacity="1" /><path clip-path="url(#clip990)" d="M1146.49 27.2059 L1153.95 27.2059 L1153.95 72.576 L1146.49 72.576 L1146.49 27.2059 M1146.49 9.54393 L1153.95 9.54393 L1153.95 18.9825 L1146.49 18.9825 L1146.49 9.54393 Z" fill="#000000" fill-rule="nonzero" fill-opacity="1" /><path clip-path="url(#clip990)" d="M1207.26 45.1919 L1207.26 72.576 L1199.8 72.576 L1199.8 45.4349 Q1199.8 38.994 1197.29 35.7938 Q1194.78 32.5936 1189.76 32.5936 Q1183.72 32.5936 1180.24 36.4419 Q1176.75 40.2903 1176.75 46.9338 L1176.75 72.576 L1169.26 72.576 L1169.26 27.2059 L1176.75 27.2059 L1176.75 34.2544 Q1179.43 30.163 1183.03 28.1376 Q1186.68 26.1121 1191.42 26.1121 Q1199.23 26.1121 1203.25 30.9732 Q1207.26 35.7938 1207.26 45.1919 Z" fill="#000000" fill-rule="nonzero" fill-opacity="1" /><path clip-path="url(#clip990)" d="M1260.93 48.0275 L1260.93 51.6733 L1226.66 51.6733 Q1227.15 59.3701 1231.28 63.421 Q1235.45 67.4314 1242.86 67.4314 Q1247.16 67.4314 1251.17 66.3781 Q1255.22 65.3249 1259.19 63.2184 L1259.19 70.267 Q1255.18 71.9684 1250.96 72.8596 Q1246.75 73.7508 1242.42 73.7508 Q1231.56 73.7508 1225.2 67.4314 Q1218.88 61.1119 1218.88 50.3365 Q1218.88 39.1965 1224.88 32.6746 Q1230.91 26.1121 1241.12 26.1121 Q1250.28 26.1121 1255.58 32.0264 Q1260.93 37.9003 1260.93 48.0275 M1253.48 45.84 Q1253.4 39.7232 1250.03 36.0774 Q1246.71 32.4315 1241.2 32.4315 Q1234.96 32.4315 1231.2 35.9558 Q1227.47 39.4801 1226.9 45.8805 L1253.48 45.84 Z" fill="#000000" fill-rule="nonzero" fill-opacity="1" /><path clip-path="url(#clip990)" d="M1308.04 18.8205 L1308.04 41.5461 L1318.33 41.5461 Q1324.04 41.5461 1327.16 38.5889 Q1330.28 35.6318 1330.28 30.163 Q1330.28 24.7348 1327.16 21.7777 Q1324.04 18.8205 1318.33 18.8205 L1308.04 18.8205 M1299.86 12.096 L1318.33 12.096 Q1328.5 12.096 1333.68 16.714 Q1338.91 21.2916 1338.91 30.163 Q1338.91 39.1155 1333.68 43.6931 Q1328.5 48.2706 1318.33 48.2706 L1308.04 48.2706 L1308.04 72.576 L1299.86 72.576 L1299.86 12.096 Z" fill="#000000" fill-rule="nonzero" fill-opacity="1" /><path clip-path="url(#clip990)" d="M1349.56 9.54393 L1357.02 9.54393 L1357.02 72.576 L1349.56 72.576 L1349.56 9.54393 Z" fill="#000000" fill-rule="nonzero" fill-opacity="1" /><path clip-path="url(#clip990)" d="M1390.19 32.4315 Q1384.2 32.4315 1380.72 37.1306 Q1377.23 41.7891 1377.23 49.9314 Q1377.23 58.0738 1380.67 62.7728 Q1384.16 67.4314 1390.19 67.4314 Q1396.15 67.4314 1399.63 62.7323 Q1403.12 58.0333 1403.12 49.9314 Q1403.12 41.8701 1399.63 37.1711 Q1396.15 32.4315 1390.19 32.4315 M1390.19 26.1121 Q1399.92 26.1121 1405.47 32.4315 Q1411.02 38.7509 1411.02 49.9314 Q1411.02 61.0714 1405.47 67.4314 Q1399.92 73.7508 1390.19 73.7508 Q1380.43 73.7508 1374.88 67.4314 Q1369.37 61.0714 1369.37 49.9314 Q1369.37 38.7509 1374.88 32.4315 Q1380.43 26.1121 1390.19 26.1121 Z" fill="#000000" fill-rule="nonzero" fill-opacity="1" /><path clip-path="url(#clip990)" d="M1430.74 14.324 L1430.74 27.2059 L1446.1 27.2059 L1446.1 32.9987 L1430.74 32.9987 L1430.74 57.6282 Q1430.74 63.1779 1432.24 64.7578 Q1433.78 66.3376 1438.44 66.3376 L1446.1 66.3376 L1446.1 72.576 L1438.44 72.576 Q1429.81 72.576 1426.53 69.3758 Q1423.25 66.1351 1423.25 57.6282 L1423.25 32.9987 L1417.78 32.9987 L1417.78 27.2059 L1423.25 27.2059 L1423.25 14.324 L1430.74 14.324 Z" fill="#000000" fill-rule="nonzero" fill-opacity="1" /><polyline clip-path="url(#clip992)" style="stroke:#009af9; stroke-linecap:round; stroke-linejoin:round; stroke-width:4; stroke-opacity:1; fill:none" points="255.035,804.848 275.401,740.647 295.767,677.088 316.133,614.806 336.5,554.422 356.866,496.541 377.232,441.74 397.598,390.567 417.964,343.534 438.331,301.11 458.697,263.719 479.063,231.735 499.429,205.477 519.796,185.208 540.162,171.13 560.528,163.384 580.894,162.047 601.261,167.133 621.627,178.591 641.993,196.306 662.359,220.101 682.725,249.739 703.092,284.924 723.458,325.303 743.824,370.474 764.19,419.985 784.557,473.342 804.923,530.01 825.289,589.425 845.655,650.992 866.021,714.097 886.388,778.108 906.754,842.387 927.12,906.29 947.486,969.18 967.853,1030.43 988.219,1089.42 1008.59,1145.57 1028.95,1198.32 1049.32,1247.13 1069.68,1291.53 1090.05,1331.06 1110.42,1365.34 1130.78,1394.01 1151.15,1416.8 1171.51,1433.47 1191.88,1443.87 1212.25,1447.87 1232.61,1445.46 1252.98,1436.64 1273.35,1421.51 1293.71,1400.22 1314.08,1372.98 1334.44,1340.06 1354.81,1301.79 1375.18,1258.56 1395.54,1210.8 1415.91,1158.98 1436.28,1103.62 1456.64,1045.28 1477.01,984.533 1497.37,921.992 1517.74,858.28 1538.11,794.035 1558.47,729.898 1578.84,666.509 1599.21,604.503 1619.57,544.499 1639.94,487.096 1660.3,432.867 1680.67,382.356 1701.04,336.066 1721.4,294.46 1741.77,257.953 1762.14,226.911 1782.5,201.643 1802.87,182.403 1823.23,169.381 1843.6,162.709 1863.97,162.454 1884.33,168.616 1904.7,181.136 1925.07,199.887 1945.43,224.684 1965.8,255.276 1986.16,291.361 2006.53,332.575 2026.9,378.509 2047.26,428.702 2067.63,482.654 2087.99,539.825 2108.36,599.643 2128.73,661.513 2149.09,724.814 2169.46,788.915 2189.83,853.175 2210.19,916.953 2230.56,979.61 2250.92,1040.52 2271.29,1099.08 2291.66,1154.69 "/>
<path clip-path="url(#clip990)" d="M265.897 1441.02 L608.097 1441.02 L608.097 1337.34 L265.897 1337.34  Z" fill="#ffffff" fill-rule="evenodd" fill-opacity="1"/>
<polyline clip-path="url(#clip990)" style="stroke:#000000; stroke-linecap:round; stroke-linejoin:round; stroke-width:4; stroke-opacity:1; fill:none" points="265.897,1441.02 608.097,1441.02 608.097,1337.34 265.897,1337.34 265.897,1441.02 "/>
<polyline clip-path="url(#clip990)" style="stroke:#009af9; stroke-linecap:round; stroke-linejoin:round; stroke-width:4; stroke-opacity:1; fill:none" points="289.884,1389.18 433.805,1389.18 "/>
<path clip-path="url(#clip990)" d="M476.218 1381.29 L476.218 1385.32 Q474.412 1384.4 472.468 1383.93 Q470.523 1383.47 468.44 1383.47 Q465.269 1383.47 463.671 1384.44 Q462.097 1385.41 462.097 1387.36 Q462.097 1388.84 463.232 1389.7 Q464.366 1390.53 467.792 1391.29 L469.25 1391.62 Q473.787 1392.59 475.685 1394.37 Q477.606 1396.13 477.606 1399.3 Q477.606 1402.91 474.736 1405.02 Q471.889 1407.13 466.889 1407.13 Q464.806 1407.13 462.537 1406.71 Q460.292 1406.32 457.792 1405.51 L457.792 1401.11 Q460.153 1402.34 462.445 1402.96 Q464.736 1403.56 466.982 1403.56 Q469.991 1403.56 471.611 1402.54 Q473.231 1401.5 473.231 1399.63 Q473.231 1397.89 472.051 1396.96 Q470.894 1396.04 466.935 1395.18 L465.454 1394.84 Q461.495 1394 459.736 1392.29 Q457.977 1390.55 457.977 1387.54 Q457.977 1383.89 460.57 1381.9 Q463.162 1379.9 467.931 1379.9 Q470.292 1379.9 472.375 1380.25 Q474.458 1380.6 476.218 1381.29 Z" fill="#000000" fill-rule="nonzero" fill-opacity="1" /><path clip-path="url(#clip990)" d="M484.389 1380.53 L488.648 1380.53 L488.648 1406.46 L484.389 1406.46 L484.389 1380.53 M484.389 1370.44 L488.648 1370.44 L488.648 1375.83 L484.389 1375.83 L484.389 1370.44 Z" fill="#000000" fill-rule="nonzero" fill-opacity="1" /><path clip-path="url(#clip990)" d="M519.111 1390.81 L519.111 1406.46 L514.852 1406.46 L514.852 1390.95 Q514.852 1387.27 513.416 1385.44 Q511.981 1383.61 509.111 1383.61 Q505.662 1383.61 503.671 1385.81 Q501.68 1388.01 501.68 1391.8 L501.68 1406.46 L497.398 1406.46 L497.398 1380.53 L501.68 1380.53 L501.68 1384.56 Q503.208 1382.22 505.268 1381.06 Q507.352 1379.9 510.06 1379.9 Q514.528 1379.9 516.819 1382.68 Q519.111 1385.44 519.111 1390.81 Z" fill="#000000" fill-rule="nonzero" fill-opacity="1" /><path clip-path="url(#clip990)" d="M537.838 1370.48 Q534.736 1375.81 533.231 1381.02 Q531.727 1386.22 531.727 1391.57 Q531.727 1396.92 533.231 1402.17 Q534.759 1407.4 537.838 1412.71 L534.134 1412.71 Q530.662 1407.27 528.926 1402.01 Q527.213 1396.76 527.213 1391.57 Q527.213 1386.41 528.926 1381.18 Q530.639 1375.95 534.134 1370.48 L537.838 1370.48 Z" fill="#000000" fill-rule="nonzero" fill-opacity="1" /><path clip-path="url(#clip990)" d="M567.652 1380.53 L558.277 1393.15 L568.138 1406.46 L563.115 1406.46 L555.569 1396.27 L548.023 1406.46 L543 1406.46 L553.069 1392.89 L543.856 1380.53 L548.879 1380.53 L555.754 1389.77 L562.629 1380.53 L567.652 1380.53 Z" fill="#000000" fill-rule="nonzero" fill-opacity="1" /><path clip-path="url(#clip990)" d="M573.486 1370.48 L577.189 1370.48 Q580.661 1375.95 582.374 1381.18 Q584.111 1386.41 584.111 1391.57 Q584.111 1396.76 582.374 1402.01 Q580.661 1407.27 577.189 1412.71 L573.486 1412.71 Q576.564 1407.4 578.069 1402.17 Q579.597 1396.92 579.597 1391.57 Q579.597 1386.22 578.069 1381.02 Q576.564 1375.81 573.486 1370.48 Z" fill="#000000" fill-rule="nonzero" fill-opacity="1" /></svg>
