<?xml version="1.0" encoding="utf-8"?>
<svg xmlns="http://www.w3.org/2000/svg" xmlns:xlink="http://www.w3.org/1999/xlink" width="600" height="400" viewBox="0 0 2400 1600">
<defs>
  <clipPath id="clip020">
    <rect x="0" y="0" width="2400" height="1600"/>
  </clipPath>
</defs>
<path clip-path="url(#clip020)" d="M0 1600 L2400 1600 L2400 0 L0 0  Z" fill="#ffffff" fill-rule="evenodd" fill-opacity="1"/>
<defs>
  <clipPath id="clip021">
    <rect x="480" y="0" width="1681" height="1600"/>
  </clipPath>
</defs>
<path clip-path="url(#clip020)" d="M186.274 1486.45 L2352.76 1486.45 L2352.76 123.472 L186.274 123.472  Z" fill="#ffffff" fill-rule="evenodd" fill-opacity="1"/>
<defs>
  <clipPath id="clip022">
    <rect x="186" y="123" width="2167" height="1364"/>
  </clipPath>
</defs>
<polyline clip-path="url(#clip022)" style="stroke:#000000; stroke-linecap:round; stroke-linejoin:round; stroke-width:2; stroke-opacity:0.1; fill:none" points="247.274,1486.45 247.274,123.472 "/>
<polyline clip-path="url(#clip022)" style="stroke:#000000; stroke-linecap:round; stroke-linejoin:round; stroke-width:2; stroke-opacity:0.1; fill:none" points="762.103,1486.45 762.103,123.472 "/>
<polyline clip-path="url(#clip022)" style="stroke:#000000; stroke-linecap:round; stroke-linejoin:round; stroke-width:2; stroke-opacity:0.1; fill:none" points="1276.93,1486.45 1276.93,123.472 "/>
<polyline clip-path="url(#clip022)" style="stroke:#000000; stroke-linecap:round; stroke-linejoin:round; stroke-width:2; stroke-opacity:0.1; fill:none" points="1791.76,1486.45 1791.76,123.472 "/>
<polyline clip-path="url(#clip022)" style="stroke:#000000; stroke-linecap:round; stroke-linejoin:round; stroke-width:2; stroke-opacity:0.1; fill:none" points="2306.59,1486.45 2306.59,123.472 "/>
<polyline clip-path="url(#clip022)" style="stroke:#000000; stroke-linecap:round; stroke-linejoin:round; stroke-width:2; stroke-opacity:0.1; fill:none" points="186.274,1455.89 2352.76,1455.89 "/>
<polyline clip-path="url(#clip022)" style="stroke:#000000; stroke-linecap:round; stroke-linejoin:round; stroke-width:2; stroke-opacity:0.1; fill:none" points="186.274,1126.4 2352.76,1126.4 "/>
<polyline clip-path="url(#clip022)" style="stroke:#000000; stroke-linecap:round; stroke-linejoin:round; stroke-width:2; stroke-opacity:0.1; fill:none" points="186.274,796.913 2352.76,796.913 "/>
<polyline clip-path="url(#clip022)" style="stroke:#000000; stroke-linecap:round; stroke-linejoin:round; stroke-width:2; stroke-opacity:0.1; fill:none" points="186.274,467.426 2352.76,467.426 "/>
<polyline clip-path="url(#clip022)" style="stroke:#000000; stroke-linecap:round; stroke-linejoin:round; stroke-width:2; stroke-opacity:0.1; fill:none" points="186.274,137.939 2352.76,137.939 "/>
<polyline clip-path="url(#clip020)" style="stroke:#000000; stroke-linecap:round; stroke-linejoin:round; stroke-width:4; stroke-opacity:1; fill:none" points="186.274,1486.45 2352.76,1486.45 "/>
<polyline clip-path="url(#clip020)" style="stroke:#000000; stroke-linecap:round; stroke-linejoin:round; stroke-width:4; stroke-opacity:1; fill:none" points="247.274,1486.45 247.274,1467.55 "/>
<polyline clip-path="url(#clip020)" style="stroke:#000000; stroke-linecap:round; stroke-linejoin:round; stroke-width:4; stroke-opacity:1; fill:none" points="762.103,1486.45 762.103,1467.55 "/>
<polyline clip-path="url(#clip020)" style="stroke:#000000; stroke-linecap:round; stroke-linejoin:round; stroke-width:4; stroke-opacity:1; fill:none" points="1276.93,1486.45 1276.93,1467.55 "/>
<polyline clip-path="url(#clip020)" style="stroke:#000000; stroke-linecap:round; stroke-linejoin:round; stroke-width:4; stroke-opacity:1; fill:none" points="1791.76,1486.45 1791.76,1467.55 "/>
<polyline clip-path="url(#clip020)" style="stroke:#000000; stroke-linecap:round; stroke-linejoin:round; stroke-width:4; stroke-opacity:1; fill:none" points="2306.59,1486.45 2306.59,1467.55 "/>
<path clip-path="url(#clip020)" d="M209.578 1517.37 Q205.966 1517.37 204.138 1520.93 Q202.332 1524.47 202.332 1531.6 Q202.332 1538.71 204.138 1542.27 Q205.966 1545.82 209.578 1545.82 Q213.212 1545.82 215.017 1542.27 Q216.846 1538.71 216.846 1531.6 Q216.846 1524.47 215.017 1520.93 Q213.212 1517.37 209.578 1517.37 M209.578 1513.66 Q215.388 1513.66 218.443 1518.27 Q221.522 1522.85 221.522 1531.6 Q221.522 1540.33 218.443 1544.94 Q215.388 1549.52 209.578 1549.52 Q203.767 1549.52 200.689 1544.94 Q197.633 1540.33 197.633 1531.6 Q197.633 1522.85 200.689 1518.27 Q203.767 1513.66 209.578 1513.66 Z" fill="#000000" fill-rule="nonzero" fill-opacity="1" /><path clip-path="url(#clip020)" d="M229.74 1542.97 L234.624 1542.97 L234.624 1548.85 L229.74 1548.85 L229.74 1542.97 Z" fill="#000000" fill-rule="nonzero" fill-opacity="1" /><path clip-path="url(#clip020)" d="M254.809 1517.37 Q251.198 1517.37 249.369 1520.93 Q247.563 1524.47 247.563 1531.6 Q247.563 1538.71 249.369 1542.27 Q251.198 1545.82 254.809 1545.82 Q258.443 1545.82 260.249 1542.27 Q262.077 1538.71 262.077 1531.6 Q262.077 1524.47 260.249 1520.93 Q258.443 1517.37 254.809 1517.37 M254.809 1513.66 Q260.619 1513.66 263.675 1518.27 Q266.753 1522.85 266.753 1531.6 Q266.753 1540.33 263.675 1544.94 Q260.619 1549.52 254.809 1549.52 Q248.999 1549.52 245.92 1544.94 Q242.864 1540.33 242.864 1531.6 Q242.864 1522.85 245.92 1518.27 Q248.999 1513.66 254.809 1513.66 Z" fill="#000000" fill-rule="nonzero" fill-opacity="1" /><path clip-path="url(#clip020)" d="M284.971 1517.37 Q281.36 1517.37 279.531 1520.93 Q277.725 1524.47 277.725 1531.6 Q277.725 1538.71 279.531 1542.27 Q281.36 1545.82 284.971 1545.82 Q288.605 1545.82 290.41 1542.27 Q292.239 1538.71 292.239 1531.6 Q292.239 1524.47 290.41 1520.93 Q288.605 1517.37 284.971 1517.37 M284.971 1513.66 Q290.781 1513.66 293.836 1518.27 Q296.915 1522.85 296.915 1531.6 Q296.915 1540.33 293.836 1544.94 Q290.781 1549.52 284.971 1549.52 Q279.161 1549.52 276.082 1544.94 Q273.026 1540.33 273.026 1531.6 Q273.026 1522.85 276.082 1518.27 Q279.161 1513.66 284.971 1513.66 Z" fill="#000000" fill-rule="nonzero" fill-opacity="1" /><path clip-path="url(#clip020)" d="M724.904 1517.37 Q721.293 1517.37 719.464 1520.93 Q717.659 1524.47 717.659 1531.6 Q717.659 1538.71 719.464 1542.27 Q721.293 1545.82 724.904 1545.82 Q728.538 1545.82 730.344 1542.27 Q732.173 1538.71 732.173 1531.6 Q732.173 1524.47 730.344 1520.93 Q728.538 1517.37 724.904 1517.37 M724.904 1513.66 Q730.714 1513.66 733.77 1518.27 Q736.848 1522.85 736.848 1531.6 Q736.848 1540.33 733.77 1544.94 Q730.714 1549.52 724.904 1549.52 Q719.094 1549.52 716.015 1544.94 Q712.96 1540.33 712.96 1531.6 Q712.96 1522.85 716.015 1518.27 Q719.094 1513.66 724.904 1513.66 Z" fill="#000000" fill-rule="nonzero" fill-opacity="1" /><path clip-path="url(#clip020)" d="M745.066 1542.97 L749.95 1542.97 L749.95 1548.85 L745.066 1548.85 L745.066 1542.97 Z" fill="#000000" fill-rule="nonzero" fill-opacity="1" /><path clip-path="url(#clip020)" d="M764.163 1544.91 L780.482 1544.91 L780.482 1548.85 L758.538 1548.85 L758.538 1544.91 Q761.2 1542.16 765.783 1537.53 Q770.39 1532.88 771.57 1531.53 Q773.816 1529.01 774.695 1527.27 Q775.598 1525.51 775.598 1523.82 Q775.598 1521.07 773.654 1519.33 Q771.733 1517.6 768.631 1517.6 Q766.432 1517.6 763.978 1518.36 Q761.547 1519.13 758.77 1520.68 L758.77 1515.95 Q761.594 1514.82 764.047 1514.24 Q766.501 1513.66 768.538 1513.66 Q773.908 1513.66 777.103 1516.35 Q780.297 1519.03 780.297 1523.52 Q780.297 1525.65 779.487 1527.57 Q778.7 1529.47 776.594 1532.07 Q776.015 1532.74 772.913 1535.95 Q769.811 1539.15 764.163 1544.91 Z" fill="#000000" fill-rule="nonzero" fill-opacity="1" /><path clip-path="url(#clip020)" d="M790.344 1514.29 L808.7 1514.29 L808.7 1518.22 L794.626 1518.22 L794.626 1526.7 Q795.644 1526.35 796.663 1526.19 Q797.681 1526 798.7 1526 Q804.487 1526 807.867 1529.17 Q811.246 1532.34 811.246 1537.76 Q811.246 1543.34 807.774 1546.44 Q804.302 1549.52 797.982 1549.52 Q795.806 1549.52 793.538 1549.15 Q791.293 1548.78 788.885 1548.04 L788.885 1543.34 Q790.969 1544.47 793.191 1545.03 Q795.413 1545.58 797.89 1545.58 Q801.894 1545.58 804.232 1543.48 Q806.57 1541.37 806.57 1537.76 Q806.57 1534.15 804.232 1532.04 Q801.894 1529.94 797.89 1529.94 Q796.015 1529.94 794.14 1530.35 Q792.288 1530.77 790.344 1531.65 L790.344 1514.29 Z" fill="#000000" fill-rule="nonzero" fill-opacity="1" /><path clip-path="url(#clip020)" d="M1239.24 1517.37 Q1235.62 1517.37 1233.8 1520.93 Q1231.99 1524.47 1231.99 1531.6 Q1231.99 1538.71 1233.8 1542.27 Q1235.62 1545.82 1239.24 1545.82 Q1242.87 1545.82 1244.67 1542.27 Q1246.5 1538.71 1246.5 1531.6 Q1246.5 1524.47 1244.67 1520.93 Q1242.87 1517.37 1239.24 1517.37 M1239.24 1513.66 Q1245.05 1513.66 1248.1 1518.27 Q1251.18 1522.85 1251.18 1531.6 Q1251.18 1540.33 1248.1 1544.94 Q1245.05 1549.52 1239.24 1549.52 Q1233.43 1549.52 1230.35 1544.94 Q1227.29 1540.33 1227.29 1531.6 Q1227.29 1522.85 1230.35 1518.27 Q1233.43 1513.66 1239.24 1513.66 Z" fill="#000000" fill-rule="nonzero" fill-opacity="1" /><path clip-path="url(#clip020)" d="M1259.4 1542.97 L1264.28 1542.97 L1264.28 1548.85 L1259.4 1548.85 L1259.4 1542.97 Z" fill="#000000" fill-rule="nonzero" fill-opacity="1" /><path clip-path="url(#clip020)" d="M1274.51 1514.29 L1292.87 1514.29 L1292.87 1518.22 L1278.8 1518.22 L1278.8 1526.7 Q1279.81 1526.35 1280.83 1526.19 Q1281.85 1526 1282.87 1526 Q1288.66 1526 1292.04 1529.17 Q1295.42 1532.34 1295.42 1537.76 Q1295.42 1543.34 1291.94 1546.44 Q1288.47 1549.52 1282.15 1549.52 Q1279.98 1549.52 1277.71 1549.15 Q1275.46 1548.78 1273.05 1548.04 L1273.05 1543.34 Q1275.14 1544.47 1277.36 1545.03 Q1279.58 1545.58 1282.06 1545.58 Q1286.06 1545.58 1288.4 1543.48 Q1290.74 1541.37 1290.74 1537.76 Q1290.74 1534.15 1288.4 1532.04 Q1286.06 1529.94 1282.06 1529.94 Q1280.18 1529.94 1278.31 1530.35 Q1276.46 1530.77 1274.51 1531.65 L1274.51 1514.29 Z" fill="#000000" fill-rule="nonzero" fill-opacity="1" /><path clip-path="url(#clip020)" d="M1314.63 1517.37 Q1311.02 1517.37 1309.19 1520.93 Q1307.38 1524.47 1307.38 1531.6 Q1307.38 1538.71 1309.19 1542.27 Q1311.02 1545.82 1314.63 1545.82 Q1318.26 1545.82 1320.07 1542.27 Q1321.9 1538.71 1321.9 1531.6 Q1321.9 1524.47 1320.07 1520.93 Q1318.26 1517.37 1314.63 1517.37 M1314.63 1513.66 Q1320.44 1513.66 1323.49 1518.27 Q1326.57 1522.85 1326.57 1531.6 Q1326.57 1540.33 1323.49 1544.94 Q1320.44 1549.52 1314.63 1549.52 Q1308.82 1549.52 1305.74 1544.94 Q1302.68 1540.33 1302.68 1531.6 Q1302.68 1522.85 1305.74 1518.27 Q1308.82 1513.66 1314.63 1513.66 Z" fill="#000000" fill-rule="nonzero" fill-opacity="1" /><path clip-path="url(#clip020)" d="M1754.56 1517.37 Q1750.95 1517.37 1749.12 1520.93 Q1747.32 1524.47 1747.32 1531.6 Q1747.32 1538.71 1749.12 1542.27 Q1750.95 1545.82 1754.56 1545.82 Q1758.2 1545.82 1760 1542.27 Q1761.83 1538.71 1761.83 1531.6 Q1761.83 1524.47 1760 1520.93 Q1758.2 1517.37 1754.56 1517.37 M1754.56 1513.66 Q1760.37 1513.66 1763.43 1518.27 Q1766.51 1522.85 1766.51 1531.6 Q1766.51 1540.33 1763.43 1544.94 Q1760.37 1549.52 1754.56 1549.52 Q1748.75 1549.52 1745.67 1544.94 Q1742.62 1540.33 1742.62 1531.6 Q1742.62 1522.85 1745.67 1518.27 Q1748.75 1513.66 1754.56 1513.66 Z" fill="#000000" fill-rule="nonzero" fill-opacity="1" /><path clip-path="url(#clip020)" d="M1774.72 1542.97 L1779.61 1542.97 L1779.61 1548.85 L1774.72 1548.85 L1774.72 1542.97 Z" fill="#000000" fill-rule="nonzero" fill-opacity="1" /><path clip-path="url(#clip020)" d="M1788.61 1514.29 L1810.83 1514.29 L1810.83 1516.28 L1798.29 1548.85 L1793.4 1548.85 L1805.21 1518.22 L1788.61 1518.22 L1788.61 1514.29 Z" fill="#000000" fill-rule="nonzero" fill-opacity="1" /><path clip-path="url(#clip020)" d="M1820 1514.29 L1838.36 1514.29 L1838.36 1518.22 L1824.28 1518.22 L1824.28 1526.7 Q1825.3 1526.35 1826.32 1526.19 Q1827.34 1526 1828.36 1526 Q1834.14 1526 1837.52 1529.17 Q1840.9 1532.34 1840.9 1537.76 Q1840.9 1543.34 1837.43 1546.44 Q1833.96 1549.52 1827.64 1549.52 Q1825.46 1549.52 1823.2 1549.15 Q1820.95 1548.78 1818.54 1548.04 L1818.54 1543.34 Q1820.63 1544.47 1822.85 1545.03 Q1825.07 1545.58 1827.55 1545.58 Q1831.55 1545.58 1833.89 1543.48 Q1836.23 1541.37 1836.23 1537.76 Q1836.23 1534.15 1833.89 1532.04 Q1831.55 1529.94 1827.55 1529.94 Q1825.67 1529.94 1823.8 1530.35 Q1821.95 1530.77 1820 1531.65 L1820 1514.29 Z" fill="#000000" fill-rule="nonzero" fill-opacity="1" /><path clip-path="url(#clip020)" d="M2258.66 1544.91 L2266.3 1544.91 L2266.3 1518.55 L2257.99 1520.21 L2257.99 1515.95 L2266.25 1514.29 L2270.93 1514.29 L2270.93 1544.91 L2278.57 1544.91 L2278.57 1548.85 L2258.66 1548.85 L2258.66 1544.91 Z" fill="#000000" fill-rule="nonzero" fill-opacity="1" /><path clip-path="url(#clip020)" d="M2288.01 1542.97 L2292.9 1542.97 L2292.9 1548.85 L2288.01 1548.85 L2288.01 1542.97 Z" fill="#000000" fill-rule="nonzero" fill-opacity="1" /><path clip-path="url(#clip020)" d="M2313.08 1517.37 Q2309.47 1517.37 2307.64 1520.93 Q2305.84 1524.47 2305.84 1531.6 Q2305.84 1538.71 2307.64 1542.27 Q2309.47 1545.82 2313.08 1545.82 Q2316.72 1545.82 2318.52 1542.27 Q2320.35 1538.71 2320.35 1531.6 Q2320.35 1524.47 2318.52 1520.93 Q2316.72 1517.37 2313.08 1517.37 M2313.08 1513.66 Q2318.89 1513.66 2321.95 1518.27 Q2325.03 1522.85 2325.03 1531.6 Q2325.03 1540.33 2321.95 1544.94 Q2318.89 1549.52 2313.08 1549.52 Q2307.27 1549.52 2304.19 1544.94 Q2301.14 1540.33 2301.14 1531.6 Q2301.14 1522.85 2304.19 1518.27 Q2307.27 1513.66 2313.08 1513.66 Z" fill="#000000" fill-rule="nonzero" fill-opacity="1" /><path clip-path="url(#clip020)" d="M2343.24 1517.37 Q2339.63 1517.37 2337.8 1520.93 Q2336 1524.47 2336 1531.6 Q2336 1538.71 2337.8 1542.27 Q2339.63 1545.82 2343.24 1545.82 Q2346.88 1545.82 2348.68 1542.27 Q2350.51 1538.71 2350.51 1531.6 Q2350.51 1524.47 2348.68 1520.93 Q2346.88 1517.37 2343.24 1517.37 M2343.24 1513.66 Q2349.05 1513.66 2352.11 1518.27 Q2355.19 1522.85 2355.19 1531.6 Q2355.19 1540.33 2352.11 1544.94 Q2349.05 1549.52 2343.24 1549.52 Q2337.43 1549.52 2334.36 1544.94 Q2331.3 1540.33 2331.3 1531.6 Q2331.3 1522.85 2334.36 1518.27 Q2337.43 1513.66 2343.24 1513.66 Z" fill="#000000" fill-rule="nonzero" fill-opacity="1" /><polyline clip-path="url(#clip020)" style="stroke:#000000; stroke-linecap:round; stroke-linejoin:round; stroke-width:4; stroke-opacity:1; fill:none" points="186.274,1486.45 186.274,123.472 "/>
<polyline clip-path="url(#clip020)" style="stroke:#000000; stroke-linecap:round; stroke-linejoin:round; stroke-width:4; stroke-opacity:1; fill:none" points="186.274,1455.89 205.172,1455.89 "/>
<polyline clip-path="url(#clip020)" style="stroke:#000000; stroke-linecap:round; stroke-linejoin:round; stroke-width:4; stroke-opacity:1; fill:none" points="186.274,1126.4 205.172,1126.4 "/>
<polyline clip-path="url(#clip020)" style="stroke:#000000; stroke-linecap:round; stroke-linejoin:round; stroke-width:4; stroke-opacity:1; fill:none" points="186.274,796.913 205.172,796.913 "/>
<polyline clip-path="url(#clip020)" style="stroke:#000000; stroke-linecap:round; stroke-linejoin:round; stroke-width:4; stroke-opacity:1; fill:none" points="186.274,467.426 205.172,467.426 "/>
<polyline clip-path="url(#clip020)" style="stroke:#000000; stroke-linecap:round; stroke-linejoin:round; stroke-width:4; stroke-opacity:1; fill:none" points="186.274,137.939 205.172,137.939 "/>
<path clip-path="url(#clip020)" d="M62.9365 1441.69 Q59.3254 1441.69 57.4967 1445.25 Q55.6912 1448.79 55.6912 1455.92 Q55.6912 1463.03 57.4967 1466.59 Q59.3254 1470.13 62.9365 1470.13 Q66.5707 1470.13 68.3763 1466.59 Q70.205 1463.03 70.205 1455.92 Q70.205 1448.79 68.3763 1445.25 Q66.5707 1441.69 62.9365 1441.69 M62.9365 1437.98 Q68.7467 1437.98 71.8022 1442.59 Q74.8809 1447.17 74.8809 1455.92 Q74.8809 1464.65 71.8022 1469.26 Q68.7467 1473.84 62.9365 1473.84 Q57.1264 1473.84 54.0477 1469.26 Q50.9921 1464.65 50.9921 1455.92 Q50.9921 1447.17 54.0477 1442.59 Q57.1264 1437.98 62.9365 1437.98 Z" fill="#000000" fill-rule="nonzero" fill-opacity="1" /><path clip-path="url(#clip020)" d="M83.0984 1467.29 L87.9827 1467.29 L87.9827 1473.17 L83.0984 1473.17 L83.0984 1467.29 Z" fill="#000000" fill-rule="nonzero" fill-opacity="1" /><path clip-path="url(#clip020)" d="M108.168 1441.69 Q104.557 1441.69 102.728 1445.25 Q100.922 1448.79 100.922 1455.92 Q100.922 1463.03 102.728 1466.59 Q104.557 1470.13 108.168 1470.13 Q111.802 1470.13 113.608 1466.59 Q115.436 1463.03 115.436 1455.92 Q115.436 1448.79 113.608 1445.25 Q111.802 1441.69 108.168 1441.69 M108.168 1437.98 Q113.978 1437.98 117.033 1442.59 Q120.112 1447.17 120.112 1455.92 Q120.112 1464.65 117.033 1469.26 Q113.978 1473.84 108.168 1473.84 Q102.358 1473.84 99.2789 1469.26 Q96.2234 1464.65 96.2234 1455.92 Q96.2234 1447.17 99.2789 1442.59 Q102.358 1437.98 108.168 1437.98 Z" fill="#000000" fill-rule="nonzero" fill-opacity="1" /><path clip-path="url(#clip020)" d="M138.33 1441.69 Q134.719 1441.69 132.89 1445.25 Q131.084 1448.79 131.084 1455.92 Q131.084 1463.03 132.89 1466.59 Q134.719 1470.13 138.33 1470.13 Q141.964 1470.13 143.769 1466.59 Q145.598 1463.03 145.598 1455.92 Q145.598 1448.79 143.769 1445.25 Q141.964 1441.69 138.33 1441.69 M138.33 1437.98 Q144.14 1437.98 147.195 1442.59 Q150.274 1447.17 150.274 1455.92 Q150.274 1464.65 147.195 1469.26 Q144.14 1473.84 138.33 1473.84 Q132.519 1473.84 129.441 1469.26 Q126.385 1464.65 126.385 1455.92 Q126.385 1447.17 129.441 1442.59 Q132.519 1437.98 138.33 1437.98 Z" fill="#000000" fill-rule="nonzero" fill-opacity="1" /><path clip-path="url(#clip020)" d="M63.9319 1112.2 Q60.3208 1112.2 58.4921 1115.76 Q56.6865 1119.31 56.6865 1126.44 Q56.6865 1133.54 58.4921 1137.11 Q60.3208 1140.65 63.9319 1140.65 Q67.5661 1140.65 69.3717 1137.11 Q71.2004 1133.54 71.2004 1126.44 Q71.2004 1119.31 69.3717 1115.76 Q67.5661 1112.2 63.9319 1112.2 M63.9319 1108.5 Q69.742 1108.5 72.7976 1113.1 Q75.8763 1117.69 75.8763 1126.44 Q75.8763 1135.16 72.7976 1139.77 Q69.742 1144.35 63.9319 1144.35 Q58.1217 1144.35 55.043 1139.77 Q51.9875 1135.16 51.9875 1126.44 Q51.9875 1117.69 55.043 1113.1 Q58.1217 1108.5 63.9319 1108.5 Z" fill="#000000" fill-rule="nonzero" fill-opacity="1" /><path clip-path="url(#clip020)" d="M84.0938 1137.8 L88.978 1137.8 L88.978 1143.68 L84.0938 1143.68 L84.0938 1137.8 Z" fill="#000000" fill-rule="nonzero" fill-opacity="1" /><path clip-path="url(#clip020)" d="M103.191 1139.75 L119.51 1139.75 L119.51 1143.68 L97.566 1143.68 L97.566 1139.75 Q100.228 1136.99 104.811 1132.36 Q109.418 1127.71 110.598 1126.37 Q112.844 1123.84 113.723 1122.11 Q114.626 1120.35 114.626 1118.66 Q114.626 1115.9 112.682 1114.17 Q110.76 1112.43 107.658 1112.43 Q105.459 1112.43 103.006 1113.19 Q100.575 1113.96 97.7974 1115.51 L97.7974 1110.79 Q100.621 1109.65 103.075 1109.07 Q105.529 1108.5 107.566 1108.5 Q112.936 1108.5 116.131 1111.18 Q119.325 1113.87 119.325 1118.36 Q119.325 1120.49 118.515 1122.41 Q117.728 1124.31 115.621 1126.9 Q115.043 1127.57 111.941 1130.79 Q108.839 1133.98 103.191 1139.75 Z" fill="#000000" fill-rule="nonzero" fill-opacity="1" /><path clip-path="url(#clip020)" d="M129.371 1109.12 L147.728 1109.12 L147.728 1113.06 L133.654 1113.06 L133.654 1121.53 Q134.672 1121.18 135.691 1121.02 Q136.709 1120.83 137.728 1120.83 Q143.515 1120.83 146.894 1124 Q150.274 1127.18 150.274 1132.59 Q150.274 1138.17 146.802 1141.27 Q143.33 1144.35 137.01 1144.35 Q134.834 1144.35 132.566 1143.98 Q130.32 1143.61 127.913 1142.87 L127.913 1138.17 Q129.996 1139.31 132.219 1139.86 Q134.441 1140.42 136.918 1140.42 Q140.922 1140.42 143.26 1138.31 Q145.598 1136.2 145.598 1132.59 Q145.598 1128.98 143.26 1126.87 Q140.922 1124.77 136.918 1124.77 Q135.043 1124.77 133.168 1125.19 Q131.316 1125.6 129.371 1126.48 L129.371 1109.12 Z" fill="#000000" fill-rule="nonzero" fill-opacity="1" /><path clip-path="url(#clip020)" d="M62.9365 782.712 Q59.3254 782.712 57.4967 786.277 Q55.6912 789.819 55.6912 796.948 Q55.6912 804.055 57.4967 807.619 Q59.3254 811.161 62.9365 811.161 Q66.5707 811.161 68.3763 807.619 Q70.205 804.055 70.205 796.948 Q70.205 789.819 68.3763 786.277 Q66.5707 782.712 62.9365 782.712 M62.9365 779.008 Q68.7467 779.008 71.8022 783.615 Q74.8809 788.198 74.8809 796.948 Q74.8809 805.675 71.8022 810.281 Q68.7467 814.865 62.9365 814.865 Q57.1264 814.865 54.0477 810.281 Q50.9921 805.675 50.9921 796.948 Q50.9921 788.198 54.0477 783.615 Q57.1264 779.008 62.9365 779.008 Z" fill="#000000" fill-rule="nonzero" fill-opacity="1" /><path clip-path="url(#clip020)" d="M83.0984 808.314 L87.9827 808.314 L87.9827 814.193 L83.0984 814.193 L83.0984 808.314 Z" fill="#000000" fill-rule="nonzero" fill-opacity="1" /><path clip-path="url(#clip020)" d="M98.2141 779.633 L116.57 779.633 L116.57 783.569 L102.496 783.569 L102.496 792.041 Q103.515 791.694 104.534 791.531 Q105.552 791.346 106.571 791.346 Q112.358 791.346 115.737 794.518 Q119.117 797.689 119.117 803.106 Q119.117 808.684 115.645 811.786 Q112.172 814.865 105.853 814.865 Q103.677 814.865 101.409 814.494 Q99.1632 814.124 96.7558 813.383 L96.7558 808.684 Q98.8391 809.818 101.061 810.374 Q103.284 810.93 105.76 810.93 Q109.765 810.93 112.103 808.823 Q114.441 806.717 114.441 803.106 Q114.441 799.494 112.103 797.388 Q109.765 795.281 105.76 795.281 Q103.885 795.281 102.01 795.698 Q100.159 796.115 98.2141 796.994 L98.2141 779.633 Z" fill="#000000" fill-rule="nonzero" fill-opacity="1" /><path clip-path="url(#clip020)" d="M138.33 782.712 Q134.719 782.712 132.89 786.277 Q131.084 789.819 131.084 796.948 Q131.084 804.055 132.89 807.619 Q134.719 811.161 138.33 811.161 Q141.964 811.161 143.769 807.619 Q145.598 804.055 145.598 796.948 Q145.598 789.819 143.769 786.277 Q141.964 782.712 138.33 782.712 M138.33 779.008 Q144.14 779.008 147.195 783.615 Q150.274 788.198 150.274 796.948 Q150.274 805.675 147.195 810.281 Q144.14 814.865 138.33 814.865 Q132.519 814.865 129.441 810.281 Q126.385 805.675 126.385 796.948 Q126.385 788.198 129.441 783.615 Q132.519 779.008 138.33 779.008 Z" fill="#000000" fill-rule="nonzero" fill-opacity="1" /><path clip-path="url(#clip020)" d="M63.9319 453.225 Q60.3208 453.225 58.4921 456.79 Q56.6865 460.332 56.6865 467.461 Q56.6865 474.568 58.4921 478.132 Q60.3208 481.674 63.9319 481.674 Q67.5661 481.674 69.3717 478.132 Q71.2004 474.568 71.2004 467.461 Q71.2004 460.332 69.3717 456.79 Q67.5661 453.225 63.9319 453.225 M63.9319 449.521 Q69.742 449.521 72.7976 454.128 Q75.8763 458.711 75.8763 467.461 Q75.8763 476.188 72.7976 480.794 Q69.742 485.378 63.9319 485.378 Q58.1217 485.378 55.043 480.794 Q51.9875 476.188 51.9875 467.461 Q51.9875 458.711 55.043 454.128 Q58.1217 449.521 63.9319 449.521 Z" fill="#000000" fill-rule="nonzero" fill-opacity="1" /><path clip-path="url(#clip020)" d="M84.0938 478.827 L88.978 478.827 L88.978 484.706 L84.0938 484.706 L84.0938 478.827 Z" fill="#000000" fill-rule="nonzero" fill-opacity="1" /><path clip-path="url(#clip020)" d="M97.9826 450.146 L120.205 450.146 L120.205 452.137 L107.658 484.706 L102.774 484.706 L114.58 454.082 L97.9826 454.082 L97.9826 450.146 Z" fill="#000000" fill-rule="nonzero" fill-opacity="1" /><path clip-path="url(#clip020)" d="M129.371 450.146 L147.728 450.146 L147.728 454.082 L133.654 454.082 L133.654 462.554 Q134.672 462.207 135.691 462.045 Q136.709 461.859 137.728 461.859 Q143.515 461.859 146.894 465.031 Q150.274 468.202 150.274 473.619 Q150.274 479.197 146.802 482.299 Q143.33 485.378 137.01 485.378 Q134.834 485.378 132.566 485.007 Q130.32 484.637 127.913 483.896 L127.913 479.197 Q129.996 480.331 132.219 480.887 Q134.441 481.443 136.918 481.443 Q140.922 481.443 143.26 479.336 Q145.598 477.23 145.598 473.619 Q145.598 470.007 143.26 467.901 Q140.922 465.795 136.918 465.795 Q135.043 465.795 133.168 466.211 Q131.316 466.628 129.371 467.507 L129.371 450.146 Z" fill="#000000" fill-rule="nonzero" fill-opacity="1" /><path clip-path="url(#clip020)" d="M53.7467 151.284 L61.3856 151.284 L61.3856 124.919 L53.0754 126.585 L53.0754 122.326 L61.3393 120.659 L66.0152 120.659 L66.0152 151.284 L73.654 151.284 L73.654 155.219 L53.7467 155.219 L53.7467 151.284 Z" fill="#000000" fill-rule="nonzero" fill-opacity="1" /><path clip-path="url(#clip020)" d="M83.0984 149.34 L87.9827 149.34 L87.9827 155.219 L83.0984 155.219 L83.0984 149.34 Z" fill="#000000" fill-rule="nonzero" fill-opacity="1" /><path clip-path="url(#clip020)" d="M108.168 123.738 Q104.557 123.738 102.728 127.303 Q100.922 130.845 100.922 137.974 Q100.922 145.081 102.728 148.645 Q104.557 152.187 108.168 152.187 Q111.802 152.187 113.608 148.645 Q115.436 145.081 115.436 137.974 Q115.436 130.845 113.608 127.303 Q111.802 123.738 108.168 123.738 M108.168 120.034 Q113.978 120.034 117.033 124.641 Q120.112 129.224 120.112 137.974 Q120.112 146.701 117.033 151.307 Q113.978 155.891 108.168 155.891 Q102.358 155.891 99.2789 151.307 Q96.2234 146.701 96.2234 137.974 Q96.2234 129.224 99.2789 124.641 Q102.358 120.034 108.168 120.034 Z" fill="#000000" fill-rule="nonzero" fill-opacity="1" /><path clip-path="url(#clip020)" d="M138.33 123.738 Q134.719 123.738 132.89 127.303 Q131.084 130.845 131.084 137.974 Q131.084 145.081 132.89 148.645 Q134.719 152.187 138.33 152.187 Q141.964 152.187 143.769 148.645 Q145.598 145.081 145.598 137.974 Q145.598 130.845 143.769 127.303 Q141.964 123.738 138.33 123.738 M138.33 120.034 Q144.14 120.034 147.195 124.641 Q150.274 129.224 150.274 137.974 Q150.274 146.701 147.195 151.307 Q144.14 155.891 138.33 155.891 Q132.519 155.891 129.441 151.307 Q126.385 146.701 126.385 137.974 Q126.385 129.224 129.441 124.641 Q132.519 120.034 138.33 120.034 Z" fill="#000000" fill-rule="nonzero" fill-opacity="1" /><path clip-path="url(#clip020)" d="M1071.14 14.0809 L1071.14 22.0612 Q1066.48 19.8332 1062.35 18.7395 Q1058.22 17.6457 1054.37 17.6457 Q1047.69 17.6457 1044.04 20.2383 Q1040.44 22.8309 1040.44 27.611 Q1040.44 31.6214 1042.83 33.6873 Q1045.26 35.7128 1051.98 36.9686 L1056.92 37.9813 Q1066.08 39.7232 1070.41 44.1387 Q1074.79 48.5136 1074.79 55.8863 Q1074.79 64.6767 1068.87 69.2137 Q1063 73.7508 1051.62 73.7508 Q1047.32 73.7508 1042.46 72.7785 Q1037.64 71.8063 1032.46 69.9024 L1032.46 61.4765 Q1037.44 64.2716 1042.22 65.6895 Q1047 67.1073 1051.62 67.1073 Q1058.62 67.1073 1062.43 64.3527 Q1066.24 61.598 1066.24 56.4939 Q1066.24 52.0379 1063.49 49.5264 Q1060.77 47.0148 1054.53 45.759 L1049.55 44.7868 Q1040.4 42.9639 1036.3 39.075 Q1032.21 35.1862 1032.21 28.2591 Q1032.21 20.2383 1037.84 15.6203 Q1043.52 11.0023 1053.44 11.0023 Q1057.69 11.0023 1062.11 11.7719 Q1066.52 12.5416 1071.14 14.0809 Z" fill="#000000" fill-rule="nonzero" fill-opacity="1" /><path clip-path="url(#clip020)" d="M1119.87 28.9478 L1119.87 35.9153 Q1116.71 34.1734 1113.51 33.3227 Q1110.35 32.4315 1107.11 32.4315 Q1099.86 32.4315 1095.85 37.0496 Q1091.84 41.6271 1091.84 49.9314 Q1091.84 58.2358 1095.85 62.8538 Q1099.86 67.4314 1107.11 67.4314 Q1110.35 67.4314 1113.51 66.5807 Q1116.71 65.6895 1119.87 63.9476 L1119.87 70.8341 Q1116.76 72.2924 1113.39 73.0216 Q1110.07 73.7508 1106.3 73.7508 Q1096.06 73.7508 1090.02 67.3098 Q1083.98 60.8689 1083.98 49.9314 Q1083.98 38.832 1090.06 32.472 Q1096.18 26.1121 1106.79 26.1121 Q1110.23 26.1121 1113.51 26.8413 Q1116.8 27.5299 1119.87 28.9478 Z" fill="#000000" fill-rule="nonzero" fill-opacity="1" /><path clip-path="url(#clip020)" d="M1153.46 49.7694 Q1144.42 49.7694 1140.94 51.8354 Q1137.46 53.9013 1137.46 58.8839 Q1137.46 62.8538 1140.05 65.2034 Q1142.68 67.5124 1147.18 67.5124 Q1153.38 67.5124 1157.1 63.1374 Q1160.87 58.7219 1160.87 51.4303 L1160.87 49.7694 L1153.46 49.7694 M1168.32 46.6907 L1168.32 72.576 L1160.87 72.576 L1160.87 65.6895 Q1158.32 69.8214 1154.51 71.8063 Q1150.7 73.7508 1145.19 73.7508 Q1138.23 73.7508 1134.09 69.8619 Q1130 65.9325 1130 59.3701 Q1130 51.7138 1135.11 47.825 Q1140.25 43.9361 1150.42 43.9361 L1160.87 43.9361 L1160.87 43.2069 Q1160.87 38.0623 1157.47 35.2672 Q1154.1 32.4315 1147.99 32.4315 Q1144.1 32.4315 1140.41 33.3632 Q1136.73 34.295 1133.32 36.1584 L1133.32 29.2718 Q1137.41 27.692 1141.26 26.9223 Q1145.11 26.1121 1148.76 26.1121 Q1158.6 26.1121 1163.46 31.2163 Q1168.32 36.3204 1168.32 46.6907 Z" fill="#000000" fill-rule="nonzero" fill-opacity="1" /><path clip-path="url(#clip020)" d="M1191.05 14.324 L1191.05 27.2059 L1206.4 27.2059 L1206.4 32.9987 L1191.05 32.9987 L1191.05 57.6282 Q1191.05 63.1779 1192.55 64.7578 Q1194.09 66.3376 1198.75 66.3376 L1206.4 66.3376 L1206.4 72.576 L1198.75 72.576 Q1190.12 72.576 1186.84 69.3758 Q1183.55 66.1351 1183.55 57.6282 L1183.55 32.9987 L1178.09 32.9987 L1178.09 27.2059 L1183.55 27.2059 L1183.55 14.324 L1191.05 14.324 Z" fill="#000000" fill-rule="nonzero" fill-opacity="1" /><path clip-path="url(#clip020)" d="M1223.58 14.324 L1223.58 27.2059 L1238.93 27.2059 L1238.93 32.9987 L1223.58 32.9987 L1223.58 57.6282 Q1223.58 63.1779 1225.08 64.7578 Q1226.62 66.3376 1231.27 66.3376 L1238.93 66.3376 L1238.93 72.576 L1231.27 72.576 Q1222.65 72.576 1219.36 69.3758 Q1216.08 66.1351 1216.08 57.6282 L1216.08 32.9987 L1210.61 32.9987 L1210.61 27.2059 L1216.08 27.2059 L1216.08 14.324 L1223.58 14.324 Z" fill="#000000" fill-rule="nonzero" fill-opacity="1" /><path clip-path="url(#clip020)" d="M1287.54 48.0275 L1287.54 51.6733 L1253.27 51.6733 Q1253.76 59.3701 1257.89 63.421 Q1262.06 67.4314 1269.47 67.4314 Q1273.77 67.4314 1277.78 66.3781 Q1281.83 65.3249 1285.8 63.2184 L1285.8 70.267 Q1281.79 71.9684 1277.58 72.8596 Q1273.36 73.7508 1269.03 73.7508 Q1258.17 73.7508 1251.81 67.4314 Q1245.49 61.1119 1245.49 50.3365 Q1245.49 39.1965 1251.49 32.6746 Q1257.52 26.1121 1267.73 26.1121 Q1276.89 26.1121 1282.19 32.0264 Q1287.54 37.9003 1287.54 48.0275 M1280.09 45.84 Q1280.01 39.7232 1276.64 36.0774 Q1273.32 32.4315 1267.81 32.4315 Q1261.58 32.4315 1257.81 35.9558 Q1254.08 39.4801 1253.51 45.8805 L1280.09 45.84 Z" fill="#000000" fill-rule="nonzero" fill-opacity="1" /><path clip-path="url(#clip020)" d="M1326.07 34.1734 Q1324.81 33.4443 1323.31 33.1202 Q1321.85 32.7556 1320.07 32.7556 Q1313.75 32.7556 1310.35 36.8875 Q1306.99 40.9789 1306.99 48.6757 L1306.99 72.576 L1299.49 72.576 L1299.49 27.2059 L1306.99 27.2059 L1306.99 34.2544 Q1309.34 30.1225 1313.1 28.1376 Q1316.87 26.1121 1322.26 26.1121 Q1323.03 26.1121 1323.96 26.2337 Q1324.89 26.3147 1326.03 26.5172 L1326.07 34.1734 Z" fill="#000000" fill-rule="nonzero" fill-opacity="1" /><path clip-path="url(#clip020)" d="M1368.76 18.8205 L1368.76 41.5461 L1379.05 41.5461 Q1384.76 41.5461 1387.88 38.5889 Q1391 35.6318 1391 30.163 Q1391 24.7348 1387.88 21.7777 Q1384.76 18.8205 1379.05 18.8205 L1368.76 18.8205 M1360.58 12.096 L1379.05 12.096 Q1389.22 12.096 1394.4 16.714 Q1399.63 21.2916 1399.63 30.163 Q1399.63 39.1155 1394.4 43.6931 Q1389.22 48.2706 1379.05 48.2706 L1368.76 48.2706 L1368.76 72.576 L1360.58 72.576 L1360.58 12.096 Z" fill="#000000" fill-rule="nonzero" fill-opacity="1" /><path clip-path="url(#clip020)" d="M1410.28 9.54393 L1417.74 9.54393 L1417.74 72.576 L1410.28 72.576 L1410.28 9.54393 Z" fill="#000000" fill-rule="nonzero" fill-opacity="1" /><path clip-path="url(#clip020)" d="M1450.91 32.4315 Q1444.92 32.4315 1441.44 37.1306 Q1437.95 41.7891 1437.95 49.9314 Q1437.95 58.0738 1441.39 62.7728 Q1444.88 67.4314 1450.91 67.4314 Q1456.87 67.4314 1460.35 62.7323 Q1463.84 58.0333 1463.84 49.9314 Q1463.84 41.8701 1460.35 37.1711 Q1456.87 32.4315 1450.91 32.4315 M1450.91 26.1121 Q1460.64 26.1121 1466.19 32.4315 Q1471.74 38.7509 1471.74 49.9314 Q1471.74 61.0714 1466.19 67.4314 Q1460.64 73.7508 1450.91 73.7508 Q1441.15 73.7508 1435.6 67.4314 Q1430.09 61.0714 1430.09 49.9314 Q1430.09 38.7509 1435.6 32.4315 Q1441.15 26.1121 1450.91 26.1121 Z" fill="#000000" fill-rule="nonzero" fill-opacity="1" /><path clip-path="url(#clip020)" d="M1491.46 14.324 L1491.46 27.2059 L1506.82 27.2059 L1506.82 32.9987 L1491.46 32.9987 L1491.46 57.6282 Q1491.46 63.1779 1492.96 64.7578 Q1494.5 66.3376 1499.16 66.3376 L1506.82 66.3376 L1506.82 72.576 L1499.16 72.576 Q1490.53 72.576 1487.25 69.3758 Q1483.97 66.1351 1483.97 57.6282 L1483.97 32.9987 L1478.5 32.9987 L1478.5 27.2059 L1483.97 27.2059 L1483.97 14.324 L1491.46 14.324 Z" fill="#000000" fill-rule="nonzero" fill-opacity="1" /><circle clip-path="url(#clip022)" cx="465.923" cy="641.373" r="14.4" fill="#009af9" fill-rule="evenodd" fill-opacity="1" stroke="#000000" stroke-opacity="1" stroke-width="3.2"/>
<circle clip-path="url(#clip022)" cx="1831.8" cy="1075.9" r="14.4" fill="#009af9" fill-rule="evenodd" fill-opacity="1" stroke="#000000" stroke-opacity="1" stroke-width="3.2"/>
<circle clip-path="url(#clip022)" cx="1949.42" cy="349.995" r="14.4" fill="#009af9" fill-rule="evenodd" fill-opacity="1" stroke="#000000" stroke-opacity="1" stroke-width="3.2"/>
<circle clip-path="url(#clip022)" cx="1627.41" cy="865.503" r="14.4" fill="#009af9" fill-rule="evenodd" fill-opacity="1" stroke="#000000" stroke-opacity="1" stroke-width="3.2"/>
<circle clip-path="url(#clip022)" cx="607.828" cy="617.644" r="14.4" fill="#009af9" fill-rule="evenodd" fill-opacity="1" stroke="#000000" stroke-opacity="1" stroke-width="3.2"/>
<circle clip-path="url(#clip022)" cx="1569" cy="324.353" r="14.4" fill="#009af9" fill-rule="evenodd" fill-opacity="1" stroke="#000000" stroke-opacity="1" stroke-width="3.2"/>
<circle clip-path="url(#clip022)" cx="1007.17" cy="908.462" r="14.4" fill="#009af9" fill-rule="evenodd" fill-opacity="1" stroke="#000000" stroke-opacity="1" stroke-width="3.2"/>
<circle clip-path="url(#clip022)" cx="1739.7" cy="1347.51" r="14.4" fill="#009af9" fill-rule="evenodd" fill-opacity="1" stroke="#000000" stroke-opacity="1" stroke-width="3.2"/>
<circle clip-path="url(#clip022)" cx="482.684" cy="906.968" r="14.4" fill="#009af9" fill-rule="evenodd" fill-opacity="1" stroke="#000000" stroke-opacity="1" stroke-width="3.2"/>
<circle clip-path="url(#clip022)" cx="658.477" cy="1099.26" r="14.4" fill="#009af9" fill-rule="evenodd" fill-opacity="1" stroke="#000000" stroke-opacity="1" stroke-width="3.2"/>
<circle clip-path="url(#clip022)" cx="931.418" cy="286.723" r="14.4" fill="#009af9" fill-rule="evenodd" fill-opacity="1" stroke="#000000" stroke-opacity="1" stroke-width="3.2"/>
<circle clip-path="url(#clip022)" cx="2160.78" cy="714.378" r="14.4" fill="#009af9" fill-rule="evenodd" fill-opacity="1" stroke="#000000" stroke-opacity="1" stroke-width="3.2"/>
<circle clip-path="url(#clip022)" cx="1315.01" cy="1394.8" r="14.4" fill="#009af9" fill-rule="evenodd" fill-opacity="1" stroke="#000000" stroke-opacity="1" stroke-width="3.2"/>
<circle clip-path="url(#clip022)" cx="1767.25" cy="1330.55" r="14.4" fill="#009af9" fill-rule="evenodd" fill-opacity="1" stroke="#000000" stroke-opacity="1" stroke-width="3.2"/>
<circle clip-path="url(#clip022)" cx="817.953" cy="526.925" r="14.4" fill="#009af9" fill-rule="evenodd" fill-opacity="1" stroke="#000000" stroke-opacity="1" stroke-width="3.2"/>
<circle clip-path="url(#clip022)" cx="1052.9" cy="942.838" r="14.4" fill="#009af9" fill-rule="evenodd" fill-opacity="1" stroke="#000000" stroke-opacity="1" stroke-width="3.2"/>
<circle clip-path="url(#clip022)" cx="1587.99" cy="513.401" r="14.4" fill="#009af9" fill-rule="evenodd" fill-opacity="1" stroke="#000000" stroke-opacity="1" stroke-width="3.2"/>
<circle clip-path="url(#clip022)" cx="550.046" cy="1082.5" r="14.4" fill="#009af9" fill-rule="evenodd" fill-opacity="1" stroke="#000000" stroke-opacity="1" stroke-width="3.2"/>
<circle clip-path="url(#clip022)" cx="648.75" cy="252.678" r="14.4" fill="#009af9" fill-rule="evenodd" fill-opacity="1" stroke="#000000" stroke-opacity="1" stroke-width="3.2"/>
<circle clip-path="url(#clip022)" cx="1634.34" cy="843.597" r="14.4" fill="#009af9" fill-rule="evenodd" fill-opacity="1" stroke="#000000" stroke-opacity="1" stroke-width="3.2"/>
<circle clip-path="url(#clip022)" cx="2192.76" cy="500.959" r="14.4" fill="#009af9" fill-rule="evenodd" fill-opacity="1" stroke="#000000" stroke-opacity="1" stroke-width="3.2"/>
<circle clip-path="url(#clip022)" cx="956.045" cy="860.852" r="14.4" fill="#009af9" fill-rule="evenodd" fill-opacity="1" stroke="#000000" stroke-opacity="1" stroke-width="3.2"/>
<circle clip-path="url(#clip022)" cx="2088.02" cy="1087.98" r="14.4" fill="#009af9" fill-rule="evenodd" fill-opacity="1" stroke="#000000" stroke-opacity="1" stroke-width="3.2"/>
<circle clip-path="url(#clip022)" cx="1916.78" cy="1187.15" r="14.4" fill="#009af9" fill-rule="evenodd" fill-opacity="1" stroke="#000000" stroke-opacity="1" stroke-width="3.2"/>
<circle clip-path="url(#clip022)" cx="789.884" cy="1278.28" r="14.4" fill="#009af9" fill-rule="evenodd" fill-opacity="1" stroke="#000000" stroke-opacity="1" stroke-width="3.2"/>
<circle clip-path="url(#clip022)" cx="1704.9" cy="833.324" r="14.4" fill="#009af9" fill-rule="evenodd" fill-opacity="1" stroke="#000000" stroke-opacity="1" stroke-width="3.2"/>
<circle clip-path="url(#clip022)" cx="1732.07" cy="1310.87" r="14.4" fill="#009af9" fill-rule="evenodd" fill-opacity="1" stroke="#000000" stroke-opacity="1" stroke-width="3.2"/>
<circle clip-path="url(#clip022)" cx="1676.65" cy="1086.87" r="14.4" fill="#009af9" fill-rule="evenodd" fill-opacity="1" stroke="#000000" stroke-opacity="1" stroke-width="3.2"/>
<circle clip-path="url(#clip022)" cx="1162.76" cy="1017.81" r="14.4" fill="#009af9" fill-rule="evenodd" fill-opacity="1" stroke="#000000" stroke-opacity="1" stroke-width="3.2"/>
<circle clip-path="url(#clip022)" cx="394.256" cy="872.826" r="14.4" fill="#009af9" fill-rule="evenodd" fill-opacity="1" stroke="#000000" stroke-opacity="1" stroke-width="3.2"/>
<circle clip-path="url(#clip022)" cx="1108.13" cy="162.047" r="14.4" fill="#009af9" fill-rule="evenodd" fill-opacity="1" stroke="#000000" stroke-opacity="1" stroke-width="3.2"/>
<circle clip-path="url(#clip022)" cx="1480.92" cy="1033.76" r="14.4" fill="#009af9" fill-rule="evenodd" fill-opacity="1" stroke="#000000" stroke-opacity="1" stroke-width="3.2"/>
<circle clip-path="url(#clip022)" cx="247.59" cy="379.229" r="14.4" fill="#009af9" fill-rule="evenodd" fill-opacity="1" stroke="#000000" stroke-opacity="1" stroke-width="3.2"/>
<circle clip-path="url(#clip022)" cx="884.679" cy="309.239" r="14.4" fill="#009af9" fill-rule="evenodd" fill-opacity="1" stroke="#000000" stroke-opacity="1" stroke-width="3.2"/>
<circle clip-path="url(#clip022)" cx="1562.73" cy="1206.77" r="14.4" fill="#009af9" fill-rule="evenodd" fill-opacity="1" stroke="#000000" stroke-opacity="1" stroke-width="3.2"/>
<circle clip-path="url(#clip022)" cx="2235.8" cy="245.915" r="14.4" fill="#009af9" fill-rule="evenodd" fill-opacity="1" stroke="#000000" stroke-opacity="1" stroke-width="3.2"/>
<circle clip-path="url(#clip022)" cx="2141.46" cy="1119.91" r="14.4" fill="#009af9" fill-rule="evenodd" fill-opacity="1" stroke="#000000" stroke-opacity="1" stroke-width="3.2"/>
<circle clip-path="url(#clip022)" cx="2015.51" cy="1115.31" r="14.4" fill="#009af9" fill-rule="evenodd" fill-opacity="1" stroke="#000000" stroke-opacity="1" stroke-width="3.2"/>
<circle clip-path="url(#clip022)" cx="2202.18" cy="1074.75" r="14.4" fill="#009af9" fill-rule="evenodd" fill-opacity="1" stroke="#000000" stroke-opacity="1" stroke-width="3.2"/>
<circle clip-path="url(#clip022)" cx="1917.24" cy="951.179" r="14.4" fill="#009af9" fill-rule="evenodd" fill-opacity="1" stroke="#000000" stroke-opacity="1" stroke-width="3.2"/>
<circle clip-path="url(#clip022)" cx="1729.36" cy="279.497" r="14.4" fill="#009af9" fill-rule="evenodd" fill-opacity="1" stroke="#000000" stroke-opacity="1" stroke-width="3.2"/>
<circle clip-path="url(#clip022)" cx="689.67" cy="557.655" r="14.4" fill="#009af9" fill-rule="evenodd" fill-opacity="1" stroke="#000000" stroke-opacity="1" stroke-width="3.2"/>
<circle clip-path="url(#clip022)" cx="1731.09" cy="334.78" r="14.4" fill="#009af9" fill-rule="evenodd" fill-opacity="1" stroke="#000000" stroke-opacity="1" stroke-width="3.2"/>
<circle clip-path="url(#clip022)" cx="781.38" cy="994.585" r="14.4" fill="#009af9" fill-rule="evenodd" fill-opacity="1" stroke="#000000" stroke-opacity="1" stroke-width="3.2"/>
<circle clip-path="url(#clip022)" cx="1479.95" cy="790.321" r="14.4" fill="#009af9" fill-rule="evenodd" fill-opacity="1" stroke="#000000" stroke-opacity="1" stroke-width="3.2"/>
<circle clip-path="url(#clip022)" cx="1381.51" cy="490.723" r="14.4" fill="#009af9" fill-rule="evenodd" fill-opacity="1" stroke="#000000" stroke-opacity="1" stroke-width="3.2"/>
<circle clip-path="url(#clip022)" cx="1164.51" cy="214.877" r="14.4" fill="#009af9" fill-rule="evenodd" fill-opacity="1" stroke="#000000" stroke-opacity="1" stroke-width="3.2"/>
<circle clip-path="url(#clip022)" cx="455.45" cy="750.771" r="14.4" fill="#009af9" fill-rule="evenodd" fill-opacity="1" stroke="#000000" stroke-opacity="1" stroke-width="3.2"/>
<circle clip-path="url(#clip022)" cx="852.509" cy="967.422" r="14.4" fill="#009af9" fill-rule="evenodd" fill-opacity="1" stroke="#000000" stroke-opacity="1" stroke-width="3.2"/>
<circle clip-path="url(#clip022)" cx="1353.32" cy="347.172" r="14.4" fill="#009af9" fill-rule="evenodd" fill-opacity="1" stroke="#000000" stroke-opacity="1" stroke-width="3.2"/>
<circle clip-path="url(#clip022)" cx="1539.55" cy="511.893" r="14.4" fill="#009af9" fill-rule="evenodd" fill-opacity="1" stroke="#000000" stroke-opacity="1" stroke-width="3.2"/>
<circle clip-path="url(#clip022)" cx="2236.48" cy="853.086" r="14.4" fill="#009af9" fill-rule="evenodd" fill-opacity="1" stroke="#000000" stroke-opacity="1" stroke-width="3.2"/>
<circle clip-path="url(#clip022)" cx="1615.19" cy="901.388" r="14.4" fill="#009af9" fill-rule="evenodd" fill-opacity="1" stroke="#000000" stroke-opacity="1" stroke-width="3.2"/>
<circle clip-path="url(#clip022)" cx="1282.81" cy="1155.9" r="14.4" fill="#009af9" fill-rule="evenodd" fill-opacity="1" stroke="#000000" stroke-opacity="1" stroke-width="3.2"/>
<circle clip-path="url(#clip022)" cx="603.748" cy="1210.06" r="14.4" fill="#009af9" fill-rule="evenodd" fill-opacity="1" stroke="#000000" stroke-opacity="1" stroke-width="3.2"/>
<circle clip-path="url(#clip022)" cx="502.953" cy="553.838" r="14.4" fill="#009af9" fill-rule="evenodd" fill-opacity="1" stroke="#000000" stroke-opacity="1" stroke-width="3.2"/>
<circle clip-path="url(#clip022)" cx="1150.36" cy="952.744" r="14.4" fill="#009af9" fill-rule="evenodd" fill-opacity="1" stroke="#000000" stroke-opacity="1" stroke-width="3.2"/>
<circle clip-path="url(#clip022)" cx="2291.44" cy="1160.88" r="14.4" fill="#009af9" fill-rule="evenodd" fill-opacity="1" stroke="#000000" stroke-opacity="1" stroke-width="3.2"/>
<circle clip-path="url(#clip022)" cx="965.248" cy="844.102" r="14.4" fill="#009af9" fill-rule="evenodd" fill-opacity="1" stroke="#000000" stroke-opacity="1" stroke-width="3.2"/>
<circle clip-path="url(#clip022)" cx="915.773" cy="1168.64" r="14.4" fill="#009af9" fill-rule="evenodd" fill-opacity="1" stroke="#000000" stroke-opacity="1" stroke-width="3.2"/>
<circle clip-path="url(#clip022)" cx="895.033" cy="371.896" r="14.4" fill="#009af9" fill-rule="evenodd" fill-opacity="1" stroke="#000000" stroke-opacity="1" stroke-width="3.2"/>
<circle clip-path="url(#clip022)" cx="1239.77" cy="1307.12" r="14.4" fill="#009af9" fill-rule="evenodd" fill-opacity="1" stroke="#000000" stroke-opacity="1" stroke-width="3.2"/>
<circle clip-path="url(#clip022)" cx="1275.62" cy="1017.26" r="14.4" fill="#009af9" fill-rule="evenodd" fill-opacity="1" stroke="#000000" stroke-opacity="1" stroke-width="3.2"/>
<circle clip-path="url(#clip022)" cx="1912.78" cy="1014.58" r="14.4" fill="#009af9" fill-rule="evenodd" fill-opacity="1" stroke="#000000" stroke-opacity="1" stroke-width="3.2"/>
<circle clip-path="url(#clip022)" cx="1547.57" cy="834.971" r="14.4" fill="#009af9" fill-rule="evenodd" fill-opacity="1" stroke="#000000" stroke-opacity="1" stroke-width="3.2"/>
<circle clip-path="url(#clip022)" cx="584.502" cy="1392.48" r="14.4" fill="#009af9" fill-rule="evenodd" fill-opacity="1" stroke="#000000" stroke-opacity="1" stroke-width="3.2"/>
<circle clip-path="url(#clip022)" cx="1346.56" cy="265.646" r="14.4" fill="#009af9" fill-rule="evenodd" fill-opacity="1" stroke="#000000" stroke-opacity="1" stroke-width="3.2"/>
<circle clip-path="url(#clip022)" cx="1431.15" cy="309.962" r="14.4" fill="#009af9" fill-rule="evenodd" fill-opacity="1" stroke="#000000" stroke-opacity="1" stroke-width="3.2"/>
<circle clip-path="url(#clip022)" cx="854.35" cy="758.006" r="14.4" fill="#009af9" fill-rule="evenodd" fill-opacity="1" stroke="#000000" stroke-opacity="1" stroke-width="3.2"/>
<circle clip-path="url(#clip022)" cx="684.903" cy="765.424" r="14.4" fill="#009af9" fill-rule="evenodd" fill-opacity="1" stroke="#000000" stroke-opacity="1" stroke-width="3.2"/>
<circle clip-path="url(#clip022)" cx="1754.32" cy="394.97" r="14.4" fill="#009af9" fill-rule="evenodd" fill-opacity="1" stroke="#000000" stroke-opacity="1" stroke-width="3.2"/>
<circle clip-path="url(#clip022)" cx="1743.01" cy="1324.98" r="14.4" fill="#009af9" fill-rule="evenodd" fill-opacity="1" stroke="#000000" stroke-opacity="1" stroke-width="3.2"/>
<circle clip-path="url(#clip022)" cx="751.739" cy="905.187" r="14.4" fill="#009af9" fill-rule="evenodd" fill-opacity="1" stroke="#000000" stroke-opacity="1" stroke-width="3.2"/>
<circle clip-path="url(#clip022)" cx="1710.21" cy="690.303" r="14.4" fill="#009af9" fill-rule="evenodd" fill-opacity="1" stroke="#000000" stroke-opacity="1" stroke-width="3.2"/>
<circle clip-path="url(#clip022)" cx="1123.64" cy="1415.22" r="14.4" fill="#009af9" fill-rule="evenodd" fill-opacity="1" stroke="#000000" stroke-opacity="1" stroke-width="3.2"/>
<circle clip-path="url(#clip022)" cx="2201.8" cy="433.223" r="14.4" fill="#009af9" fill-rule="evenodd" fill-opacity="1" stroke="#000000" stroke-opacity="1" stroke-width="3.2"/>
<circle clip-path="url(#clip022)" cx="1176.84" cy="1022.72" r="14.4" fill="#009af9" fill-rule="evenodd" fill-opacity="1" stroke="#000000" stroke-opacity="1" stroke-width="3.2"/>
<circle clip-path="url(#clip022)" cx="543.349" cy="923.757" r="14.4" fill="#009af9" fill-rule="evenodd" fill-opacity="1" stroke="#000000" stroke-opacity="1" stroke-width="3.2"/>
<circle clip-path="url(#clip022)" cx="373.913" cy="764.136" r="14.4" fill="#009af9" fill-rule="evenodd" fill-opacity="1" stroke="#000000" stroke-opacity="1" stroke-width="3.2"/>
<circle clip-path="url(#clip022)" cx="269.65" cy="665.047" r="14.4" fill="#009af9" fill-rule="evenodd" fill-opacity="1" stroke="#000000" stroke-opacity="1" stroke-width="3.2"/>
<circle clip-path="url(#clip022)" cx="1678.77" cy="539.002" r="14.4" fill="#009af9" fill-rule="evenodd" fill-opacity="1" stroke="#000000" stroke-opacity="1" stroke-width="3.2"/>
<circle clip-path="url(#clip022)" cx="2120.83" cy="1397.09" r="14.4" fill="#009af9" fill-rule="evenodd" fill-opacity="1" stroke="#000000" stroke-opacity="1" stroke-width="3.2"/>
<circle clip-path="url(#clip022)" cx="494.88" cy="288.707" r="14.4" fill="#009af9" fill-rule="evenodd" fill-opacity="1" stroke="#000000" stroke-opacity="1" stroke-width="3.2"/>
<circle clip-path="url(#clip022)" cx="1973.88" cy="962.736" r="14.4" fill="#009af9" fill-rule="evenodd" fill-opacity="1" stroke="#000000" stroke-opacity="1" stroke-width="3.2"/>
<circle clip-path="url(#clip022)" cx="1993.7" cy="1183.13" r="14.4" fill="#009af9" fill-rule="evenodd" fill-opacity="1" stroke="#000000" stroke-opacity="1" stroke-width="3.2"/>
<circle clip-path="url(#clip022)" cx="1992.88" cy="1285.92" r="14.4" fill="#009af9" fill-rule="evenodd" fill-opacity="1" stroke="#000000" stroke-opacity="1" stroke-width="3.2"/>
<circle clip-path="url(#clip022)" cx="923.664" cy="745.537" r="14.4" fill="#009af9" fill-rule="evenodd" fill-opacity="1" stroke="#000000" stroke-opacity="1" stroke-width="3.2"/>
<circle clip-path="url(#clip022)" cx="792.217" cy="686.664" r="14.4" fill="#009af9" fill-rule="evenodd" fill-opacity="1" stroke="#000000" stroke-opacity="1" stroke-width="3.2"/>
<circle clip-path="url(#clip022)" cx="779.238" cy="1143.23" r="14.4" fill="#009af9" fill-rule="evenodd" fill-opacity="1" stroke="#000000" stroke-opacity="1" stroke-width="3.2"/>
<circle clip-path="url(#clip022)" cx="2106.73" cy="209.655" r="14.4" fill="#009af9" fill-rule="evenodd" fill-opacity="1" stroke="#000000" stroke-opacity="1" stroke-width="3.2"/>
<circle clip-path="url(#clip022)" cx="1423.23" cy="211.45" r="14.4" fill="#009af9" fill-rule="evenodd" fill-opacity="1" stroke="#000000" stroke-opacity="1" stroke-width="3.2"/>
<circle clip-path="url(#clip022)" cx="1414.46" cy="1447.87" r="14.4" fill="#009af9" fill-rule="evenodd" fill-opacity="1" stroke="#000000" stroke-opacity="1" stroke-width="3.2"/>
<circle clip-path="url(#clip022)" cx="1423.38" cy="878.03" r="14.4" fill="#009af9" fill-rule="evenodd" fill-opacity="1" stroke="#000000" stroke-opacity="1" stroke-width="3.2"/>
<circle clip-path="url(#clip022)" cx="1646.21" cy="626.345" r="14.4" fill="#009af9" fill-rule="evenodd" fill-opacity="1" stroke="#000000" stroke-opacity="1" stroke-width="3.2"/>
<circle clip-path="url(#clip022)" cx="1778.88" cy="928.868" r="14.4" fill="#009af9" fill-rule="evenodd" fill-opacity="1" stroke="#000000" stroke-opacity="1" stroke-width="3.2"/>
<circle clip-path="url(#clip022)" cx="1280.11" cy="1166.11" r="14.4" fill="#009af9" fill-rule="evenodd" fill-opacity="1" stroke="#000000" stroke-opacity="1" stroke-width="3.2"/>
<circle clip-path="url(#clip022)" cx="1145.58" cy="165.92" r="14.4" fill="#009af9" fill-rule="evenodd" fill-opacity="1" stroke="#000000" stroke-opacity="1" stroke-width="3.2"/>
<circle clip-path="url(#clip022)" cx="2205.25" cy="267.236" r="14.4" fill="#009af9" fill-rule="evenodd" fill-opacity="1" stroke="#000000" stroke-opacity="1" stroke-width="3.2"/>
<circle clip-path="url(#clip022)" cx="1467.44" cy="921.312" r="14.4" fill="#009af9" fill-rule="evenodd" fill-opacity="1" stroke="#000000" stroke-opacity="1" stroke-width="3.2"/>
<circle clip-path="url(#clip022)" cx="379.357" cy="402.964" r="14.4" fill="#009af9" fill-rule="evenodd" fill-opacity="1" stroke="#000000" stroke-opacity="1" stroke-width="3.2"/>
<path clip-path="url(#clip020)" d="M258.49 1441.02 L527.569 1441.02 L527.569 1337.34 L258.49 1337.34  Z" fill="#ffffff" fill-rule="evenodd" fill-opacity="1"/>
<polyline clip-path="url(#clip020)" style="stroke:#000000; stroke-linecap:round; stroke-linejoin:round; stroke-width:4; stroke-opacity:1; fill:none" points="258.49,1441.02 527.569,1441.02 527.569,1337.34 258.49,1337.34 258.49,1441.02 "/>
<circle clip-path="url(#clip020)" cx="354.778" cy="1389.18" r="20.48" fill="#009af9" fill-rule="evenodd" fill-opacity="1" stroke="#000000" stroke-opacity="1" stroke-width="4.55111"/>
<path clip-path="url(#clip020)" d="M464.909 1408.86 Q463.103 1413.49 461.39 1414.9 Q459.677 1416.32 456.807 1416.32 L453.404 1416.32 L453.404 1412.75 L455.904 1412.75 Q457.663 1412.75 458.636 1411.92 Q459.608 1411.08 460.788 1407.98 L461.552 1406.04 L451.066 1380.53 L455.58 1380.53 L463.682 1400.81 L471.784 1380.53 L476.298 1380.53 L464.909 1408.86 Z" fill="#000000" fill-rule="nonzero" fill-opacity="1" /><path clip-path="url(#clip020)" d="M483.589 1402.52 L491.228 1402.52 L491.228 1376.15 L482.918 1377.82 L482.918 1373.56 L491.182 1371.9 L495.858 1371.9 L495.858 1402.52 L503.497 1402.52 L503.497 1406.46 L483.589 1406.46 L483.589 1402.52 Z" fill="#000000" fill-rule="nonzero" fill-opacity="1" /></svg>
