<svg xmlns="http://www.w3.org/2000/svg" xmlns:xlink="http://www.w3.org/1999/xlink" contentStyleType="text/css" data-diagram-type="ACTIVITY" height="308px" preserveAspectRatio="none" style="width:202px;height:308px;background:#FFFFFF;" version="1.1" viewBox="0 0 202 308" width="202px" zoomAndPan="magnify"><defs/><g><ellipse cx="102.3315" cy="20" fill="#222222" rx="10" ry="10" style="stroke:#222222;stroke-width:1;"/><rect fill="#F1F1F1" height="33.9688" rx="12.5" ry="12.5" style="stroke:#181818;stroke-width:0.5;" width="58.2031" x="73.23" y="50"/><text fill="#000000" font-family="sans-serif" font-size="12" lengthAdjust="spacing" textLength="38.2031" x="83.23" y="71.1387">read x</text><polygon fill="#F1F1F1" points="102.3315,103.9688,102.3315,103.9688,114.3315,115.9688,102.3315,127.9688,102.3315,127.9688,90.3315,115.9688,102.3315,103.9688" style="stroke:#181818;stroke-width:0.5;"/><text fill="#000000" font-family="sans-serif" font-size="11" lengthAdjust="spacing" textLength="29.7183" x="60.6133" y="113.3745">x &lt; 0</text><text fill="#000000" font-family="sans-serif" font-size="11" lengthAdjust="spacing" textLength="38.9351" x="114.3315" y="113.3745">x &gt;= 0</text><rect fill="#F1F1F1" height="33.9688" rx="12.5" ry="12.5" style="stroke:#181818;stroke-width:0.5;" width="82.4141" x="11" y="137.9688"/><text fill="#000000" font-family="sans-serif" font-size="12" lengthAdjust="spacing" textLength="62.4141" x="21" y="159.1074">set y := -x</text><rect fill="#F1F1F1" height="33.9688" rx="12.5" ry="12.5" style="stroke:#181818;stroke-width:0.5;" width="78.084" x="113.4141" y="137.9688"/><text fill="#000000" font-family="sans-serif" font-size="12" lengthAdjust="spacing" textLength="58.084" x="123.4141" y="159.1074">set y := x</text><polygon fill="#F1F1F1" points="102.3315,177.9375,114.3315,189.9375,102.3315,201.9375,90.3315,189.9375,102.3315,177.9375" style="stroke:#181818;stroke-width:0.5;"/><rect fill="#F1F1F1" height="33.9688" rx="12.5" ry="12.5" style="stroke:#181818;stroke-width:0.5;" width="61.0859" x="71.7886" y="221.9375"/><text fill="#000000" font-family="sans-serif" font-size="12" lengthAdjust="spacing" textLength="41.0859" x="81.7886" y="243.0762">write y</text><ellipse cx="102.3315" cy="286.9063" fill="none" rx="11" ry="11" style="stroke:#222222;stroke-width:1;"/><ellipse cx="102.3315" cy="286.9063" fill="#222222" rx="6" ry="6" style="stroke:#222222;stroke-width:1;"/><line style="stroke:#181818;stroke-width:1;" x1="102.3315" x2="102.3315" y1="30" y2="50"/><polygon fill="#181818" points="98.3315,40,102.3315,50,106.3315,40,102.3315,44" style="stroke:#181818;stroke-width:1;"/><line style="stroke:#181818;stroke-width:1;" x1="90.3315" x2="52.207" y1="115.9688" y2="115.9688"/><line style="stroke:#181818;stroke-width:1;" x1="52.207" x2="52.207" y1="115.9688" y2="137.9688"/><polygon fill="#181818" points="48.207,127.9688,52.207,137.9688,56.207,127.9688,52.207,131.9688" style="stroke:#181818;stroke-width:1;"/><line style="stroke:#181818;stroke-width:1;" x1="114.3315" x2="152.4561" y1="115.9688" y2="115.9688"/><line style="stroke:#181818;stroke-width:1;" x1="152.4561" x2="152.4561" y1="115.9688" y2="137.9688"/><polygon fill="#181818" points="148.4561,127.9688,152.4561,137.9688,156.4561,127.9688,152.4561,131.9688" style="stroke:#181818;stroke-width:1;"/><line style="stroke:#181818;stroke-width:1;" x1="52.207" x2="52.207" y1="171.9375" y2="189.9375"/><line style="stroke:#181818;stroke-width:1;" x1="52.207" x2="90.3315" y1="189.9375" y2="189.9375"/><polygon fill="#181818" points="80.3315,185.9375,90.3315,189.9375,80.3315,193.9375,84.3315,189.9375" style="stroke:#181818;stroke-width:1;"/><line style="stroke:#181818;stroke-width:1;" x1="152.4561" x2="152.4561" y1="171.9375" y2="189.9375"/><line style="stroke:#181818;stroke-width:1;" x1="152.4561" x2="114.3315" y1="189.9375" y2="189.9375"/><polygon fill="#181818" points="124.3315,185.9375,114.3315,189.9375,124.3315,193.9375,120.3315,189.9375" style="stroke:#181818;stroke-width:1;"/><line style="stroke:#181818;stroke-width:1;" x1="102.3315" x2="102.3315" y1="83.9688" y2="103.9688"/><polygon fill="#181818" points="98.3315,93.9688,102.3315,103.9688,106.3315,93.9688,102.3315,97.9688" style="stroke:#181818;stroke-width:1;"/><line style="stroke:#181818;stroke-width:1;" x1="102.3315" x2="102.3315" y1="201.9375" y2="221.9375"/><polygon fill="#181818" points="98.3315,211.9375,102.3315,221.9375,106.3315,211.9375,102.3315,215.9375" style="stroke:#181818;stroke-width:1;"/><line style="stroke:#181818;stroke-width:1;" x1="102.3315" x2="102.3315" y1="255.9063" y2="275.9063"/><polygon fill="#181818" points="98.3315,265.9063,102.3315,275.9063,106.3315,265.9063,102.3315,269.9063" style="stroke:#181818;stroke-width:1;"/><!--SRC=[NSf12e0W40NG_PpYBtKHj1wpkmYE98I53gItBxUjtsiQgX9N2H7TKKum5df8WUdOi5e2k8bYW3sMhyZPPEBk_pgnn9o8dvfLC1mrlUuN]--></g></svg>
