<svg xmlns="http://www.w3.org/2000/svg" xmlns:xlink="http://www.w3.org/1999/xlink" contentStyleType="text/css" data-diagram-type="ACTIVITY" height="244px" preserveAspectRatio="none" style="width:132px;height:244px;background:#FFFFFF;" version="1.1" viewBox="0 0 132 244" width="132px" zoomAndPan="magnify"><defs/><g><ellipse cx="66.123" cy="20" fill="#222222" rx="10" ry="10" style="stroke:#222222;stroke-width:1;"/><rect fill="#F1F1F1" height="33.9688" rx="12.5" ry="12.5" style="stroke:#181818;stroke-width:0.5;" width="110.2461" x="11" y="50"/><text fill="#000000" font-family="sans-serif" font-size="12" lengthAdjust="spacing" textLength="90.2461" x="21" y="71.1387">initialise x := 5</text><rect fill="#F1F1F1" height="33.9688" rx="12.5" ry="12.5" style="stroke:#181818;stroke-width:0.5;" width="110.2461" x="11" y="103.9688"/><text fill="#000000" font-family="sans-serif" font-size="12" lengthAdjust="spacing" textLength="90.2461" x="21" y="125.1074">initialise y := 3</text><rect fill="#F1F1F1" height="33.9688" rx="12.5" ry="12.5" style="stroke:#181818;stroke-width:0.5;" width="98.0117" x="17.1172" y="157.9375"/><text fill="#000000" font-family="sans-serif" font-size="12" lengthAdjust="spacing" textLength="78.0117" x="27.1172" y="179.0762">set z := x * y</text><ellipse cx="66.123" cy="222.9063" fill="none" rx="11" ry="11" style="stroke:#222222;stroke-width:1;"/><ellipse cx="66.123" cy="222.9063" fill="#222222" rx="6" ry="6" style="stroke:#222222;stroke-width:1;"/><line style="stroke:#181818;stroke-width:1;" x1="66.123" x2="66.123" y1="30" y2="50"/><polygon fill="#181818" points="62.123,40,66.123,50,70.123,40,66.123,44" style="stroke:#181818;stroke-width:1;"/><line style="stroke:#181818;stroke-width:1;" x1="66.123" x2="66.123" y1="83.9688" y2="103.9688"/><polygon fill="#181818" points="62.123,93.9688,66.123,103.9688,70.123,93.9688,66.123,97.9688" style="stroke:#181818;stroke-width:1;"/><line style="stroke:#181818;stroke-width:1;" x1="66.123" x2="66.123" y1="137.9375" y2="157.9375"/><polygon fill="#181818" points="62.123,147.9375,66.123,157.9375,70.123,147.9375,66.123,151.9375" style="stroke:#181818;stroke-width:1;"/><line style="stroke:#181818;stroke-width:1;" x1="66.123" x2="66.123" y1="191.9063" y2="211.9063"/><polygon fill="#181818" points="62.123,201.9063,66.123,211.9063,70.123,201.9063,66.123,205.9063" style="stroke:#181818;stroke-width:1;"/><!--SRC=[Aov9B2hXiihCoop9JCp9B4vLg52mibKmjKOHgmI96GF5YbDB5Af0d0e5BOLAQwxYalm20000]--></g></svg>
