<svg xmlns="http://www.w3.org/2000/svg" xmlns:xlink="http://www.w3.org/1999/xlink" contentStyleType="text/css" data-diagram-type="ACTIVITY" height="290px" preserveAspectRatio="none" style="width:150px;height:290px;background:#FFFFFF;" version="1.1" viewBox="0 0 150 290" width="150px" zoomAndPan="magnify"><defs/><g><ellipse cx="64.2393" cy="20" fill="#222222" rx="10" ry="10" style="stroke:#222222;stroke-width:1;"/><rect fill="#F1F1F1" height="33.9688" rx="12.5" ry="12.5" style="stroke:#181818;stroke-width:0.5;" width="106.4785" x="11" y="50"/><text fill="#000000" font-family="sans-serif" font-size="12" lengthAdjust="spacing" textLength="86.4785" x="21" y="71.1387">initialise i := 0</text><rect fill="#F1F1F1" height="33.9688" rx="12.5" ry="12.5" style="stroke:#181818;stroke-width:0.5;" width="95.8672" x="16.3057" y="147.9688"/><text fill="#000000" font-family="sans-serif" font-size="12" lengthAdjust="spacing" textLength="75.8672" x="26.3057" y="169.1074">set i := i + 1</text><polygon fill="#F1F1F1" points="64.2393,103.9688,76.2393,115.9688,64.2393,127.9688,52.2393,115.9688,64.2393,103.9688" style="stroke:#181818;stroke-width:0.5;"/><polygon fill="#F1F1F1" points="64.2393,201.9375,64.2393,201.9375,76.2393,213.9375,64.2393,225.9375,64.2393,225.9375,52.2393,213.9375,64.2393,201.9375" style="stroke:#181818;stroke-width:0.5;"/><text fill="#000000" font-family="sans-serif" font-size="11" lengthAdjust="spacing" textLength="35.4814" x="68.2393" y="236.1479">i &gt;= 5</text><text fill="#000000" font-family="sans-serif" font-size="11" lengthAdjust="spacing" textLength="26.2646" x="79.7358" y="211.3433">i &lt; 5</text><ellipse cx="64.2393" cy="268.6479" fill="none" rx="11" ry="11" style="stroke:#222222;stroke-width:1;"/><ellipse cx="64.2393" cy="268.6479" fill="#222222" rx="6" ry="6" style="stroke:#222222;stroke-width:1;"/><line style="stroke:#181818;stroke-width:1;" x1="64.2393" x2="64.2393" y1="30" y2="50"/><polygon fill="#181818" points="60.2393,40,64.2393,50,68.2393,40,64.2393,44" style="stroke:#181818;stroke-width:1;"/><line style="stroke:#181818;stroke-width:1;" x1="64.2393" x2="64.2393" y1="127.9688" y2="147.9688"/><polygon fill="#181818" points="60.2393,137.9688,64.2393,147.9688,68.2393,137.9688,64.2393,141.9688" style="stroke:#181818;stroke-width:1;"/><line style="stroke:#181818;stroke-width:1;" x1="76.2393" x2="124.1729" y1="213.9375" y2="213.9375"/><polygon fill="#181818" points="120.1729,174.9531,124.1729,164.9531,128.1729,174.9531,124.1729,170.9531" style="stroke:#181818;stroke-width:1;"/><line style="stroke:#181818;stroke-width:1;" x1="124.1729" x2="124.1729" y1="115.9688" y2="213.9375"/><line style="stroke:#181818;stroke-width:1;" x1="124.1729" x2="76.2393" y1="115.9688" y2="115.9688"/><polygon fill="#181818" points="86.2393,111.9688,76.2393,115.9688,86.2393,119.9688,82.2393,115.9688" style="stroke:#181818;stroke-width:1;"/><line style="stroke:#181818;stroke-width:1;" x1="64.2393" x2="64.2393" y1="181.9375" y2="201.9375"/><polygon fill="#181818" points="60.2393,191.9375,64.2393,201.9375,68.2393,191.9375,64.2393,195.9375" style="stroke:#181818;stroke-width:1;"/><line style="stroke:#181818;stroke-width:1;" x1="64.2393" x2="64.2393" y1="83.9688" y2="103.9688"/><polygon fill="#181818" points="60.2393,93.9688,64.2393,103.9688,68.2393,93.9688,64.2393,97.9688" style="stroke:#181818;stroke-width:1;"/><line style="stroke:#181818;stroke-width:1;" x1="64.2393" x2="64.2393" y1="225.9375" y2="257.6479"/><polygon fill="#181818" points="60.2393,247.6479,64.2393,257.6479,68.2393,247.6479,64.2393,251.6479" style="stroke:#181818;stroke-width:1;"/><!--SRC=[DSan2iCm44N1NgTufOIRf50ZsxcBYWL_C9RmBkJw2OIqCnxzZjHqATHFkI7QpcDDjqthaQ2vnK_5mlC_l0-THYx8oT_Rg1Ik4MJnsgabUOpv0G00]--></g></svg>
